<svg xmlns="http://www.w3.org/2000/svg" width="124.214" height="40" viewBox="0 0 124.214 40"><g id="Calque-1" transform="translate(-26.236 -181.262)" fill="#fff"><path id="path1779" d="M171.592 187.641h1.021q.848 0 1.021 1.174 0 .837-1.119 1.087h-.652a1.643 1.643 0 00-1.652 1.38l-.033.815v.239h1.434l.652-.033q.793 0 1.043 1.076v.152q0 .782-1.033 1.032h-2.1v7.814l.033.456q0 .826-1.109 1.076a1.247 1.247 0 01-1.184-.978l.044-.554v-7.814h-1.826q-.848 0-1.021-1.174 0-.641.924-1.086l.891.033h.989v-.413a4.085 4.085 0 012.652-4.1z" transform="translate(-74.395 -3.417)"/><path id="path1781" d="M186.945 203.135v.12a3.578 3.578 0 002.238 3.347 3.614 3.614 0 001.25.261h.315A3.557 3.557 0 00193.8 205a3.721 3.721 0 00.435-1.663v-.163a3.572 3.572 0 00-2.12-3.282 3.678 3.678 0 00-1.522-.326h-.043a3.633 3.633 0 00-3.391 2.347 4.315 4.315 0 00-.217 1.217m7.3 4.728a4.919 4.919 0 01-3.5 1.239h-.315a5.875 5.875 0 01-5-3 6.48 6.48 0 01-.728-2.923 5.848 5.848 0 013.217-5.206 6.278 6.278 0 012.673-.641 5.926 5.926 0 015.282 3.26 6.67 6.67 0 01.6 2.75v4.706q0 .869-1.065 1.054h-.076a1.176 1.176 0 01-1.1-.869v-.119l.011-.25z" transform="translate(-84.891 -8.609)"/><path id="path1783" d="M216.413 193.958q1.075.272 1.076 1.021v9.76q0 .88-1.087 1.065h-.065q-.891 0-1.1-1.109v-9.5q.13-1.239 1.174-1.239m0-2.782q1.075.272 1.076 1.021v.239q0 .859-1.163 1.021-.837 0-1.1-1.141.228-1.141 1.185-1.141" transform="translate(-101.241 -5.311)"/><path id="path1785" d="M226.431 197.144q1.066.272 1.065 1.022v.174a5.094 5.094 0 013.511-1.2 6.408 6.408 0 012.522.587 1.368 1.368 0 01.467.924v.076q-.185 1.065-1.1 1.065h-.1a6.123 6.123 0 00-1.63-.359h-.239a3.374 3.374 0 00-3.217 2.283 4.053 4.053 0 00-.218 1.391v4.826q0 .88-1.086 1.065h-.065q-.891 0-1.1-1.108v-9.5q.13-1.249 1.184-1.25" transform="translate(-106.608 -8.508)"/><path id="path1787" d="M173.016 243.647q-.011-.217-.446-.261-5.5-1.228-5.868-1.565a2.545 2.545 0 01-1.12-2.1q0-1.7 2.369-3.217a5.506 5.506 0 012.576-.685 5.316 5.316 0 014.706 2.75l.044.4v.065q0 .924-1.109 1.087-.739 0-1.369-1.043a3.157 3.157 0 00-2.271-.967 2.923 2.923 0 00-2.619 1.565l-.022.109q0 .218.935.293 4.673 1.13 5.162 1.315a2.6 2.6 0 011.337 2.228v.032q0 1.859-2.63 3.358a5.818 5.818 0 01-2.4.511 5.316 5.316 0 01-4.4-2.434 1.1 1.1 0 01-.228-.631v-.239q0-.88 1.2-1.01.576 0 1.359 1.119a3.18 3.18 0 002.239.891 2.985 2.985 0 002.521-1.424l.044-.152z" transform="translate(-74.646 -29.227)"/><path id="path1789" d="M190.433 236.08a.983.983 0 011.043.717 3.96 3.96 0 012.554-.717 4.4 4.4 0 013.576 1.652 4.363 4.363 0 012.619-1.522l.956-.13a4.725 4.725 0 014.782 4.63v5.956q0 .793-1.054 1h-.1q-1.054-.185-1.054-1.087V240.8a2.423 2.423 0 00-1.826-2.4l-.5-.065h-.38a2.424 2.424 0 00-2.218 1.7 2.39 2.39 0 00-.1.609v5.945q-.2 1.087-1.076 1.087h-.076q-1.054-.185-1.054-1.043v-4.923q0-1.9-.467-2.337a2.4 2.4 0 00-2-1.043h-.12a2.417 2.417 0 00-2.358 1.8 5.1 5.1 0 00-.109 1.185v5.3q0 .859-1.054 1.043h-.065q-.88 0-1.087-1.087v-9.27q.12-1.229 1.163-1.228" transform="translate(-87.335 -29.365)"/><path id="path1791" d="M230.388 241.485v.12a3.585 3.585 0 003.489 3.608h.315a3.558 3.558 0 003.054-1.859 3.72 3.72 0 00.435-1.663v-.163a3.571 3.571 0 00-2.119-3.282 3.685 3.685 0 00-1.522-.326H234a3.634 3.634 0 00-3.391 2.347 4.332 4.332 0 00-.217 1.217m7.3 4.728a4.919 4.919 0 01-3.5 1.239h-.315a5.876 5.876 0 01-5-3 6.487 6.487 0 01-.728-2.923 5.848 5.848 0 013.217-5.206 6.28 6.28 0 012.674-.641 5.925 5.925 0 015.282 3.26 6.671 6.671 0 01.6 2.75v4.709q0 .87-1.065 1.054h-.076a1.177 1.177 0 01-1.1-.869v-.119l.011-.25z" transform="translate(-108.162 -29.152)"/><path id="path1793" d="M259.787 235.494q1.064.272 1.065 1.022v.174a5.094 5.094 0 013.511-1.2 6.4 6.4 0 012.521.587 1.365 1.365 0 01.468.924v.076q-.185 1.065-1.1 1.065h-.1a6.122 6.122 0 00-1.63-.359h-.239a3.374 3.374 0 00-3.217 2.283 4.054 4.054 0 00-.218 1.391v4.826q0 .88-1.087 1.065h-.061q-.891 0-1.1-1.109v-9.5q.13-1.249 1.185-1.249" transform="translate(-124.476 -29.051)"/><path id="path1795" d="M281.055 227.091h.184q1.011.218 1.011.968v3.26h1.294l.358-.044q.836 0 1.1 1.087a1.218 1.218 0 01-.956 1.163l-.652-.043h-1.144v5.532q0 1.3.739 1.554l.859.076h.435q.793 0 1 1.054v.1q-.185 1.054-1.087 1.054h-.837a3.321 3.321 0 01-3.13-2.283 4.291 4.291 0 01-.185-1.315v-5.771h-.457l-.7.043a1.2 1.2 0 01-.956-1.152q.185-1.054.717-1.054v-.076l.749.076h.642v-3.043q.13-1.185 1.011-1.185" transform="translate(-134.833 -24.55)"/><path id="path1797" d="M26.236 221.262h11.051v-4.021h-7.03v-31.958h7.029v-4.021h-11.05v40z"/><path id="path1799" d="M124.932 181.262v4.021h7.029v31.957h-7.029v4.021h11.051v-40z" transform="translate(-52.87)"/><path id="path1801" d="M75.374 214a16.357 16.357 0 01-3.652 2.154 13.178 13.178 0 01-5.215.912 8.412 8.412 0 01-5.535-1.959 6.789 6.789 0 01-1.808-2.234 6.275 6.275 0 01-.685-2.881 8.509 8.509 0 01.394-2.686 9.853 9.853 0 014.16-5.113l.292-.185 12.454 11.672zm9.081 3.062l-.014-.013-3.832-3.661.225-.315c2.254-3.147 2.727-4.652 2.727-5.361a1.407 1.407 0 00-.5-1.031 1.606 1.606 0 00-1.15-.486 2.011 2.011 0 00-1.132.3 3.317 3.317 0 00-.955 1.4 20.481 20.481 0 01-1.491 2.657l-.291.446-11.47-10.808a28.116 28.116 0 01-4.15-4.376 7.155 7.155 0 01-.979-1.909 8.742 8.742 0 01-.313-2.629 4.536 4.536 0 011.568-3.291 6.239 6.239 0 011.946-1.206 8.59 8.59 0 013.135-.456 6.092 6.092 0 012.214.375c.819.239 2.895 1.544 3.208 2.633.294 1.022-.644 2.244-1.484 3.089a1.6 1.6 0 00.007 2.259 1.637 1.637 0 002.259-.007c2.6-2.618 2.687-4.815 2.294-6.2a7.065 7.065 0 00-1.954-2.756 1.845 1.845 0 00-.311-.258 10.966 10.966 0 00-2.357-1.4 12.663 12.663 0 00-4.619-.972 9.436 9.436 0 00-6.95 2.627 8.471 8.471 0 00-1.865 2.822 9.9 9.9 0 00-.657 3.73 7.736 7.736 0 00.875 3.713 21.561 21.561 0 002.26 3.351l.324.4-.44.264a12.979 12.979 0 00-3.69 3.437 10.711 10.711 0 00-2.086 6.363 9.682 9.682 0 002.839 7.109c2.236 2.236 5.5 3.369 9.707 3.369a15.906 15.906 0 0010.581-4.029l.306-.262 3.844 3.672a1.957 1.957 0 001.39.513 1.5 1.5 0 001.223-.5 1.908 1.908 0 00.452-1.278 1.732 1.732 0 00-.7-1.309" transform="translate(-15.306 -.972)"/><path id="path1803" d="M258.088 202.437a7.511 7.511 0 01-1.444.885v.01l-.275.119a6.276 6.276 0 01-2.491.441 4.37 4.37 0 01-1.47-.244 4.14 4.14 0 01-1.265-.723 3.461 3.461 0 01-.915-1.132 3.237 3.237 0 01-.353-1.483 4.224 4.224 0 01.2-1.334v-.007a4.653 4.653 0 01.785-1.405 5.164 5.164 0 011.243-1.093l.428-.272 6.159 5.772zm3.435 1.341l-.011-.01-1.987-1.9.331-.462a10.019 10.019 0 00.935-1.518 1.593 1.593 0 00.187-.589.073.073 0 00-.009-.037.319.319 0 00-.071-.089.332.332 0 00-.1-.071.22.22 0 00-.091-.017.446.446 0 00-.247.054l-.01.009a.572.572 0 00-.053.063 2.1 2.1 0 00-.2.359 9.411 9.411 0 01-.693 1.236l-.427.655-5.475-5.16a24.46 24.46 0 01-1.193-1.158 6.527 6.527 0 01-.7-.849v-.014a3.614 3.614 0 01-.486-.955 4.281 4.281 0 01-.161-1.3 2.205 2.205 0 01.219-.955 2.888 2.888 0 01.615-.831 3.228 3.228 0 011-.623 4.227 4.227 0 011.558-.235 3.175 3.175 0 011.108.185l.019.007.018.007a2.111 2.111 0 01.25.1c.1.048.2.1.311.17a4.049 4.049 0 01.639.477 2.148 2.148 0 01.355.415 1.194 1.194 0 01.138.3 1.106 1.106 0 01.042.3 1.368 1.368 0 01-.089.47 2.133 2.133 0 01-.2.4 3.9 3.9 0 01-.524.641.247.247 0 00-.072.176.255.255 0 00.427.176 3.715 3.715 0 00.773-1.063 1.935 1.935 0 00.187-.8 1.559 1.559 0 00-.054-.41 2.658 2.658 0 00-.731-1.023l-.013-.012-.012-.013a.374.374 0 00-.065-.054l-.014-.009-.013-.011a4.379 4.379 0 00-.947-.564 5.15 5.15 0 00-1.861-.392 4.391 4.391 0 00-1.563.263 3.316 3.316 0 00-1.19.767 3.276 3.276 0 00-.725 1.1 3.927 3.927 0 00-.257 1.479 2.971 2.971 0 00.332 1.427 9.048 9.048 0 00.953 1.411l.475.586-.647.388a5.29 5.29 0 00-1.5 1.4 4.282 4.282 0 00-.836 2.547 4.18 4.18 0 00.283 1.562 3.719 3.719 0 00.84 1.262 4.272 4.272 0 001.648 1.008 7.1 7.1 0 002.326.349 6.437 6.437 0 002.309-.418 7.037 7.037 0 002.078-1.256l.449-.385 2 1.906a.372.372 0 00.124.077.509.509 0 00.18.028.366.366 0 00.139-.021.13.13 0 00.053-.039.378.378 0 00.069-.119.454.454 0 00.024-.153.168.168 0 00-.023-.085.571.571 0 00-.13-.151" transform="translate(-119.416 -4.062)"/><path id="path1807" d="M275.773 209.64l.008.008z" transform="translate(-133.674 -15.202)"/></g></svg>