<svg xmlns="http://www.w3.org/2000/svg" width="161.478" height="52" viewBox="0 0 161.478 52"><g id="Calque-1" transform="translate(-26.236 -181.262)"><path id="path1779" d="M173.535 187.641h1.328q1.1 0 1.328 1.526 0 1.088-1.455 1.413h-.847a2.135 2.135 0 00-2.148 1.794l-.042 1.06v.311h1.865l.848-.042q1.031 0 1.356 1.4v.2q0 1.017-1.342 1.342H171.7V206.8l.042.593q0 1.074-1.441 1.4a1.621 1.621 0 01-1.54-1.271l.057-.721v-10.16h-2.374q-1.1 0-1.328-1.526 0-.833 1.2-1.412l1.158.042h1.286v-.537a5.31 5.31 0 013.447-5.327z" transform="translate(-55.051 -2.529)" fill="#58595b"/><path id="path1781" d="M187.617 204.876v.156a4.651 4.651 0 002.91 4.351 4.7 4.7 0 001.625.339h.41a4.624 4.624 0 003.97-2.416 4.838 4.838 0 00.566-2.162v-.212a4.644 4.644 0 00-2.755-4.267 4.781 4.781 0 00-1.978-.424h-.056a4.723 4.723 0 00-4.408 3.051 5.609 5.609 0 00-.283 1.583m9.494 6.146a6.394 6.394 0 01-4.549 1.61h-.41q-3.9 0-6.5-3.9a8.424 8.424 0 01-.946-3.8q0-4.267 4.182-6.768a8.161 8.161 0 013.476-.834q4.338 0 6.867 4.238a8.671 8.671 0 01.777 3.575v6.118q0 1.13-1.385 1.37h-.1a1.528 1.528 0 01-1.427-1.13v-.155l.014-.325z" transform="translate(-62.817 -6.37)" fill="#58595b"/><path id="path1783" d="M216.768 194.793q1.4.353 1.4 1.328v12.688q0 1.144-1.413 1.385h-.085q-1.159 0-1.427-1.441V196.4q.169-1.611 1.526-1.61m0-3.617q1.4.353 1.4 1.328v.311q0 1.116-1.512 1.328-1.088 0-1.427-1.484.3-1.483 1.54-1.483" transform="translate(-74.915 -3.93)" fill="#58595b"/><path id="path1785" d="M226.787 197.144q1.385.353 1.385 1.329v.226a6.623 6.623 0 014.564-1.554 8.33 8.33 0 013.278.763 1.778 1.778 0 01.607 1.2v.1q-.241 1.384-1.427 1.385h-.127a7.959 7.959 0 00-2.119-.467h-.311a4.386 4.386 0 00-4.182 2.967 5.269 5.269 0 00-.283 1.808v6.273q0 1.144-1.412 1.384h-.085q-1.158 0-1.427-1.441v-12.348q.169-1.624 1.54-1.625" transform="translate(-78.887 -6.296)" fill="#58595b"/><path id="path1787" d="M175.246 245.995q-.014-.282-.579-.339-7.149-1.6-7.629-2.035a3.308 3.308 0 01-1.456-2.726q0-2.2 3.08-4.182a7.158 7.158 0 013.349-.89 6.91 6.91 0 016.118 3.575l.057.523V240q0 1.2-1.441 1.413-.961 0-1.78-1.356a4.1 4.1 0 00-2.953-1.257 3.8 3.8 0 00-3.4 2.034l-.028.141q0 .283 1.215.381 6.074 1.469 6.711 1.71a3.379 3.379 0 011.738 2.9v.042q0 2.417-3.419 4.366a7.563 7.563 0 01-3.122.664 6.911 6.911 0 01-5.722-3.165 1.436 1.436 0 01-.3-.82v-.311q0-1.144 1.554-1.313.749 0 1.766 1.455a4.134 4.134 0 002.911 1.158 3.88 3.88 0 003.278-1.851l.057-.2z" transform="translate(-55.236 -21.627)" fill="#58595b"/><path id="path1789" d="M190.782 236.08a1.278 1.278 0 011.356.932 5.148 5.148 0 013.32-.932 5.725 5.725 0 014.648 2.147q.608-1.13 3.4-1.978l1.243-.169a6.142 6.142 0 016.217 6.019v7.742q0 1.031-1.37 1.3h-.127q-1.37-.24-1.37-1.412v-7.517a3.15 3.15 0 00-2.374-3.122l-.645-.09h-.494a3.151 3.151 0 00-2.883 2.2 3.107 3.107 0 00-.127.791v7.729q-.254 1.413-1.4 1.412h-.1q-1.371-.24-1.371-1.356V243.4q0-2.473-.607-3.038A3.12 3.12 0 00195.5 239h-.156a3.142 3.142 0 00-3.066 2.345 6.633 6.633 0 00-.141 1.54v6.894q0 1.116-1.37 1.356h-.085q-1.144 0-1.413-1.412v-12.046q.156-1.6 1.512-1.6" transform="translate(-64.626 -21.73)" fill="#58595b"/><path id="path1791" d="M231.06 243.226v.156a4.66 4.66 0 004.535 4.691H236a4.625 4.625 0 003.971-2.416 4.836 4.836 0 00.565-2.161v-.212a4.643 4.643 0 00-2.755-4.267 4.791 4.791 0 00-1.978-.424h-.057a4.724 4.724 0 00-4.408 3.051 5.632 5.632 0 00-.282 1.583m9.494 6.146a6.4 6.4 0 01-4.549 1.61h-.401q-3.9 0-6.5-3.9a8.432 8.432 0 01-.946-3.8q0-4.267 4.182-6.768a8.164 8.164 0 013.476-.834q4.337 0 6.866 4.239a8.672 8.672 0 01.777 3.575v6.118q0 1.131-1.385 1.37h-.1a1.53 1.53 0 01-1.427-1.13v-.153l.014-.325z" transform="translate(-80.037 -21.572)" fill="#58595b"/><path id="path1793" d="M260.142 235.494q1.383.354 1.384 1.329v.226a6.622 6.622 0 014.564-1.554 8.313 8.313 0 013.278.764 1.775 1.775 0 01.608 1.2v.1q-.241 1.384-1.427 1.385h-.127a7.958 7.958 0 00-2.119-.467h-.311a4.386 4.386 0 00-4.182 2.967 5.27 5.27 0 00-.283 1.808v6.273q0 1.144-1.412 1.385h-.085q-1.158 0-1.427-1.441v-12.35q.169-1.624 1.54-1.624" transform="translate(-92.109 -21.497)" fill="#58595b"/><path id="path1795" d="M281.991 227.091h.24q1.315.283 1.314 1.258v4.238h1.682l.466-.057q1.087 0 1.427 1.413a1.584 1.584 0 01-1.243 1.511l-.847-.056h-1.484v7.191q0 1.695.961 2.02l1.116.1h.565q1.031 0 1.3 1.37v.127q-.241 1.371-1.413 1.371h-1.088q-2.742 0-4.069-2.967a5.579 5.579 0 01-.24-1.709v-7.5h-.594l-.9.056a1.561 1.561 0 01-1.243-1.5q.24-1.37.933-1.37v-.1l.974.1h.834v-3.956q.169-1.54 1.314-1.54" transform="translate(-99.773 -18.166)" fill="#58595b"/><path id="path1797" d="M26.236 233.262H40.6v-5.228h-9.136V186.49H40.6v-5.228H26.236v52z" fill="#e85624"/><path id="path1799" d="M124.932 181.262v5.228h9.138v41.544h-9.138v5.228H139.3v-52z" transform="translate(-39.123)" fill="#e85624"/><path id="path1801" d="M81.543 223.28a21.265 21.265 0 01-4.748 2.8 17.131 17.131 0 01-6.78 1.185 10.935 10.935 0 01-7.2-2.547 8.825 8.825 0 01-2.351-2.9 8.157 8.157 0 01-.89-3.745 11.062 11.062 0 01.512-3.492 12.809 12.809 0 015.414-6.651l.379-.241 16.191 15.173zm11.8 3.98l-.019-.016-4.982-4.759.293-.409c2.931-4.091 3.546-6.048 3.546-6.97a1.829 1.829 0 00-.649-1.34 2.088 2.088 0 00-1.5-.631 2.614 2.614 0 00-1.471.386 4.312 4.312 0 00-1.242 1.826 26.625 26.625 0 01-1.938 3.454l-.378.579L70.1 205.323a36.551 36.551 0 01-5.4-5.688 9.3 9.3 0 01-1.272-2.482 11.364 11.364 0 01-.407-3.418 5.9 5.9 0 012.038-4.278 8.11 8.11 0 012.53-1.568 11.167 11.167 0 014.076-.593 7.92 7.92 0 012.878.487c1.064.311 3.763 2.008 4.171 3.423.383 1.329-.837 2.917-1.929 4.015a2.08 2.08 0 00.01 2.937 2.128 2.128 0 002.937-.009c3.383-3.4 3.492-6.259 2.982-8.065a9.185 9.185 0 00-2.541-3.583 2.4 2.4 0 00-.4-.335 14.256 14.256 0 00-3.064-1.826 16.462 16.462 0 00-6-1.263 12.266 12.266 0 00-9.035 3.415 11.013 11.013 0 00-2.424 3.669 12.874 12.874 0 00-.853 4.849 10.057 10.057 0 001.137 4.827 28.03 28.03 0 002.938 4.356l.421.518-.572.343a16.873 16.873 0 00-4.8 4.468 13.924 13.924 0 00-2.712 8.272 12.587 12.587 0 003.691 9.242c2.906 2.906 7.152 4.38 12.62 4.38a20.678 20.678 0 0013.756-5.237l.4-.341 5 4.774a2.544 2.544 0 001.807.667 1.947 1.947 0 001.591-.656 2.48 2.48 0 00.588-1.661 2.252 2.252 0 00-.906-1.7" transform="translate(-11.326 -.719)" fill="#42bdd8"/><path id="path1803" d="M260.767 206.514a9.764 9.764 0 01-1.877 1.151v.013l-.357.155a8.158 8.158 0 01-3.238.573 5.681 5.681 0 01-1.911-.317 5.382 5.382 0 01-1.645-.94h-.006a4.5 4.5 0 01-1.19-1.471 4.208 4.208 0 01-.459-1.928 5.49 5.49 0 01.257-1.735 6.049 6.049 0 011.02-1.827 6.713 6.713 0 011.616-1.421l.557-.354 8.007 7.5zm4.465 1.743l-.014-.013-2.583-2.468.43-.6a13.023 13.023 0 001.216-1.974 2.071 2.071 0 00.243-.766.1.1 0 00-.012-.048.414.414 0 00-.092-.116.432.432 0 00-.132-.092.286.286 0 00-.119-.022.58.58 0 00-.321.07l-.013.012a.74.74 0 00-.069.082 2.73 2.73 0 00-.259.467 12.234 12.234 0 01-.9 1.607l-.555.851-7.117-6.708a31.876 31.876 0 01-1.551-1.505 8.486 8.486 0 01-.916-1.1l-.006-.009-.006-.008a4.7 4.7 0 01-.631-1.241 5.565 5.565 0 01-.209-1.7 2.866 2.866 0 01.284-1.241 3.755 3.755 0 01.8-1.08 4.2 4.2 0 011.3-.809 5.5 5.5 0 012.025-.305 4.128 4.128 0 011.441.24l.025.008.024.008a2.745 2.745 0 01.325.132c.129.062.264.136.4.221a5.265 5.265 0 01.831.62 2.793 2.793 0 01.462.54 1.553 1.553 0 01.18.392 1.437 1.437 0 01.055.4 1.779 1.779 0 01-.115.611 2.775 2.775 0 01-.261.52 5.071 5.071 0 01-.681.833.321.321 0 00-.094.229.332.332 0 00.555.229 4.83 4.83 0 001-1.382 2.516 2.516 0 00.243-1.045 2.027 2.027 0 00-.071-.532 3.455 3.455 0 00-.95-1.33l-.018-.015-.016-.016a.486.486 0 00-.084-.07l-.019-.012-.018-.014a5.692 5.692 0 00-1.231-.733 6.694 6.694 0 00-2.419-.509 5.709 5.709 0 00-2.032.342 4.31 4.31 0 00-1.547 1 4.259 4.259 0 00-.943 1.428 5.1 5.1 0 00-.334 1.923 3.862 3.862 0 00.432 1.855 11.764 11.764 0 001.239 1.835l.618.761-.841.5a6.877 6.877 0 00-1.949 1.819 5.566 5.566 0 00-1.086 3.311 5.434 5.434 0 00.368 2.031 4.835 4.835 0 001.092 1.641 5.553 5.553 0 002.143 1.311 9.231 9.231 0 003.024.454 8.368 8.368 0 003-.543 9.148 9.148 0 002.7-1.633l.584-.5 2.594 2.478a.483.483 0 00.162.1.661.661 0 00.234.037.476.476 0 00.18-.027.169.169 0 00.069-.051.492.492 0 00.09-.154.59.59 0 00.031-.2.219.219 0 00-.03-.11.742.742 0 00-.169-.2" transform="translate(-88.364 -3.006)" fill="#58595b"/><path id="path1807" d="M275.773 209.64l.011.01z" transform="translate(-98.915 -11.249)" fill="#fff"/></g></svg>