<svg width="400" height="400" xmlns="http://www.w3.org/2000/svg">
 <g>
  <g id="Layer-1" stroke="null">
   <path id="path1801" d="m228.68157,265.79856a87.01405,87.2364 0 0 1 -19.4283,11.48657a70.09818,70.2773 0 0 1 -27.74302,4.86128a44.74482,44.85916 0 0 1 -29.46161,-10.44868a36.11093,36.20321 0 0 1 -9.62003,-11.8968a33.37755,33.46284 0 0 1 -3.64178,-15.36329a45.26449,45.38016 0 0 1 2.09505,-14.32539a52.41303,52.54696 0 0 1 22.1535,-27.28471l1.55083,-0.98867l66.2518,62.2449l-2.15643,1.71478l-0.00001,0.00001zm48.28431,16.32734l-0.07775,-0.06564l-20.3858,-19.52307l1.19892,-1.67786c11.99333,-16.7827 14.50984,-24.81099 14.50984,-28.59336a7.48407,7.50319 0 0 0 -2.65564,-5.49714a8.54387,8.5657 0 0 0 -6.13784,-2.58858a10.6962,10.72353 0 0 0 -6.01917,1.58351a17.64423,17.68932 0 0 0 -5.08213,7.49088a108.94658,109.22498 0 0 1 -7.93008,14.1695l-1.54673,2.37526l-60.98144,-57.66668a149.56269,149.94487 0 0 1 -22.09621,-23.33415a38.05458,38.15182 0 0 1 -5.20488,-10.18202a46.50024,46.61907 0 0 1 -1.6654,-14.02182a24.14215,24.20384 0 0 1 8.33927,-17.54984a33.18523,33.27003 0 0 1 10.35248,-6.43248a45.69414,45.8109 0 0 1 16.67855,-2.43269a32.40777,32.49058 0 0 1 11.77646,1.99784c4.35377,1.27583 15.39778,8.23751 17.06728,14.04233c1.56719,5.45202 -3.42491,11.96654 -7.89326,16.47092a8.51113,8.53288 0 0 0 0.04092,12.04859a8.70754,8.72979 0 0 0 12.01788,-0.03692c13.84287,-13.94798 14.28888,-25.67659 12.20202,-33.08542a37.58401,37.68005 0 0 0 -10.39749,-14.69871a9.82054,9.84563 0 0 0 -1.63676,-1.37429a58.33399,58.48305 0 0 0 -12.53755,-7.49088a67.3607,67.53283 0 0 0 -24.55134,-5.18126a50.19113,50.31938 0 0 0 -36.97023,14.00951a45.06399,45.17914 0 0 0 -9.91874,15.05151a52.679,52.81361 0 0 0 -3.49038,19.89228a41.15214,41.2573 0 0 0 4.65248,19.80203a114.69569,114.98877 0 0 0 12.02197,17.86982l1.72269,2.12502l-2.34056,1.4071a69.04247,69.21889 0 0 0 -19.64107,18.32928a56.97548,57.12107 0 0 0 -11.09721,33.93461a51.50463,51.63624 0 0 0 15.10317,37.91389c11.89103,11.92142 29.2652,17.96828 51.63966,17.96828a84.61211,84.82832 0 0 0 56.28805,-21.48399l1.63676,-1.3989l20.45945,19.5846a10.40977,10.43637 0 0 0 7.39405,2.73627a7.96691,7.98727 0 0 0 6.5102,-2.69114a10.14789,10.17382 0 0 0 2.40603,-6.814a9.21494,9.23848 0 0 0 -3.70725,-6.97399" fill="#42bdd8" stroke="null"/>
  </g>
 </g>

</svg>