<?xml version="1.0" encoding="UTF-8" standalone="no"?>
<svg xmlns:serif="http://www.serif.com/" xmlns:dc="http://purl.org/dc/elements/1.1/" xmlns:cc="http://creativecommons.org/ns#" xmlns:rdf="http://www.w3.org/1999/02/22-rdf-syntax-ns#" xmlns:svg="http://www.w3.org/2000/svg" xmlns="http://www.w3.org/2000/svg" xmlns:sodipodi="http://sodipodi.sourceforge.net/DTD/sodipodi-0.dtd" xmlns:inkscape="http://www.inkscape.org/namespaces/inkscape" width="170" height="74.643959" viewBox="0 0 170 74.643959" version="1.1" xml:space="preserve" style="clip-rule:evenodd;fill-rule:evenodd;stroke-linejoin:round;stroke-miterlimit:1.41421" id="svg908" sodipodi:docname="fair_smart_logo_w.svg" inkscape:version="1.0.1 (3bc2e813f5, 2020-09-07)"><metadata id="metadata914"><rdf:RDF><cc:Work rdf:about=""><dc:format>image/svg+xml</dc:format><dc:type rdf:resource="http://purl.org/dc/dcmitype/StillImage"/><dc:title/></cc:Work></rdf:RDF></metadata><defs id="defs912"/><sodipodi:namedview pagecolor="#ffffff" bordercolor="#666666" borderopacity="1" objecttolerance="10" gridtolerance="10" guidetolerance="10" inkscape:pageopacity="0" inkscape:pageshadow="2" inkscape:window-width="1717" inkscape:window-height="731" id="namedview910" showgrid="false" inkscape:zoom="0.13550265" inkscape:cx="1698.803" inkscape:cy="903" inkscape:window-x="92" inkscape:window-y="58" inkscape:window-maximized="0" inkscape:current-layer="Calque-1" fit-margin-top="0" fit-margin-left="0" fit-margin-right="0" fit-margin-bottom="0"/><g id="Calque-1" serif:id="Calque 1" transform="translate(-333.197,-170)"><path d="m 351.10541,241.15623 h 1.13457 c 0.2729,0 0.51372,-0.0363 0.72262,-0.10857 0.2087,-0.0722 0.38383,-0.17328 0.52518,-0.30337 0.14135,-0.1297 0.24828,-0.28521 0.32063,-0.46594 0.0724,-0.18098 0.10863,-0.37988 0.10863,-0.59693 0,-0.45053 -0.13905,-0.80223 -0.41675,-1.05552 -0.27815,-0.25313 -0.698,-0.37987 -1.26031,-0.37987 h -1.13457 z m 0,0.75955 v 2.64397 h -0.95194 v -7.06842 h 2.08651 c 0.44722,0 0.83605,0.0519 1.16649,0.15551 0.33044,0.10363 0.60419,0.25079 0.8212,0.44137 0.21705,0.19074 0.37902,0.42091 0.486,0.6905 0.10673,0.26975 0.16011,0.57062 0.16011,0.90271 0,0.32878 -0.0575,0.62965 -0.17242,0.90275 -0.11528,0.2729 -0.28376,0.50787 -0.50577,0.70531 -0.22186,0.19724 -0.49746,0.3511 -0.82624,0.46118 -0.32879,0.11008 -0.70532,0.16512 -1.12937,0.16512 z" style="fill:#ffffff;fill-opacity:1;fill-rule:nonzero;stroke-width:0.0500362" id="path833"/><path d="m 360.43771,237.49158 v 0.77932 h -3.39351 v 2.34794 h 2.74739 v 0.7497 h -2.74739 v 2.41199 h 3.39351 v 0.77952 h -4.35545 v -7.06847 z" style="fill:#ffffff;fill-opacity:1;fill-rule:nonzero;stroke-width:0.0500362" id="path835"/><path d="m 362.86447,240.91506 h 1.00137 c 0.27935,0 0.52513,-0.0338 0.73738,-0.10112 0.21206,-0.0674 0.38969,-0.16282 0.53269,-0.28601 0.143,-0.12344 0.25078,-0.27065 0.32313,-0.44157 0.0721,-0.17097 0.10843,-0.36006 0.10843,-0.56731 0,-0.42091 -0.13885,-0.73803 -0.41675,-0.95194 -0.2779,-0.2137 -0.69135,-0.32043 -1.2405,-0.32043 h -1.04575 z m 0,0.6955 v 2.94964 h -0.95194 v -7.06847 h 1.99769 c 0.44723,0 0.8335,0.0455 1.15899,0.13575 0.32564,0.0905 0.59458,0.22121 0.80658,0.39213 0.21206,0.17118 0.36902,0.37738 0.47099,0.619 0.10193,0.24188 0.15302,0.51227 0.15302,0.81144 0,0.24998 -0.0394,0.48345 -0.11839,0.70051 -0.0791,0.217 -0.19329,0.41174 -0.34275,0.58437 -0.14971,0.17282 -0.33234,0.32003 -0.54769,0.44157 -0.21536,0.12174 -0.45954,0.2137 -0.73243,0.27625 0.11843,0.069 0.22371,0.16927 0.31567,0.30082 l 2.0619,2.80663 h -0.84852 c -0.17432,0 -0.30252,-0.0674 -0.38468,-0.20225 l -1.83487,-2.52538 c -0.0558,-0.079 -0.11674,-0.1357 -0.18264,-0.17032 -0.0656,-0.0346 -0.16447,-0.0517 -0.29581,-0.0517 z" style="fill:#ffffff;fill-opacity:1;fill-rule:nonzero;stroke-width:0.0500362" id="path837"/><path d="m 371.78707,238.59638 c -0.0296,0.0494 -0.0608,0.0863 -0.0938,0.11093 -0.0327,0.0248 -0.0754,0.0371 -0.12819,0.0371 -0.0559,0 -0.12074,-0.0279 -0.19474,-0.0838 -0.074,-0.0558 -0.16782,-0.11759 -0.28125,-0.18514 -0.11339,-0.0673 -0.24973,-0.12884 -0.40925,-0.18488 -0.15967,-0.0559 -0.35276,-0.0838 -0.57957,-0.0838 -0.2139,0 -0.40299,0.0288 -0.56731,0.0863 -0.16447,0.0575 -0.30167,0.1357 -0.41195,0.23432 -0.11008,0.0986 -0.19304,0.21451 -0.24893,0.34775 -0.0561,0.1332 -0.084,0.27705 -0.084,0.43157 0,0.19724 0.0486,0.36086 0.14551,0.49075 0.097,0.13009 0.22516,0.24082 0.38487,0.33294 0.15947,0.0922 0.34025,0.17203 0.5425,0.23937 0.20219,0.0673 0.40944,0.13715 0.62145,0.20951 0.21225,0.0724 0.4193,0.15386 0.6215,0.24412 0.20224,0.0905 0.38322,0.20475 0.54269,0.343 0.15951,0.138 0.28771,0.30747 0.38468,0.50787 0.0969,0.20054 0.1455,0.44717 0.1455,0.73988 0,0.30918 -0.0525,0.59939 -0.15781,0.87063 -0.10528,0.27125 -0.25894,0.50727 -0.46118,0.70782 -0.20225,0.20054 -0.45053,0.35861 -0.74489,0.47344 -0.29422,0.11508 -0.62881,0.17262 -1.00368,0.17262 -0.45718,0 -0.87393,-0.083 -1.25045,-0.24893 -0.37653,-0.16612 -0.69801,-0.39048 -0.96425,-0.67338 l 0.27625,-0.45368 c 0.0263,-0.0363 0.0583,-0.0667 0.0961,-0.0913 0.0378,-0.0246 0.0797,-0.0369 0.12574,-0.0369 0.0692,0 0.14801,0.0369 0.23682,0.11094 0.0888,0.074 0.19974,0.15531 0.33294,0.24412 0.13325,0.0888 0.29441,0.17012 0.4835,0.24413 0.18889,0.074 0.4199,0.11093 0.693,0.11093 0.22682,0 0.42906,-0.0311 0.60669,-0.0936 0.17763,-0.0623 0.32794,-0.15056 0.45138,-0.26394 0.12319,-0.11343 0.21765,-0.24893 0.2835,-0.40699 0.0657,-0.15782 0.0986,-0.33375 0.0986,-0.52789 0,-0.21345 -0.0486,-0.38858 -0.1455,-0.52513 -0.097,-0.13634 -0.22431,-0.25063 -0.38218,-0.34274 -0.15781,-0.0922 -0.33794,-0.17013 -0.54014,-0.23437 -0.20225,-0.064 -0.4095,-0.1299 -0.6215,-0.19745 -0.21205,-0.0673 -0.41925,-0.1453 -0.6215,-0.23412 -0.20224,-0.0888 -0.38238,-0.20389 -0.54019,-0.34525 -0.15781,-0.14155 -0.28521,-0.31813 -0.38213,-0.53038 -0.0972,-0.212 -0.14555,-0.47429 -0.14555,-0.78662 0,-0.24993 0.0484,-0.4916 0.14555,-0.72507 0.0969,-0.23352 0.23743,-0.44052 0.42176,-0.6215 0.18408,-0.18078 0.41175,-0.32564 0.68299,-0.43407 0.27145,-0.10863 0.58293,-0.16281 0.93483,-0.16281 0.39444,0 0.7547,0.0625 1.08018,0.18743 0.32564,0.12509 0.60999,0.30582 0.85332,0.54264 z" style="fill:#ffffff;fill-opacity:1;fill-rule:nonzero;stroke-width:0.0500362" id="path839"/><path d="m 378.97877,241.02814 c 0,-0.43406 -0.0592,-0.82375 -0.17762,-1.16899 -0.11844,-0.34545 -0.28606,-0.63712 -0.50307,-0.87564 -0.21706,-0.23827 -0.48015,-0.42175 -0.78932,-0.54995 -0.30897,-0.12824 -0.65422,-0.19224 -1.03575,-0.19224 -0.37817,0 -0.72177,0.064 -1.03094,0.19224 -0.30898,0.1282 -0.57292,0.31168 -0.79163,0.54995 -0.21871,0.23852 -0.38718,0.53019 -0.50556,0.87564 -0.11844,0.34524 -0.17763,0.73493 -0.17763,1.16899 0,0.43407 0.0592,0.8229 0.17763,1.16644 0.11838,0.3438 0.28685,0.63486 0.50556,0.87314 0.21871,0.23832 0.48265,0.42095 0.79163,0.54749 0.30917,0.12674 0.65277,0.18994 1.03094,0.18994 0.38153,0 0.72678,-0.0632 1.03575,-0.18994 0.30917,-0.12654 0.57226,-0.30917 0.78932,-0.54749 0.21701,-0.23828 0.38463,-0.52934 0.50307,-0.87314 0.11843,-0.34354 0.17762,-0.73237 0.17762,-1.16644 m 0.98156,0 c 0,0.52933 -0.0838,1.01534 -0.25143,1.45751 -0.16782,0.44222 -0.40449,0.82309 -0.71031,1.14187 -0.30587,0.31898 -0.67339,0.56646 -1.10245,0.74239 -0.42906,0.17598 -0.9036,0.26394 -1.42313,0.26394 -0.51952,0 -0.99302,-0.088 -1.42063,-0.26394 -0.42736,-0.17593 -0.79412,-0.42341 -1.09994,-0.74239 -0.30562,-0.31878 -0.54249,-0.69965 -0.71012,-1.14187 -0.16782,-0.44217 -0.25163,-0.92818 -0.25163,-1.45751 0,-0.52933 0.0838,-1.01533 0.25163,-1.4575 0.16763,-0.44222 0.4045,-0.82375 0.71012,-1.14438 0.30582,-0.32063 0.67258,-0.56981 1.09994,-0.74744 0.42761,-0.17738 0.90111,-0.26619 1.42063,-0.26619 0.51953,0 0.99407,0.0888 1.42313,0.26619 0.42906,0.17763 0.79658,0.42681 1.10245,0.74744 0.30582,0.32063 0.54249,0.70216 0.71031,1.14438 0.16762,0.44217 0.25143,0.92817 0.25143,1.4575" style="fill:#ffffff;fill-opacity:1;fill-rule:nonzero;stroke-width:0.0500362" id="path841"/><path d="m 381.95092,237.52361 c 0.0411,0.0215 0.088,0.065 0.14056,0.13069 l 4.09396,5.327 c -0.01,-0.0853 -0.0165,-0.16847 -0.0196,-0.24893 -0.003,-0.0805 -0.005,-0.15866 -0.005,-0.23437 v -5.00652 h 0.83851 v 7.06847 h -0.48345 c -0.0757,0 -0.13885,-0.0132 -0.18974,-0.0396 -0.0511,-0.0263 -0.10112,-0.0707 -0.15051,-0.1332 l -4.08901,-5.3222 c 0.006,0.0824 0.0115,0.16282 0.0148,0.24183 0.003,0.0788 0.005,0.15115 0.005,0.21705 v 5.03615 h -0.83851 v -7.06847 h 0.49326 c 0.0855,0 0.14886,0.0107 0.18993,0.0321" style="fill:#ffffff;fill-opacity:1;fill-rule:nonzero;stroke-width:0.0500362" id="path843"/><path d="m 389.90918,241.9358 h 2.63901 l -1.11,-2.87563 c -0.0724,-0.17763 -0.143,-0.39969 -0.212,-0.66593 -0.0363,0.13489 -0.0715,0.25893 -0.10613,0.37236 -0.0344,0.11364 -0.0682,0.21286 -0.10112,0.29857 z m 4.6317,2.62415 h -0.73993 c -0.0855,0 -0.15446,-0.0213 -0.20725,-0.0642 -0.0525,-0.0427 -0.0919,-0.0969 -0.11819,-0.16282 l -0.66113,-1.70643 h -3.17144 l -0.66108,1.70643 c -0.023,0.0592 -0.0625,0.11193 -0.11843,0.15802 -0.0559,0.0459 -0.12489,0.069 -0.20705,0.069 h -0.73989 l 2.8262,-7.06842 h 0.97175 z" style="fill:#ffffff;fill-opacity:1;fill-rule:nonzero;stroke-width:0.0500362" id="path845"/><path d="m 396.39087,243.75611 h 3.05827 V 244.56 h -4.01521 v -7.06822 h 0.95694 z" style="fill:#ffffff;fill-opacity:1;fill-rule:nonzero;stroke-width:0.0500362" id="path847"/><path d="m 409.45683,241.02814 c 0,-0.43406 -0.0593,-0.82204 -0.17763,-1.16419 -0.11844,-0.3419 -0.28606,-0.63126 -0.50307,-0.86813 -0.21705,-0.23662 -0.48014,-0.41735 -0.78912,-0.54244 -0.30917,-0.12489 -0.65297,-0.18744 -1.03094,-0.18744 H 405.274 v 5.5194 h 1.68207 c 0.37797,0 0.72177,-0.0623 1.03094,-0.18744 0.30898,-0.12489 0.57207,-0.30502 0.78912,-0.53994 0.21701,-0.23517 0.38463,-0.52373 0.50307,-0.86563 0.11838,-0.34214 0.17763,-0.73012 0.17763,-1.16419 m 0.98151,0 c 0,0.52933 -0.0838,1.01113 -0.25164,1.4452 -0.16762,0.43406 -0.40444,0.80558 -0.71031,1.11475 -0.30562,0.30923 -0.67234,0.54835 -1.09975,0.71762 -0.4276,0.16953 -0.90105,0.25414 -1.42057,0.25414 h -2.64382 v -7.06842 h 2.64382 c 0.51952,0 0.99297,0.0848 1.42057,0.25414 0.42741,0.16927 0.79413,0.40924 1.09975,0.72007 0.30587,0.31067 0.54269,0.68324 0.71031,1.11731 0.16783,0.43406 0.25164,0.91586 0.25164,1.44519" style="fill:#ffffff;fill-opacity:1;fill-rule:nonzero;stroke-width:0.0500362" id="path849"/><path d="m 412.71719,241.9358 h 2.639 l -1.11,-2.87563 c -0.0724,-0.17763 -0.143,-0.39969 -0.212,-0.66593 -0.0363,0.13489 -0.0715,0.25893 -0.10593,0.37236 -0.0346,0.11364 -0.0684,0.21286 -0.10132,0.29857 z m 4.6317,2.62415 h -0.73994 c -0.0855,0 -0.15446,-0.0213 -0.20725,-0.0642 -0.0525,-0.0427 -0.0919,-0.0969 -0.11818,-0.16282 l -0.66113,-1.70643 h -3.17145 l -0.66108,1.70643 c -0.023,0.0592 -0.0625,0.11193 -0.11843,0.15802 -0.0559,0.0459 -0.12489,0.069 -0.20705,0.069 h -0.73989 l 2.8262,-7.06842 h 0.97175 z" style="fill:#ffffff;fill-opacity:1;fill-rule:nonzero;stroke-width:0.0500362" id="path851"/><path d="m 422.40469,237.49158 v 0.80393 h -2.28375 v 6.26454 H 419.164 v -6.26454 h -2.29376 v -0.80393 z" style="fill:#ffffff;fill-opacity:1;fill-rule:nonzero;stroke-width:0.0500362" id="path853"/><path d="m 423.94331,241.9358 h 2.63901 l -1.10996,-2.87563 c -0.0723,-0.17763 -0.14305,-0.39969 -0.21205,-0.66593 -0.0363,0.13489 -0.0715,0.25893 -0.10613,0.37236 -0.0344,0.11364 -0.0682,0.21286 -0.10112,0.29857 z m 4.6317,2.62415 h -0.73994 c -0.0855,0 -0.15446,-0.0213 -0.2072,-0.0642 -0.0525,-0.0427 -0.0922,-0.0969 -0.11823,-0.16282 l -0.66108,-1.70643 h -3.1715 l -0.66107,1.70643 c -0.0229,0.0592 -0.0625,0.11193 -0.11844,0.15802 -0.0558,0.0459 -0.12489,0.069 -0.207,0.069 h -0.73993 l 2.82624,-7.06842 h 0.9717 z" style="fill:#ffffff;fill-opacity:1;fill-rule:nonzero;stroke-width:0.0500362" id="path855"/><path d="m 436.89618,238.59638 c -0.0296,0.0494 -0.0608,0.0863 -0.0938,0.11093 -0.0327,0.0248 -0.0756,0.0371 -0.12819,0.0371 -0.0559,0 -0.12094,-0.0279 -0.19474,-0.0838 -0.074,-0.0558 -0.16782,-0.11759 -0.28126,-0.18514 -0.11343,-0.0673 -0.24978,-0.12884 -0.40924,-0.18488 -0.15952,-0.0559 -0.35276,-0.0838 -0.57957,-0.0838 -0.21391,0 -0.40304,0.0288 -0.56731,0.0863 -0.16447,0.0575 -0.30167,0.1357 -0.41195,0.23432 -0.11008,0.0986 -0.19304,0.21451 -0.24893,0.34775 -0.0561,0.1332 -0.084,0.27705 -0.084,0.43157 0,0.19724 0.0486,0.36086 0.1455,0.49075 0.097,0.13009 0.22517,0.24082 0.38488,0.33294 0.15947,0.0922 0.34025,0.17203 0.54245,0.23937 0.20224,0.0673 0.40949,0.13715 0.6215,0.20951 0.21205,0.0724 0.41925,0.15386 0.6215,0.24412 0.20224,0.0905 0.38297,0.20475 0.54269,0.343 0.15926,0.138 0.28751,0.30747 0.38463,0.50787 0.097,0.20054 0.14555,0.44717 0.14555,0.73988 0,0.30918 -0.0527,0.59939 -0.15781,0.87063 -0.10533,0.27125 -0.25894,0.50727 -0.46119,0.70782 -0.20224,0.20054 -0.45052,0.35861 -0.74494,0.47344 -0.29436,0.11508 -0.62875,0.17262 -1.00362,0.17262 -0.45718,0 -0.87398,-0.083 -1.25051,-0.24893 -0.37652,-0.16612 -0.698,-0.39048 -0.96419,-0.67338 l 0.276,-0.45368 c 0.0265,-0.0363 0.0584,-0.0667 0.0963,-0.0913 0.0377,-0.0246 0.0797,-0.0369 0.12574,-0.0369 0.0692,0 0.148,0.0369 0.23682,0.11094 0.0888,0.074 0.19974,0.15531 0.33294,0.24412 0.13324,0.0888 0.29416,0.17012 0.4835,0.24413 0.18889,0.074 0.41985,0.11093 0.6928,0.11093 0.22701,0 0.42926,-0.0311 0.60689,-0.0936 0.17743,-0.0623 0.32794,-0.15056 0.45113,-0.26394 0.12343,-0.11343 0.2179,-0.24893 0.28375,-0.40699 0.0657,-0.15782 0.0986,-0.33375 0.0986,-0.52789 0,-0.21345 -0.0486,-0.38858 -0.1455,-0.52513 -0.097,-0.13634 -0.22437,-0.25063 -0.38238,-0.34274 -0.15761,-0.0922 -0.33774,-0.17013 -0.53999,-0.23437 -0.2022,-0.064 -0.40945,-0.1299 -0.62145,-0.19745 -0.21205,-0.0673 -0.4193,-0.1453 -0.6215,-0.23412 -0.20225,-0.0888 -0.38238,-0.20389 -0.54019,-0.34525 -0.15782,-0.14155 -0.28521,-0.31813 -0.38238,-0.53038 -0.0969,-0.212 -0.1453,-0.47429 -0.1453,-0.78662 0,-0.24993 0.0484,-0.4916 0.1453,-0.72507 0.0972,-0.23352 0.23767,-0.44052 0.42176,-0.6215 0.18433,-0.18078 0.412,-0.32564 0.68324,-0.43407 0.2714,-0.10863 0.58287,-0.16281 0.93463,-0.16281 0.39463,0 0.75489,0.0625 1.08033,0.18743 0.32549,0.12509 0.61004,0.30582 0.85332,0.54264 z" style="fill:#ffffff;fill-opacity:1;fill-rule:nonzero;stroke-width:0.0500362" id="path857"/><path d="m 444.08788,241.02814 c 0,-0.43406 -0.0592,-0.82375 -0.17763,-1.16899 -0.11843,-0.34545 -0.28605,-0.63712 -0.50306,-0.87564 -0.21706,-0.23827 -0.48015,-0.42175 -0.78912,-0.54995 -0.30917,-0.12824 -0.65467,-0.19224 -1.03595,-0.19224 -0.37822,0 -0.72177,0.064 -1.031,0.19224 -0.30917,0.1282 -0.57291,0.31168 -0.79157,0.54995 -0.21871,0.23852 -0.38718,0.53019 -0.50561,0.87564 -0.11839,0.34524 -0.17763,0.73493 -0.17763,1.16899 0,0.43407 0.0592,0.8229 0.17763,1.16644 0.11843,0.3438 0.2869,0.63486 0.50561,0.87314 0.21866,0.23832 0.4824,0.42095 0.79157,0.54749 0.30923,0.12674 0.65278,0.18994 1.031,0.18994 0.38128,0 0.72678,-0.0632 1.03595,-0.18994 0.30897,-0.12654 0.57206,-0.30917 0.78912,-0.54749 0.21701,-0.23828 0.38463,-0.52934 0.50306,-0.87314 0.11839,-0.34354 0.17763,-0.73237 0.17763,-1.16644 m 0.98151,0 c 0,0.52933 -0.0838,1.01534 -0.25143,1.45751 -0.16782,0.44222 -0.40464,0.82309 -0.71051,1.14187 -0.30562,0.31898 -0.67319,0.56646 -1.10225,0.74239 -0.42926,0.17598 -0.90355,0.26394 -1.42308,0.26394 -0.51958,0 -0.99322,-0.088 -1.42063,-0.26394 -0.42741,-0.17593 -0.79412,-0.42341 -1.09994,-0.74239 -0.30588,-0.31878 -0.5425,-0.69965 -0.71032,-1.14187 -0.16762,-0.44217 -0.25143,-0.92818 -0.25143,-1.45751 0,-0.52933 0.0838,-1.01533 0.25143,-1.4575 0.16782,-0.44222 0.40444,-0.82375 0.71032,-1.14438 0.30582,-0.32063 0.67253,-0.56981 1.09994,-0.74744 0.42741,-0.17738 0.90105,-0.26619 1.42063,-0.26619 0.51953,0 0.99382,0.0888 1.42308,0.26619 0.42906,0.17763 0.79663,0.42681 1.10225,0.74744 0.30587,0.32063 0.54269,0.70216 0.71051,1.14438 0.16762,0.44217 0.25143,0.92817 0.25143,1.4575" style="fill:#ffffff;fill-opacity:1;fill-rule:nonzero;stroke-width:0.0500362" id="path859"/><path d="m 447.33323,243.75611 h 3.05826 V 244.56 h -4.0152 v -7.06822 h 0.95694 z" style="fill:#ffffff;fill-opacity:1;fill-rule:nonzero;stroke-width:0.0500362" id="path861"/><path d="m 454.1942,243.80065 c 0.29271,0 0.55415,-0.0494 0.78411,-0.14806 0.23017,-0.0986 0.42506,-0.23682 0.58458,-0.41425 0.15946,-0.17763 0.28125,-0.38963 0.36506,-0.63631 0.0838,-0.24663 0.12569,-0.51787 0.12569,-0.81389 v -4.29626 h 0.95194 v 4.29626 c 0,0.4078 -0.0649,0.78597 -0.19469,1.13437 -0.1299,0.34875 -0.31568,0.65047 -0.55751,0.90521 -0.24162,0.25478 -0.53663,0.45453 -0.88524,0.59938 -0.34855,0.1445 -0.73988,0.21686 -1.17394,0.21686 -0.43407,0 -0.8254,-0.0724 -1.174,-0.21686 -0.34856,-0.14485 -0.64462,-0.3446 -0.88795,-0.59938 -0.24327,-0.25474 -0.42986,-0.55646 -0.55975,-0.90521 -0.1299,-0.3484 -0.19474,-0.72657 -0.19474,-1.13437 v -4.29626 h 0.95174 v 4.29126 c 0,0.29601 0.0421,0.56726 0.12594,0.81389 0.0838,0.24667 0.20555,0.45888 0.36506,0.63631 0.15947,0.17762 0.35501,0.31668 0.58688,0.41675 0.23181,0.10052 0.4941,0.15056 0.78682,0.15056" style="fill:#ffffff;fill-opacity:1;fill-rule:nonzero;stroke-width:0.0500362" id="path863"/><path d="m 463.4624,237.49158 v 0.80393 h -2.28375 v 6.26454 h -0.95694 v -6.26454 h -2.29376 v -0.80393 z" style="fill:#ffffff;fill-opacity:1;fill-rule:nonzero;stroke-width:0.0500362" id="path865"/><rect x="464.64627" y="237.49158" width="0.95694238" height="7.0684643" style="fill:#ffffff;fill-opacity:1;stroke-width:0.0500362" id="rect867"/><path d="m 473.08086,241.02814 c 0,-0.43406 -0.0592,-0.82375 -0.17763,-1.16899 -0.11838,-0.34545 -0.28601,-0.63712 -0.50306,-0.87564 -0.21701,-0.23827 -0.48015,-0.42175 -0.78912,-0.54995 -0.30918,-0.12824 -0.65463,-0.19224 -1.03595,-0.19224 -0.37818,0 -0.72178,0.064 -1.03095,0.19224 -0.30917,0.1282 -0.57291,0.31168 -0.79162,0.54995 -0.21871,0.23852 -0.38713,0.53019 -0.50557,0.87564 -0.11843,0.34524 -0.17763,0.73493 -0.17763,1.16899 0,0.43407 0.0592,0.8229 0.17763,1.16644 0.11844,0.3438 0.28686,0.63486 0.50557,0.87314 0.21871,0.23832 0.48245,0.42095 0.79162,0.54749 0.30917,0.12674 0.65277,0.18994 1.03095,0.18994 0.38132,0 0.72677,-0.0632 1.03595,-0.18994 0.30897,-0.12654 0.57211,-0.30917 0.78912,-0.54749 0.21705,-0.23828 0.38468,-0.52934 0.50306,-0.87314 0.11844,-0.34354 0.17763,-0.73237 0.17763,-1.16644 m 0.98156,0 c 0,0.52933 -0.0838,1.01534 -0.25143,1.45751 -0.16782,0.44222 -0.40469,0.82309 -0.71052,1.14187 -0.30562,0.31898 -0.67318,0.56646 -1.10224,0.74239 -0.42926,0.17598 -0.90361,0.26394 -1.42313,0.26394 -0.51953,0 -0.99322,-0.088 -1.42063,-0.26394 -0.42736,-0.17593 -0.79408,-0.42341 -1.09995,-0.74239 -0.30582,-0.31878 -0.54249,-0.69965 -0.71011,-1.14187 -0.16782,-0.44217 -0.25163,-0.92818 -0.25163,-1.45751 0,-0.52933 0.0838,-1.01533 0.25163,-1.4575 0.16762,-0.44222 0.40429,-0.82375 0.71011,-1.14438 0.30587,-0.32063 0.67259,-0.56981 1.09995,-0.74744 0.42741,-0.17738 0.9011,-0.26619 1.42063,-0.26619 0.51952,0 0.99387,0.0888 1.42313,0.26619 0.42906,0.17763 0.79662,0.42681 1.10224,0.74744 0.30583,0.32063 0.5427,0.70216 0.71052,1.14438 0.16762,0.44217 0.25143,0.92817 0.25143,1.4575" style="fill:#ffffff;fill-opacity:1;fill-rule:nonzero;stroke-width:0.0500362" id="path869"/><path d="m 476.05251,237.52361 c 0.041,0.0215 0.088,0.065 0.1405,0.13069 l 4.09401,5.327 c -0.01,-0.0853 -0.0165,-0.16847 -0.0198,-0.24893 -0.003,-0.0805 -0.005,-0.15866 -0.005,-0.23437 v -5.00652 h 0.8385 v 7.06847 h -0.48345 c -0.0757,0 -0.13885,-0.0132 -0.18973,-0.0396 -0.0511,-0.0263 -0.10133,-0.0707 -0.15051,-0.1332 l -4.08901,-5.3222 c 0.006,0.0824 0.0113,0.16282 0.0146,0.24183 0.003,0.0788 0.005,0.15115 0.005,0.21705 v 5.03615 h -0.83855 v -7.06847 h 0.4933 c 0.0855,0 0.14866,0.0107 0.18994,0.0321" style="fill:#ffffff;fill-opacity:1;fill-rule:nonzero;stroke-width:0.0500362" id="path871"/><path d="m 486.44803,238.59638 c -0.0296,0.0494 -0.0609,0.0863 -0.0938,0.11093 -0.0328,0.0248 -0.0757,0.0371 -0.12824,0.0371 -0.0559,0 -0.12094,-0.0279 -0.19474,-0.0838 -0.074,-0.0558 -0.16782,-0.11759 -0.2812,-0.18514 -0.11344,-0.0673 -0.24978,-0.12884 -0.4093,-0.18488 -0.15946,-0.0559 -0.35275,-0.0838 -0.57957,-0.0838 -0.2139,0 -0.40299,0.0288 -0.56731,0.0863 -0.16447,0.0575 -0.30167,0.1357 -0.41195,0.23432 -0.11008,0.0986 -0.19304,0.21451 -0.24893,0.34775 -0.0561,0.1332 -0.084,0.27705 -0.084,0.43157 0,0.19724 0.0486,0.36086 0.14551,0.49075 0.097,0.13009 0.22516,0.24082 0.38488,0.33294 0.15951,0.0922 0.34024,0.17203 0.54249,0.23937 0.20219,0.0673 0.40944,0.13715 0.6215,0.20951 0.212,0.0724 0.41925,0.15386 0.62145,0.24412 0.20224,0.0905 0.38302,0.20475 0.54269,0.343 0.15932,0.138 0.28751,0.30747 0.38468,0.50787 0.0969,0.20054 0.1455,0.44717 0.1455,0.73988 0,0.30918 -0.0527,0.59939 -0.15781,0.87063 -0.10528,0.27125 -0.25894,0.50727 -0.46118,0.70782 -0.2022,0.20054 -0.45053,0.35861 -0.74489,0.47344 -0.29442,0.11508 -0.62881,0.17262 -1.00368,0.17262 -0.45718,0 -0.87393,-0.083 -1.25045,-0.24893 -0.37653,-0.16612 -0.69801,-0.39048 -0.96425,-0.67338 l 0.27605,-0.45368 c 0.0265,-0.0363 0.0583,-0.0667 0.0963,-0.0913 0.0377,-0.0246 0.0796,-0.0369 0.12569,-0.0369 0.069,0 0.14801,0.0369 0.23682,0.11094 0.0888,0.074 0.19974,0.15531 0.33299,0.24412 0.1332,0.0888 0.29416,0.17012 0.48345,0.24413 0.18889,0.074 0.4199,0.11093 0.6928,0.11093 0.22702,0 0.42926,-0.0311 0.60689,-0.0936 0.17743,-0.0623 0.32794,-0.15056 0.45118,-0.26394 0.12339,-0.11343 0.21785,-0.24893 0.28375,-0.40699 0.0657,-0.15782 0.0986,-0.33375 0.0986,-0.52789 0,-0.21345 -0.0485,-0.38858 -0.1455,-0.52513 -0.0969,-0.13634 -0.22431,-0.25063 -0.38238,-0.34274 -0.15761,-0.0922 -0.33774,-0.17013 -0.53994,-0.23437 -0.20224,-0.064 -0.40949,-0.1299 -0.6215,-0.19745 -0.21205,-0.0673 -0.41925,-0.1453 -0.6215,-0.23412 -0.20224,-0.0888 -0.38237,-0.20389 -0.54019,-0.34525 -0.15781,-0.14155 -0.28521,-0.31813 -0.38233,-0.53038 -0.097,-0.212 -0.14535,-0.47429 -0.14535,-0.78662 0,-0.24993 0.0484,-0.4916 0.14535,-0.72507 0.0971,-0.23352 0.23768,-0.44052 0.42176,-0.6215 0.18428,-0.18078 0.41195,-0.32564 0.68319,-0.43407 0.27145,-0.10863 0.58293,-0.16281 0.93463,-0.16281 0.39469,0 0.75495,0.0625 1.08038,0.18743 0.32544,0.12509 0.60999,0.30582 0.85332,0.54264 z" style="fill:#ffffff;fill-opacity:1;fill-rule:nonzero;stroke-width:0.0500362" id="path873"/><path d="m 430.31342,174.05383 h 1.39811 c 0.77346,0 1.23939,0.53539 1.39826,1.60637 0,0.7637 -0.51077,1.25946 -1.53211,1.48752 h -0.89234 c -1.14063,0 -1.89427,0.62986 -2.26099,1.88887 l -0.0446,1.11561 v 0.32733 h 1.96352 l 0.89229,-0.0446 c 0.72388,0 1.19982,0.49076 1.42794,1.47252 v 0.2083 c 0,0.71381 -0.47099,1.185 -1.41293,1.41287 h -2.87082 v 10.69464 l 0.0446,0.6248 c 0,0.75369 -0.50582,1.24425 -1.51715,1.47251 -0.75369,0 -1.29408,-0.44632 -1.62137,-1.33866 l 0.0596,-0.75865 v -10.69464 h -2.49886 c -0.77351,0 -1.23964,-0.53539 -1.39811,-1.60636 0,-0.58503 0.42136,-1.08059 1.26427,-1.48733 l 1.21963,0.0446 h 1.35348 v -0.56521 c 0,-2.71696 1.20982,-4.58621 3.62948,-5.6076 z" style="fill:#ffffff;fill-opacity:1;fill-rule:nonzero;stroke-width:0.0500362" id="path875"/><path d="m 436.96223,188.15459 v 0.16366 c 0,2.03272 1.02114,3.56008 3.06406,4.58122 0.63446,0.23792 1.20488,0.35696 1.71044,0.35696 h 0.43136 c 1.68577,0 3.07908,-0.84792 4.17968,-2.54354 0.39653,-0.79328 0.59503,-1.55173 0.59503,-2.2758 v -0.22306 c 0,-1.95331 -0.96695,-3.45085 -2.90045,-4.492 -0.66463,-0.29752 -1.35868,-0.44617 -2.08236,-0.44617 h -0.0596 c -2.05253,0 -3.5995,1.07097 -4.64066,3.21272 -0.19849,0.65447 -0.29751,1.21008 -0.29751,1.66601 m 9.99558,6.47033 c -1.21008,1.13036 -2.80663,1.69557 -4.78972,1.69557 h -0.43136 c -2.73678,0 -5.01758,-1.36849 -6.84205,-4.10527 -0.66443,-1.32866 -0.99657,-2.66252 -0.99657,-4.00119 0,-2.99447 1.46756,-5.36954 4.40279,-7.12476 1.24945,-0.58502 2.46908,-0.87748 3.65909,-0.87748 3.04411,0 5.45355,1.48732 7.22878,4.46218 0.5452,1.21963 0.8181,2.47429 0.8181,3.76312 v 6.44071 c 0,0.79327 -0.48596,1.27402 -1.45771,1.44269 h -0.10402 c -0.67449,0 -1.17525,-0.39673 -1.50234,-1.18981 v -0.16367 z" style="fill:#ffffff;fill-opacity:1;fill-rule:nonzero;stroke-width:0.0500362" id="path877"/><path d="m 454.91522,180.10766 c 0.98176,0.24788 1.47251,0.71382 1.47251,1.39806 v 13.35717 c 0,0.80308 -0.49601,1.28888 -1.48732,1.45775 h -0.0892 c -0.81334,0 -1.3141,-0.50581 -1.50234,-1.51734 v -13.00006 c 0.11904,-1.13037 0.65443,-1.69558 1.60637,-1.69558 m 0,-3.80775 c 0.98176,0.24788 1.47251,0.71381 1.47251,1.39806 v 0.32734 c 0,0.78346 -0.53058,1.24945 -1.59155,1.39811 -0.7637,0 -1.26426,-0.52058 -1.50214,-1.56178 0.20825,-1.04116 0.74845,-1.56173 1.62118,-1.56173" style="fill:#ffffff;fill-opacity:1;fill-rule:nonzero;stroke-width:0.0500362" id="path879"/><path d="m 461.28182,180.09275 c 0.97176,0.24788 1.45776,0.71407 1.45776,1.39811 v 0.23808 c 1.22939,-1.09079 2.831,-1.63619 4.80427,-1.63619 1.06097,0 2.2112,0.2677 3.45105,0.80308 0.42596,0.43657 0.63941,0.85792 0.63941,1.26447 v 0.10402 c -0.16867,0.97196 -0.66923,1.45776 -1.50233,1.45776 h -0.13385 c -1.02134,-0.32734 -1.76523,-0.49081 -2.23116,-0.49081 h -0.32714 c -2.0031,0 -3.47086,1.04121 -4.40279,3.12351 -0.19844,0.5454 -0.29746,1.18026 -0.29746,1.90388 v 6.60418 c 0,0.80328 -0.49601,1.28903 -1.48733,1.4577 h -0.0895 c -0.81309,0 -1.31405,-0.50576 -1.50214,-1.51714 v -13.00001 c 0.11884,-1.14022 0.65923,-1.71064 1.62117,-1.71064" style="fill:#ffffff;fill-opacity:1;fill-rule:nonzero;stroke-width:0.0500362" id="path881"/><path d="m 431.92008,215.38008 c -0.01,-0.19824 -0.21346,-0.31708 -0.60979,-0.3569 -5.01778,-1.12042 -7.69517,-1.83448 -8.03206,-2.14195 -1.02159,-0.77351 -1.53216,-1.73026 -1.53216,-2.87063 0,-1.54697 1.08078,-3.01448 3.24254,-4.40279 1.19006,-0.6248 2.36507,-0.93712 3.52525,-0.93712 2.71697,0 4.86397,1.25445 6.44051,3.76312 l 0.0597,0.5504 v 0.0893 c 0,0.84286 -0.50582,1.33867 -1.51735,1.48733 -0.67444,0 -1.29909,-0.4758 -1.87406,-1.42794 -0.90235,-0.88228 -1.9387,-1.32365 -3.10875,-1.32365 -1.5271,0 -2.72196,0.71386 -3.58464,2.14175 l -0.0298,0.14885 c 0,0.1985 0.42636,0.33234 1.27927,0.40154 4.26369,1.0314 6.61894,1.63118 7.06532,1.79986 1.21963,0.80308 1.82942,1.81966 1.82942,3.04905 v 0.0446 c 0,1.69583 -1.20002,3.22774 -3.59945,4.59623 -1.04141,0.46599 -2.1372,0.69906 -3.28738,0.69906 -2.37987,0 -4.38778,-1.11036 -6.02396,-3.33176 -0.20825,-0.29752 -0.31233,-0.58503 -0.31233,-0.86273 v -0.32734 c 0,-0.80308 0.5452,-1.26421 1.63619,-1.38325 0.52538,0 1.14523,0.51097 1.85929,1.53211 0.87228,0.81309 1.89387,1.21963 3.06387,1.21963 1.3883,0 2.53849,-0.64942 3.45105,-1.94846 z" style="fill:#ffffff;fill-opacity:1;fill-rule:nonzero;stroke-width:0.0500362" id="path883"/><path d="m 438.39026,204.83445 c 0.74364,0 1.21963,0.32734 1.42788,0.98176 0.80328,-0.65442 1.96833,-0.98176 3.49543,-0.98176 2.02297,0 3.6539,0.7537 4.89354,2.26084 0.42636,-0.79307 1.62143,-1.48733 3.5847,-2.08236 l 1.30909,-0.17848 c 2.46904,0 4.41255,1.17025 5.83067,3.51049 0.47595,0.98151 0.71382,1.9237 0.71382,2.826 v 8.1511 c 0,0.72387 -0.48095,1.1798 -1.44269,1.36829 h -0.13385 c -0.96195,-0.16868 -1.4429,-0.66423 -1.4429,-1.48733 v -7.91303 c 0,-1.58654 -0.8329,-2.68234 -2.4989,-3.28737 l -0.68405,-0.0892 h -0.52058 c -1.3191,0 -2.33043,0.77346 -3.03449,2.32043 -0.0892,0.32729 -0.13385,0.60499 -0.13385,0.8329 v 8.13629 c -0.17848,0.99177 -0.66923,1.48733 -1.47251,1.48733 h -0.10403 c -0.96214,-0.16868 -1.44294,-0.64442 -1.44294,-1.42794 v -6.72296 c 0,-1.73521 -0.21326,-2.80143 -0.63961,-3.19817 -0.71387,-0.95193 -1.62638,-1.42788 -2.73679,-1.42788 h -0.16366 c -1.52716,0 -2.60294,0.8233 -3.22754,2.46909 -0.0992,0.39673 -0.14886,0.93713 -0.14886,1.62137 v 7.25855 c 0,0.78352 -0.48094,1.25926 -1.44269,1.42794 h -0.0893 c -0.80329,0 -1.29924,-0.49556 -1.48753,-1.48733 v -12.68773 c 0.10903,-1.12041 0.63966,-1.68082 1.5916,-1.68082" style="fill:#ffffff;fill-opacity:1;fill-rule:nonzero;stroke-width:0.0500362" id="path885"/><path d="m 464.5687,212.52452 v 0.16367 c 0,2.03272 1.02114,3.56007 3.06407,4.58121 0.63441,0.23792 1.20482,0.35696 1.71064,0.35696 h 0.43131 c 1.68562,0 3.07893,-0.84791 4.17972,-2.54354 0.39654,-0.79328 0.59503,-1.55172 0.59503,-2.2758 v -0.22306 c 0,-1.95331 -0.96695,-3.45085 -2.90065,-4.492 -0.66443,-0.29751 -1.35848,-0.44617 -2.08235,-0.44617 h -0.0596 c -2.05248,0 -3.59945,1.07097 -4.6406,3.21272 -0.1985,0.65448 -0.29752,1.21008 -0.29752,1.66601 m 9.99533,6.47033 c -1.20982,1.13037 -2.80618,1.69558 -4.78931,1.69558 h -0.43131 c -2.73698,0 -5.01783,-1.36849 -6.84225,-4.10527 -0.66444,-1.32867 -0.99658,-2.66253 -0.99658,-4.0012 0,-2.99447 1.46732,-5.36953 4.40279,-7.12475 1.24945,-0.58503 2.46909,-0.87749 3.6591,-0.87749 3.0441,0 5.45374,1.48733 7.22878,4.46218 0.54519,1.21963 0.81809,2.47429 0.81809,3.76312 v 6.44071 c 0,0.79348 -0.48575,1.27402 -1.45751,1.4427 h -0.10427 c -0.67444,0 -1.175,-0.39674 -1.50214,-1.18981 v -0.16367 z" style="fill:#ffffff;fill-opacity:1;fill-rule:nonzero;stroke-width:0.0500362" id="path887"/><path d="m 482.47766,204.46268 c 0.9715,0.24813 1.4577,0.71407 1.4577,1.39812 v 0.23807 c 1.22944,-1.09079 2.8308,-1.63619 4.80433,-1.63619 1.06097,0 2.2112,0.2677 3.45085,0.80329 0.4261,0.43636 0.63961,0.85772 0.63961,1.26426 v 0.10403 c -0.16887,0.97195 -0.66944,1.45775 -1.50234,1.45775 h -0.13384 c -1.02139,-0.32734 -1.76523,-0.4908 -2.23122,-0.4908 h -0.32709 c -2.00314,0 -3.47086,1.0412 -4.40278,3.12351 -0.19849,0.54539 -0.29752,1.18025 -0.29752,1.90387 v 6.60418 c 0,0.80328 -0.49596,1.28903 -1.48752,1.45771 h -0.0892 c -0.81309,0 -1.3141,-0.50577 -1.50213,-1.51715 v -13.00001 c 0.11883,-1.14022 0.65922,-1.71064 1.62117,-1.71064" style="fill:#ffffff;fill-opacity:1;fill-rule:nonzero;stroke-width:0.0500362" id="path889"/><path d="m 497.41096,199.12282 h 0.25269 c 0.92231,0.19849 1.3833,0.63961 1.3833,1.32386 v 4.46223 h 1.77023 l 0.49075,-0.0594 c 0.76346,0 1.26427,0.49576 1.50234,1.48733 0,0.74369 -0.43657,1.27427 -1.30905,1.59155 l -0.89234,-0.0594 h -1.56193 v 7.57088 c 0,1.18981 0.33709,1.89887 1.01153,2.12699 l 1.17505,0.10422 h 0.59498 c 0.72387,0 1.18005,0.48095 1.36849,1.4427 v 0.13384 c -0.16867,0.96195 -0.66443,1.44295 -1.48733,1.44295 h -1.14537 c -1.9239,0 -3.35183,-1.04141 -4.28375,-3.12371 -0.16888,-0.52538 -0.25289,-1.12542 -0.25289,-1.79986 v -7.89801 h -0.62485 l -0.95194,0.0594 c -0.87268,-0.30727 -1.30885,-0.8331 -1.30885,-1.57674 0.16848,-0.96154 0.49576,-1.44269 0.98177,-1.44269 v -0.10428 l 1.02614,0.10428 h 0.87773 v -4.16492 c 0.11884,-1.08058 0.58002,-1.62117 1.3833,-1.62117" style="fill:#ffffff;fill-opacity:1;fill-rule:nonzero;stroke-width:0.0500362" id="path891"/><path d="m 333.197,224.74436 h 15.12364 v -5.50358 h -9.62011 v -43.73685 h 9.62011 v -5.50358 H 333.197 v 54.74411 z" style="fill:#ffffff;fill-opacity:1;fill-rule:nonzero;stroke-width:0.0500362" id="path893"/><path d="m 395.91453,170.0001 v 5.50358 h 9.62011 v 43.73685 h -9.62011 v 5.50358 h 15.12364 V 170 h -15.12364 z" style="fill:#ffffff;fill-opacity:1;fill-rule:nonzero;stroke-width:0.0500362" id="path895"/><path d="m 379.49965,213.47771 c -1.43604,1.13937 -3.1179,2.13114 -4.99842,2.94818 v 0 c -1.90763,0.8281 -4.30916,1.248 -7.13766,1.248 -2.89249,0 -5.44084,-0.90235 -7.57508,-2.68174 -1.01989,-0.81414 -1.85614,-1.84553 -2.47509,-3.05741 -0.6217,-1.21758 -0.93738,-2.54394 -0.93738,-3.94245 0,-1.36789 0.18158,-2.60479 0.53934,-3.67681 1.01178,-2.88459 2.92652,-5.23609 5.69392,-6.99756 l 0.39904,-0.25394 17.04483,15.97446 z m 12.42774,4.19033 -0.0194,-0.0175 -5.2446,-5.01053 0.30813,-0.43051 c 3.08493,-4.30687 3.7327,-6.36776 3.7327,-7.33781 0,-0.50807 -0.22351,-0.96925 -0.68365,-1.41062 -0.46738,-0.44737 -0.98256,-0.66483 -1.57404,-0.66483 -0.62295,0 -1.14417,0.13655 -1.54882,0.40589 -0.28185,0.18764 -0.73783,0.67424 -1.30719,1.92244 -0.51663,1.13252 -1.20317,2.35586 -2.04043,3.63678 l -0.39824,0.60985 -15.6986,-14.79716 c -2.96215,-2.71446 -4.82224,-4.67548 -5.67996,-5.98848 -0.60209,-0.85147 -1.05702,-1.73731 -1.33992,-2.61339 -0.28836,-0.8894 -0.42846,-2.0667 -0.42846,-3.59821 0,-1.61597 0.72197,-3.13121 2.14615,-4.50366 0.73863,-0.68489 1.63178,-1.23759 2.66378,-1.65059 1.05101,-0.4205 2.45407,-0.6246 4.2906,-0.6246 1.13732,0 2.15636,0.17262 3.03014,0.51307 1.12036,0.32754 3.96182,2.11383 4.39088,3.60366 0.40319,1.39931 -0.88149,3.07117 -2.03062,4.22681 -0.84936,0.85456 -0.84481,2.24162 0.01,3.09158 0.8281,0.8231 2.26914,0.81829 3.09163,-0.01 3.56093,-3.58234 3.67702,-6.58951 3.13938,-8.49029 -0.60484,-1.49963 -1.48007,-2.73363 -2.67469,-3.77188 -0.14485,-0.147 -0.27475,-0.25333 -0.42531,-0.35295 -1.02174,-0.79228 -2.06479,-1.41227 -3.22648,-1.92204 -2.09337,-0.91877 -4.68299,-1.32992 -6.32062,-1.32992 -3.92574,0 -7.12576,1.20963 -9.51169,3.59531 -1.09909,1.09894 -1.95741,2.39818 -2.55159,3.86239 -0.59648,1.46811 -0.899,3.18561 -0.899,5.10494 0,1.89823 0.40279,3.60801 1.19731,5.08158 0.8233,1.53051 1.86365,3.07327 3.09309,4.58582 l 0.44342,0.54559 -0.60248,0.36152 c -1.8568,1.11375 -3.55593,2.69635 -5.05036,4.7034 -1.89217,2.63025 -2.85456,5.56277 -2.85456,8.7082 0,3.87886 1.30699,7.15222 3.88531,9.72974 3.05971,3.05971 7.52985,4.61123 13.28586,4.61123 5.33951,0 10.21179,-1.85529 14.48133,-5.51418 l 0.41905,-0.35881 5.26111,5.02573 c 0.50892,0.47014 1.13332,0.70196 1.90157,0.70196 0.73614,0 1.28403,-0.22576 1.67477,-0.69005 0.4161,-0.49581 0.61874,-1.06807 0.61874,-1.74856 0,-0.64277 -0.31207,-1.22884 -0.95399,-1.7913" style="fill:#ffffff;fill-opacity:1;fill-rule:nonzero;stroke-width:0.0500362" id="path897"/><path d="m 487.07749,193.42065 v 0 c -0.58312,0.46283 -1.24926,0.86582 -1.97603,1.21192 v 0.0138 l -0.37632,0.16342 c -0.95044,0.41135 -2.09527,0.60339 -3.40892,0.60399 -0.70506,2e-4 -1.38035,-0.11048 -2.01146,-0.33399 -0.6269,-0.22161 -1.20837,-0.55521 -1.73185,-0.99007 l -5e-4,4e-4 c -10e-4,-0.001 -0.003,-0.003 -0.004,-0.004 -0.002,-0.002 -0.004,-0.003 -0.006,-0.005 l 5e-4,-4e-4 c -0.51812,-0.41575 -0.94238,-0.94133 -1.2526,-1.54907 -0.32044,-0.62645 -0.4839,-1.31675 -0.48325,-2.02977 0,-0.66067 0.0869,-1.27407 0.27079,-1.82572 l 0.002,-0.005 10e-4,-0.004 c 0.24702,-0.70486 0.60748,-1.35033 1.07387,-1.92324 0.46639,-0.57317 1.03745,-1.07308 1.70123,-1.49549 l 0.58608,-0.37277 8.429,7.89967 z m 4.7009,1.83547 -0.004,-0.003 -0.004,-0.004 -0.0144,-0.0131 -2.71987,-2.59858 0.45238,-0.63211 c 0.66738,-0.93152 1.06122,-1.60826 1.27988,-2.07815 0.22061,-0.46954 0.25793,-0.73118 0.25563,-0.80624 -8.5e-4,-0.0204 -0.002,-0.0265 -0.0125,-0.0504 -0.0111,-0.0232 -0.0375,-0.0647 -0.0974,-0.12219 -0.0575,-0.0548 -0.10152,-0.0813 -0.13845,-0.0971 -0.0377,-0.0153 -0.0713,-0.0232 -0.12569,-0.0236 -0.18493,4e-4 -0.2852,0.0394 -0.33714,0.0738 l -0.0133,0.0125 c -0.0148,0.0148 -0.0396,0.0423 -0.0721,0.0869 -0.0653,0.0886 -0.16032,0.24477 -0.2727,0.4918 -0.24518,0.53664 -0.56416,1.10375 -0.94884,1.69228 l -0.58497,0.89585 -7.49252,-7.06216 c -0.66048,-0.60564 -1.20212,-1.13022 -1.63283,-1.5843 -0.42451,-0.44822 -0.74014,-0.8239 -0.96445,-1.16249 v 2e-4 c -0.002,-0.003 -0.004,-0.007 -0.007,-0.01 -0.002,-0.003 -0.004,-0.006 -0.006,-0.009 v -2e-4 c -0.29206,-0.41701 -0.51933,-0.85607 -0.66483,-1.3064 0,2.5e-4 0,2.5e-4 0,4.5e-4 v -8.5e-4 c 0,2e-4 0,2e-4 0,4e-4 -0.15802,-0.49161 -0.21911,-1.06952 -0.22016,-1.78524 -5e-4,-0.45113 0.10297,-0.8952 0.29957,-1.30655 0.19619,-0.41175 0.48224,-0.79102 0.84185,-1.13772 l 0.005,-0.005 0.004,-0.004 c 0.38838,-0.36026 0.85227,-0.64486 1.37199,-0.85271 0.58022,-0.23017 1.27323,-0.32003 2.132,-0.32129 0.54644,0 1.05596,0.0817 1.51669,0.25269 l 5e-4,-4e-4 c 0.009,0.002 0.0173,0.006 0.0262,0.009 0.008,0.003 0.0171,0.005 0.0253,0.008 l -5e-4,4e-4 c 0.11343,0.0371 0.22416,0.0824 0.34255,0.13905 0.1353,0.0652 0.27815,0.14345 0.42511,0.23267 0.29336,0.17848 0.60148,0.39904 0.87503,0.65277 0.18218,0.17012 0.35,0.35341 0.48595,0.56791 0.0772,0.12299 0.14471,0.25749 0.18954,0.4122 0.0402,0.13945 0.0579,0.2808 0.0579,0.41695 0,0.23162 -0.0496,0.44678 -0.12154,0.64382 -0.0725,0.19719 -0.16827,0.37837 -0.2754,0.54764 -0.21455,0.3382 -0.47494,0.63216 -0.71742,0.87689 -0.0667,0.0673 -0.0982,0.15116 -0.0988,0.24102 6.5e-4,0.0907 0.0327,0.17533 0.10048,0.24308 0.0513,0.0525 0.14035,0.0903 0.24102,0.0901 0.10177,2.5e-4 0.19184,-0.0383 0.24313,-0.0917 0.53723,-0.54039 0.86392,-1.0295 1.05721,-1.45481 0.19284,-0.4259 0.25539,-0.78892 0.25599,-1.10059 0,-0.2093 -0.0298,-0.39549 -0.0738,-0.55996 -0.23392,-0.56441 -0.55205,-1.00868 -1.00047,-1.40021 l -0.0182,-0.0156 -0.0169,-0.0173 c -0.0398,-0.0396 -0.0546,-0.0509 -0.0882,-0.0738 l -0.0196,-0.0129 -0.0183,-0.0144 c -0.4145,-0.32083 -0.82705,-0.56601 -1.29639,-0.77221 -0.40799,-0.17953 -0.88709,-0.31712 -1.34347,-0.40594 -0.45573,-0.0894 -0.89209,-0.13069 -1.20337,-0.13029 -0.80513,2e-4 -1.5165,0.12384 -2.14005,0.35941 -0.6236,0.23622 -1.16169,0.58292 -1.62868,1.04931 -0.4272,0.4272 -0.75955,0.92942 -0.99241,1.50298 -0.22787,0.56021 -0.35211,1.24005 -0.35191,2.02457 5e-4,0.75264 0.15802,1.40121 0.45513,1.95266 v 6.5e-4 c 0.34335,0.63836 0.78202,1.28988 1.30384,1.932 l 0.65133,0.80123 -0.88545,0.53118 c -0.74033,0.44387 -1.43268,1.08394 -2.05188,1.91454 -0.76475,1.06762 -1.14188,2.22346 -1.14378,3.48647 5e-4,0.78872 0.132,1.49798 0.38738,2.1378 0.25584,0.63961 0.63506,1.21253 1.14938,1.7273 0.60689,0.60629 1.35243,1.06597 2.25619,1.38015 0.90295,0.31357 1.96522,0.47829 3.18335,0.47804 1.10955,-2e-4 2.16096,-0.19179 3.16064,-0.57206 0.99907,-0.38068 1.94766,-0.95109 2.8435,-1.71855 l 0.61525,-0.52703 2.73138,2.60919 c 0.0567,0.0517 0.10752,0.0824 0.16967,0.10568 0.0623,0.023 0.1395,0.0384 0.24708,0.0386 0.0996,0 0.15736,-0.0152 0.18968,-0.0286 0.0323,-0.0144 0.0463,-0.024 0.073,-0.054 0.0475,-0.0575 0.0753,-0.10718 0.0951,-0.16262 0.0196,-0.0556 0.0319,-0.12029 0.0321,-0.2089 -10e-4,-0.0406 -0.006,-0.0661 -0.0313,-0.11594 -0.0254,-0.0483 -0.0784,-0.11983 -0.17783,-0.2068" style="fill:#ffffff;fill-opacity:1;fill-rule:nonzero;stroke-width:0.0500362" id="path899"/><path d="m 475.87888,182.30155 c 0,-2.5e-4 0,-2.5e-4 0,-4.5e-4 0,0 0,-2e-4 0,-2e-4 z" style="fill:#ffffff;fill-opacity:1;fill-rule:nonzero;stroke-width:0.0500362" id="path901"/><path d="m 491.76788,188.03345 0.0113,0.0107 c 0,2e-4 0,2e-4 0,2e-4 z" style="fill:#ffffff;fill-opacity:1;fill-rule:nonzero;stroke-width:0.0500362" id="path903"/><path d="m 477.65317,180.94672 c 0,-2e-4 0,-4e-4 0,-6.5e-4 v -2e-4 z" style="fill:#ffffff;fill-opacity:1;fill-rule:nonzero;stroke-width:0.0500362" id="path905"/></g></svg>