<?xml version="1.0" encoding="UTF-8" standalone="no"?>
<svg
   xmlns:dc="http://purl.org/dc/elements/1.1/"
   xmlns:cc="http://creativecommons.org/ns#"
   xmlns:rdf="http://www.w3.org/1999/02/22-rdf-syntax-ns#"
   xmlns:svg="http://www.w3.org/2000/svg"
   xmlns="http://www.w3.org/2000/svg"
   xmlns:sodipodi="http://sodipodi.sourceforge.net/DTD/sodipodi-0.dtd"
   xmlns:inkscape="http://www.inkscape.org/namespaces/inkscape"
   aria-hidden="true"
   focusable="false"
   data-prefix="far"
   data-icon="clone"
   class="svg-inline--fa fa-clone fa-w-16"
   role="img"
   viewBox="0 0 20 20"
   version="1.1"
   id="svg3290"
   sodipodi:docname="clone.svg"
   width="20"
   height="20"
   inkscape:version="1.0.1 (3bc2e813f5, 2020-09-07)">
  <metadata
     id="metadata3296">
    <rdf:RDF>
      <cc:Work
         rdf:about="">
        <dc:format>image/svg+xml</dc:format>
        <dc:type
           rdf:resource="http://purl.org/dc/dcmitype/StillImage" />
        <dc:title></dc:title>
      </cc:Work>
    </rdf:RDF>
  </metadata>
  <defs
     id="defs3294" />
  <sodipodi:namedview
     pagecolor="#ffffff"
     bordercolor="#666666"
     borderopacity="1"
     objecttolerance="10"
     gridtolerance="10"
     guidetolerance="10"
     inkscape:pageopacity="0"
     inkscape:pageshadow="2"
     inkscape:window-width="1920"
     inkscape:window-height="1017"
     id="namedview3292"
     showgrid="false"
     fit-margin-top="0"
     fit-margin-left="0"
     fit-margin-right="0"
     fit-margin-bottom="0"
     inkscape:zoom="1.6162671"
     inkscape:cx="256"
     inkscape:cy="256"
     inkscape:window-x="-8"
     inkscape:window-y="-8"
     inkscape:window-maximized="1"
     inkscape:current-layer="svg3290" />
  <path
     fill="currentColor"
     d="M 18.125,0 H 5.625 C 4.5894531,0 3.75,0.83945312 3.75,1.875 V 3.75 H 1.875 C 0.83945312,3.75 0,4.5894531 0,5.625 v 12.5 C 0,19.160547 0.83945312,20 1.875,20 h 12.5 c 1.035547,0 1.875,-0.839453 1.875,-1.875 V 16.25 h 1.875 C 19.160547,16.25 20,15.410547 20,14.375 V 1.875 C 20,0.83945312 19.160547,0 18.125,0 Z M 14.140625,18.125 H 2.109375 A 0.234375,0.234375 0 0 1 1.875,17.890625 V 5.859375 A 0.234375,0.234375 0 0 1 2.109375,5.625 H 3.75 v 8.75 c 0,1.035547 0.8394531,1.875 1.875,1.875 h 8.75 v 1.640625 A 0.234375,0.234375 0 0 1 14.140625,18.125 Z m 3.75,-3.75 H 5.859375 A 0.234375,0.234375 0 0 1 5.625,14.140625 V 2.109375 A 0.234375,0.234375 0 0 1 5.859375,1.875 h 12.03125 A 0.234375,0.234375 0 0 1 18.125,2.109375 v 12.03125 A 0.234375,0.234375 0 0 1 17.890625,14.375 Z"
     id="path3288"
     style="fill:#fefefe;fill-opacity:1;stroke-width:0.0390625" />
</svg>
