<?xml version="1.0" encoding="UTF-8" standalone="no"?>
<svg
   xmlns:dc="http://purl.org/dc/elements/1.1/"
   xmlns:cc="http://creativecommons.org/ns#"
   xmlns:rdf="http://www.w3.org/1999/02/22-rdf-syntax-ns#"
   xmlns:svg="http://www.w3.org/2000/svg"
   xmlns="http://www.w3.org/2000/svg"
   xmlns:sodipodi="http://sodipodi.sourceforge.net/DTD/sodipodi-0.dtd"
   xmlns:inkscape="http://www.inkscape.org/namespaces/inkscape"
   aria-hidden="true"
   focusable="false"
   data-prefix="fab"
   data-icon="github-square"
   class="svg-inline--fa fa-github-square fa-w-14"
   role="img"
   viewBox="0 0 16 16"
   version="1.1"
   id="svg1547"
   sodipodi:docname="github.svg"
   width="16"
   height="16"
   inkscape:version="1.0.1 (3bc2e813f5, 2020-09-07)">
  <metadata
     id="metadata1553">
    <rdf:RDF>
      <cc:Work
         rdf:about="">
        <dc:format>image/svg+xml</dc:format>
        <dc:type
           rdf:resource="http://purl.org/dc/dcmitype/StillImage" />
        <dc:title></dc:title>
      </cc:Work>
    </rdf:RDF>
  </metadata>
  <defs
     id="defs1551" />
  <sodipodi:namedview
     pagecolor="#ffffff"
     bordercolor="#666666"
     borderopacity="1"
     objecttolerance="10"
     gridtolerance="10"
     guidetolerance="10"
     inkscape:pageopacity="0"
     inkscape:pageshadow="2"
     inkscape:window-width="1920"
     inkscape:window-height="1017"
     id="namedview1549"
     showgrid="false"
     fit-margin-top="0"
     fit-margin-left="0"
     fit-margin-right="0"
     fit-margin-bottom="0"
     inkscape:zoom="1.6162671"
     inkscape:cx="224"
     inkscape:cy="224"
     inkscape:window-x="1912"
     inkscape:window-y="-8"
     inkscape:window-maximized="1"
     inkscape:current-layer="svg1547" />
  <path
     fill="currentColor"
     d="M 14.285714,0 H 1.7142857 C 0.76785714,0 0,0.767857 0,1.714286 V 14.285714 C 0,15.232143 0.76785714,16 1.7142857,16 H 14.285714 C 15.232143,16 16,15.232143 16,14.285714 V 1.714286 C 16,0.767857 15.232143,0 14.285714,0 Z M 9.9035714,13.703571 c -0.3,0.05357 -0.4107143,-0.132142 -0.4107143,-0.285714 C 9.4928571,13.225 9.5,12.239286 9.5,11.442857 9.5,10.885714 9.3142857,10.532143 9.0964286,10.346429 10.417857,10.2 11.810714,10.017857 11.810714,7.735714 c 0,-0.65 -0.232143,-0.975 -0.610714,-1.392857 C 11.26071,6.189286 11.464286,5.557143 11.13929,4.735714 10.642857,4.582143 9.5071429,5.375 9.5071429,5.375 9.0357143,5.242857 8.525,5.175 8.0214286,5.175 c -0.5035715,0 -1.0142857,0.06786 -1.4857143,0.2 0,0 -1.1357143,-0.792857 -1.6321429,-0.639286 -0.325,0.817857 -0.125,1.45 -0.060714,1.607143 -0.3785714,0.417857 -0.5571428,0.742857 -0.5571428,1.392857 0,2.271429 1.3321428,2.464286 2.6535714,2.610715 -0.1714286,0.153571 -0.325,0.417857 -0.3785714,0.796428 -0.3392857,0.153572 -1.2071429,0.417857 -1.725,-0.496428 C 4.5107143,10.082143 3.925,10.035714 3.925,10.035714 3.3464286,10.028571 3.8857143,10.4 3.8857143,10.4 c 0.3857143,0.178571 0.6571428,0.864286 0.6571428,0.864286 0.3464286,1.060714 2.0035715,0.703571 2.0035715,0.703571 0,0.496429 0.00714,1.303572 0.00714,1.45 0,0.153572 -0.1071428,0.339286 -0.4107143,0.285714 -2.35714,-0.789285 -4.00714,-3.032142 -4.00714,-5.653571 0,-3.278571 2.5071428,-5.767857 5.7857143,-5.767857 3.2785714,0 5.9357144,2.489286 5.9357144,5.767857 0.0036,2.621429 -1.596429,4.867857 -3.9535716,5.653571 z M 6.4,11.521429 c -0.067857,0.01429 -0.1321429,-0.01429 -0.1392857,-0.06071 -0.00714,-0.05357 0.039286,-0.1 0.1071428,-0.114285 0.067857,-0.0071 0.1321429,0.02143 0.1392858,0.06786 0.010714,0.04643 -0.035714,0.09286 -0.1071429,0.107143 z m -0.3392857,-0.03214 c 0,0.04643 -0.053571,0.08571 -0.125,0.08571 -0.078571,0.0071 -0.1321429,-0.03214 -0.1321429,-0.08571 0,-0.04643 0.053572,-0.08572 0.125,-0.08572 0.067857,-0.0071 0.1321429,0.03214 0.1321429,0.08572 z M 5.5714286,11.45 C 5.5571426,11.49643 5.4857146,11.51786 5.425,11.49643 5.357143,11.48214 5.3107143,11.42857 5.325,11.382144 c 0.014286,-0.04643 0.085714,-0.06786 0.1464286,-0.05357 0.071428,0.02143 0.1178571,0.075 0.1,0.121429 z M 5.1321429,11.257143 c -0.032143,0.03929 -0.1,0.03214 -0.1535715,-0.02143 -0.053571,-0.04643 -0.067857,-0.114285 -0.032143,-0.146428 0.032143,-0.03929 0.1,-0.03214 0.1535714,0.02143 0.046429,0.04643 0.064286,0.117857 0.032143,0.146429 z m -0.325,-0.325 c -0.032143,0.02143 -0.092857,0 -0.1321429,-0.05357 -0.039286,-0.05357 -0.039286,-0.114285 0,-0.139285 0.039286,-0.03214 0.1,-0.0071 0.1321429,0.04643 0.039286,0.05357 0.039286,0.117857 0,0.146429 z M 4.575,10.585714 c -0.032143,0.03214 -0.085714,0.01429 -0.125,-0.02143 -0.039286,-0.04643 -0.046429,-0.1 -0.014286,-0.125 0.032143,-0.03214 0.085714,-0.01429 0.125,0.02143 0.039286,0.04643 0.046429,0.1 0.014286,0.125 z M 4.3357143,10.321429 c -0.014286,0.03214 -0.060714,0.03928 -0.1,0.01429 -0.046429,-0.02143 -0.067857,-0.06071 -0.053571,-0.09286 0.014286,-0.02143 0.053571,-0.03214 0.1,-0.01429 0.046429,0.025 0.067857,0.06429 0.053571,0.09286 z"
     id="path1545"
     style="stroke-width:0.0357143;fill:#ffffff;fill-opacity:1" />
</svg>
