<?xml version="1.0" encoding="UTF-8" standalone="no"?>
<svg
   xmlns:dc="http://purl.org/dc/elements/1.1/"
   xmlns:cc="http://creativecommons.org/ns#"
   xmlns:rdf="http://www.w3.org/1999/02/22-rdf-syntax-ns#"
   xmlns:svg="http://www.w3.org/2000/svg"
   xmlns="http://www.w3.org/2000/svg"
   xmlns:sodipodi="http://sodipodi.sourceforge.net/DTD/sodipodi-0.dtd"
   xmlns:inkscape="http://www.inkscape.org/namespaces/inkscape"
   id="Groupe_13"
   data-name="Groupe 13"
   width="12.664621"
   height="12.664703"
   viewBox="0 0 12.664621 12.664703"
   version="1.1"
   sodipodi:docname="link.svg"
   inkscape:version="1.0.1 (3bc2e813f5, 2020-09-07)">
  <metadata
     id="metadata847">
    <rdf:RDF>
      <cc:Work
         rdf:about="">
        <dc:format>image/svg+xml</dc:format>
        <dc:type
           rdf:resource="http://purl.org/dc/dcmitype/StillImage" />
        <dc:title></dc:title>
      </cc:Work>
    </rdf:RDF>
  </metadata>
  <defs
     id="defs845" />
  <sodipodi:namedview
     pagecolor="#ffffff"
     bordercolor="#666666"
     borderopacity="1"
     objecttolerance="10"
     gridtolerance="10"
     guidetolerance="10"
     inkscape:pageopacity="0"
     inkscape:pageshadow="2"
     inkscape:window-width="1896"
     inkscape:window-height="926"
     id="namedview843"
     showgrid="false"
     fit-margin-top="0"
     fit-margin-left="0"
     fit-margin-right="0"
     fit-margin-bottom="0"
     inkscape:zoom="6.1942554"
     inkscape:cx="1.4060309"
     inkscape:cy="-5.5835926"
     inkscape:window-x="84"
     inkscape:window-y="29"
     inkscape:window-maximized="0"
     inkscape:current-layer="layer1" />
  <g
     inkscape:groupmode="layer"
     id="layer1"
     inkscape:label="Layer 1"
     transform="translate(-5.0939691,23.027846)">
    <path
       fill="currentColor"
       d="m 13.172927,-18.442074 c 1.477879,1.479412 1.457597,3.851285 0.0089,5.308014 -0.0027,0.0029 -0.0059,0.0062 -0.0089,0.0092 l -1.662233,1.662232 c -1.466078,1.4660791 -3.8513087,1.4658821 -5.3171657,0 -1.4660789,-1.465832 -1.4660789,-3.851334 0,-5.317167 l 0.9178393,-0.917839 c 0.2433992,-0.243398 0.6625689,-0.08162 0.6751335,0.262347 0.016029,0.438363 0.094639,0.878781 0.2396882,1.304086 0.049126,0.14401 0.014024,0.303307 -0.093574,0.410907 l -0.323715,0.323715 c -0.6932405,0.693241 -0.7149842,1.822025 -0.028571,2.522041 0.6931909,0.706919 1.8325618,0.711125 2.5310717,0.01261 l 1.662233,-1.661985 c 0.697321,-0.697322 0.694402,-1.824425 0,-2.518828 -0.09155,-0.09137 -0.183761,-0.162364 -0.255791,-0.211959 a 0.39668497,0.39668497 0 0 1 -0.171838,-0.311817 c -0.0098,-0.261381 0.08281,-0.530727 0.289357,-0.737269 l 0.520783,-0.520808 c 0.136566,-0.136565 0.350801,-0.153337 0.509157,-0.04282 a 3.7717352,3.7717352 0 0 1 0.507624,0.425378 z m 3.486114,-3.486287 c -1.465858,-1.465881 -3.851088,-1.466079 -5.317166,0 l -1.6622334,1.662233 c -0.00297,0.0029 -0.00618,0.0062 -0.0089,0.0092 -1.4486664,1.45673 -1.4689741,3.828602 0.0089,5.308014 a 3.7710425,3.7710425 0 0 0 0.5075994,0.425353 c 0.158358,0.11052 0.372618,0.09372 0.509158,-0.04282 l 0.520784,-0.520809 c 0.206541,-0.206541 0.299152,-0.475888 0.289357,-0.737269 a 0.39668497,0.39668497 0 0 0 -0.171839,-0.311817 c -0.07203,-0.04959 -0.164244,-0.120586 -0.25579,-0.211959 -0.694404,-0.694403 -0.697323,-1.821506 0,-2.518827 l 1.662232,-1.661986 c 0.698509,-0.69851 1.837855,-0.694304 2.53107,0.01261 0.686414,0.700018 0.664697,1.828803 -0.02857,2.522043 l -0.323715,0.323715 c -0.107601,0.1076 -0.1427,0.266897 -0.09358,0.410908 0.145049,0.425303 0.223659,0.865722 0.239688,1.304086 0.01259,0.343973 0.431735,0.505745 0.675133,0.262346 l 0.91784,-0.91784 c 1.466105,-1.465807 1.466105,-3.85131 2.5e-5,-5.317142 z"
       id="path859"
       style="fill:#ffffff;fill-opacity:1;stroke-width:0.0247356" />
  </g>
  <g
     inkscape:groupmode="layer"
     id="layer2"
     inkscape:label="Layer 2"
     transform="translate(-5.0939691,23.027846)" />
</svg>
