<?xml version="1.0" encoding="UTF-8"?>
<svg width="160" height="44.213" version="1.1" viewBox="0 0 42.333 11.698" xmlns="http://www.w3.org/2000/svg" xmlns:cc="http://creativecommons.org/ns#" xmlns:dc="http://purl.org/dc/elements/1.1/" xmlns:rdf="http://www.w3.org/1999/02/22-rdf-syntax-ns#" xmlns:serif="http://www.serif.com/">
 <metadata>
  <rdf:RDF>
   <cc:Work rdf:about="">
    <dc:format>image/svg+xml</dc:format>
    <dc:type rdf:resource="http://purl.org/dc/dcmitype/StillImage"/>
    <dc:title/>
   </cc:Work>
  </rdf:RDF>
 </metadata>
 <g transform="translate(-6.0411 -4.343)">
  <g transform="matrix(.15334 0 0 .15334 40.239 16.536)">
   <g fill="#e85419" stroke-width=".6014" aria-label="Powered by">
    <path d="m-212.44-55.7c-1.8042 0-3.4641 1.0585-4.5466 2.4537 0.14434-0.55329 0.89006-2.598 0.89006-2.9589 0-0.6014-1.0825-0.93818-1.8042-0.93818-0.62545 0-0.69762 0.16839-0.8179 0.52923-1.275 3.8971-1.9726 6.7357-2.598 9.5983-0.19245-0.69762 0.0481-1.8523-1.3231-1.8523-0.28868 0-0.3849 0.09622-0.3849 0.2165 0.0481 1.3231 0.19245 2.7424 1.2269 4.0173-0.48112 2.6943-0.86602 4.8834-1.1306 7.0724 0 0.67356 1.3712 0.93818 1.9245 0.93818 0.76979 0 0.8179-0.16839 0.89007-0.67357 0.19245-1.5636 0.52923-3.1754 1.1547-5.8696 0.43301 0.12028 0.91413 0.16839 1.3952 0.16839 4.4984 0 8.5639-4.306 8.5639-8.8766 0-2.3094-1.1547-3.8249-3.44-3.8249zm0.52923 7.9144c-1.3231 2.165-4.282 4.1857-6.7838 3.6565 0.50518-1.9004 1.0344-3.5362 1.8283-5.3645 0.98629-2.2853 2.6702-5.1239 4.739-5.1239 2.2131 0 1.4915 4.739 0.2165 6.8319z"/>
    <path d="m-202.36-42.686c0.6014-1.2269 1.0584-2.5259 1.0584-3.8971 0-1.3952-0.866-2.4056-2.5259-2.4056-1.7561 0-2.4537 1.2269-2.574 2.598-0.38489-0.19245-0.84195-0.31273-1.299-0.31273-1.2509 0-1.5396 2.3094-1.5396 3.5362 0 2.141 1.4193 3.6565 3.6565 3.6565 1.2269 0 2.2853-1.2269 2.7664-2.2372 1.5877 0.33678 4.0654-0.45706 4.9315-2.6943 0.0962-0.26462-0.21651-0.84196-0.62546-0.84196-0.48112 0.6014-1.6839 2.7905-3.8489 2.598zm-2.2132-3.6324c0.0722-0.62546 0.55328-1.9245 1.2509-1.9245 0.98629 0 0.26461 3.5122-0.6014 4.9796-0.72167-0.72168-0.72167-1.4434-0.72167-2.2131 0-0.28867 0.0241-0.57734 0.0722-0.84196zm0.1684 4.0895c-0.1684 0.43301-0.84196 1.3952-1.7561 1.3952-0.84195 0-0.33678-3.44-0.0962-3.7046 0.21651 0.91413 1.0344 1.8283 1.8523 2.3094z"/>
    <path d="m-183.98-46.126c-0.14434 1.0103-1.6599 2.6221-2.2853 2.598-0.74574 0-0.52924-3.9211-0.52924-3.9692 0-0.84196-1.1547-0.40895-1.9004-0.24056 0 1.3712-1.4674 6.9522-2.7424 6.9522-0.72168 0 0.31273-5.581 0.91413-6.447 0-0.55329-1.0585-0.89007-1.6839-0.89007-1.732 0-2.3575 7.0724-4.5947 7.0724-0.69762 0 1.299-5.4848 1.7801-6.3027 0-0.50518-1.0104-0.84196-1.6599-0.84196-0.89007 0-1.2028 0.93818-1.4674 1.6358-0.57734 1.5636-1.3952 3.7287-1.3952 5.3404 0 1.275 1.708 1.8523 2.6943 1.8523 1.4193 0 1.9966-1.4915 2.6462-2.4778 0 1.8042 1.3471 2.598 3.0551 2.598 1.6358 0 2.5259-2.5259 3.1273-4.1376 0.48112 0.6014 1.3471 0.91412 2.1891 0.91412 1.3471 0 3.007-1.7561 3.007-2.9829 0-0.33678-0.31273-0.93818-1.1547-0.67356z"/>
    <path d="m-177.8-45.068c-0.62546 1.5396-2.4056 4.715-4.2579 4.715-0.64951 0-0.50518-2.7183-0.24056-3.0792 1.6358 0 2.8386-2.4056 2.8386-3.3438 0-1.1787-1.1547-1.6358-2.0688-1.6358-2.3815 0-3.6565 4.3782-3.6565 6.2064 0 1.9245 1.4434 2.9829 3.5603 2.9829 2.8626-0.07217 4.2338-4.1857 4.3541-4.5947 0.24056-0.74573-0.26462-1.2509-0.52923-1.2509zm-2.9829-2.3094c0.2165 1.0825-0.50517 2.4537-1.3471 2.9589 0.26462-0.96224 0.69763-2.2372 1.3471-2.9589z"/>
    <path d="m-169.06-44.803c-0.50517 1.3471-2.6221 4.6668-4.1136 4.6668-1.2028 0 1.5396-5.6291 1.5396-6.3989 0-0.69762-0.64951-0.76979-1.1547-0.8179-1.1547-0.09622-2.9589 0.62545-2.9589-0.16839 0-0.55329 0.48112-0.96224 0.48112-1.299 0-0.3849-0.76979-0.55329-1.0344-0.57734h-0.2165c-0.64951 0-1.1547 0.86601-1.1547 1.5155 0 1.299 1.3231 2.0929 3.2957 1.708-0.64951 1.4915-1.6839 3.1994-1.6839 4.8834 0 1.6358 1.5636 2.3094 2.9589 2.3094 2.598 0 4.1136-3.2716 4.4504-4.0414 0.40895-0.98629 0.40895-1.5877-0.40895-1.7801z"/>
    <path d="m-162.66-45.068c-0.62545 1.5396-2.4056 4.715-4.2579 4.715-0.64951 0-0.50518-2.7183-0.24056-3.0792 1.6358 0 2.8386-2.4056 2.8386-3.3438 0-1.1787-1.1547-1.6358-2.0688-1.6358-2.3815 0-3.6565 4.3782-3.6565 6.2064 0 1.9245 1.4434 2.9829 3.5603 2.9829 2.8626-0.07217 4.2338-4.1857 4.3541-4.5947 0.24056-0.74573-0.26462-1.2509-0.52923-1.2509zm-2.9829-2.3094c0.21649 1.0825-0.50518 2.4537-1.3471 2.9589 0.26462-0.96224 0.69763-2.2372 1.3471-2.9589z"/>
    <path d="m-152.54-55.869c-0.36084-0.50517-1.8523-0.62545-1.7801-0.62545-0.84196 0-0.91413 0.8179-1.1066 1.3712-0.76978 2.3575-1.3952 4.7871-1.9245 7.2168-0.45707-0.55328-1.1547-0.79384-1.8764-0.79384-3.1513 0-4.282 5.0999-4.282 7.4092 0 1.3231 0.98629 2.3094 2.7183 2.3094 1.0825 0 1.8282-0.57734 2.3815-1.3952 0.0481 0.84196 0.31272 2.0207 0.74573 2.5499 0.67357 0.8179 1.9245 0.28867 2.4537-0.14434-0.2165-0.55328-0.28867-1.6117-0.28867-2.5259 0-0.98629 0.12028-1.9726 0.26462-2.9829 0.62545-4.3541 1.4674-8.4677 2.6943-12.389zm-8.3233 15.444c-0.3849 0-0.55329-0.43301-0.55329-1.1066 0-2.0448 1.5155-6.1824 2.598-6.1824 0.40895 0 0.26462 1.1547 0.64951 1.3471 0.0962 0.07217 0.433 0.09622 0.433 0.24056-0.16839 3.007-1.9004 5.7013-3.1273 5.7013z"/>
    <path d="m-140.53-47.161c-0.31273-0.55329-0.74574-0.86601-1.2509-0.86601-0.62544 0-1.3471 0.50518-1.9726 1.6358 0.43301-2.6943 0.86602-5.3885 1.3471-8.0828l0.12028-0.76979c0.0241-0.09622 0.0481-0.24056 0.0481-0.3849 0-0.76979-1.5877-0.89007-1.8042-0.89007-0.28867 0-0.55328 0.07217-0.6014 0.28867-1.1547 4.8112-2.2853 9.8148-2.7664 14.746-0.0241 0.26462-0.0722 0.55329-0.0722 0.8179 0 1.0103 0.91412 1.4193 1.8764 1.4193s0.93819-0.76979 1.0104-1.3952c0.38489 0.26462 0.89007 0.43301 1.3471 0.43301 2.8386 0 3.031-5.4848 3.031-5.4607 0-0.52923-0.0481-1.0585-0.31273-1.4915zm-3.1513 5.8937c-0.19245-0.07217-0.50518-0.28867-0.79384-0.28867 0.0722-0.50517 0.12028-1.0825 0.28866-1.5636 0.33679-1.0585 1.732-3.9452 2.4537-3.6084 1.1066 0.48112-0.96224 5.8456-1.9485 5.4607z"/>
    <path d="m-133.1-40.473c0.91412-5.6772 1.1306-6.6875 1.1306-6.8559 0-0.76979-1.2028-0.84196-1.6599-0.84196-0.6014 0-0.64951 0.69762-0.84196 1.1547-0.62545 1.4915-1.9004 5.148-3.4881 5.148-0.62546 0 0.433-3.9452 1.1306-4.8112 0.12028-0.14434-0.52923-0.43301-1.0344-0.43301-1.1066 0-1.8764 4.306-1.8764 5.2201 0 1.0344 0.6014 1.5877 1.5636 1.5877 0.98629 0 2.165-0.72168 3.1032-2.4296-0.12028 0.33678-0.26461 1.4674-0.55328 2.7183-3.2476 1.2269-7.0003 3.3678-7.0003 7.4814 0 2.1891 1.5396 4.1136 4.4263 4.1136 3.3438 0 4.282-7.2168 4.6668-9.5983l0.0722-0.79384c0.91412-0.33678 1.8764-0.19245 2.3815-0.04811 0.0962-0.36084 0.0962-0.8179 0.0481-0.96224-0.33678-0.79385-1.6839-0.64951-2.0688-0.64951zm-2.8386 2.165c-0.72168 4.0173-1.5396 6.3989-2.8386 8.2512-0.93818 1.3952-1.9485-0.6014-1.9485-2.1169 0-3.9452 2.8145-5.2201 4.7871-6.1343z"/>
   </g>
   <g transform="matrix(.051139 0 0 .051139 -137.73 -96.241)" clip-rule="evenodd" fill-rule="evenodd" stroke-linejoin="round" stroke-miterlimit="1.4142">
    <g serif:id="Calque 1">
     <g fill="#58595b">
      <g fill-rule="nonzero">
       <path d="m691.11 1749.1h22.675c5.454 0 10.267-0.725 14.442-2.17 4.171-1.442 7.671-3.463 10.496-6.063 2.825-2.592 4.962-5.7 6.408-9.312 1.446-3.617 2.171-7.592 2.171-11.93 0-9.004-2.779-16.033-8.329-21.095-5.559-5.059-13.95-7.592-25.188-7.592h-22.675zm0 15.18v52.841h-19.025v-141.27h41.7c8.938 0 16.709 1.037 23.313 3.108s12.075 5.012 16.412 8.821c4.338 3.812 7.575 8.412 9.713 13.8 2.133 5.391 3.2 11.404 3.2 18.041 0 6.571-1.15 12.584-3.446 18.042-2.304 5.454-5.671 10.15-10.108 14.096-4.434 3.942-9.942 7.017-16.513 9.217s-14.096 3.3-22.571 3.3z"/>
       <path d="m877.62 1675.9v15.575h-67.821v46.925h54.908v14.983h-54.908v48.205h67.821v15.579h-87.046v-141.27z"/>
       <path d="m926.12 1744.3h20.013c5.583 0 10.495-0.675 14.737-2.021 4.238-1.346 7.788-3.254 10.646-5.716 2.858-2.467 5.012-5.409 6.458-8.825 1.442-3.417 2.167-7.196 2.167-11.338 0-8.412-2.775-14.75-8.329-19.025-5.554-4.271-13.817-6.404-24.792-6.404h-20.9zm0 13.9v58.95h-19.025v-141.27h39.925c8.938 0 16.658 0.909 23.163 2.713 6.508 1.808 11.883 4.421 16.12 7.837 4.238 3.421 7.375 7.542 9.413 12.371 2.037 4.834 3.058 10.238 3.058 16.217 0 4.996-0.787 9.662-2.366 14-1.58 4.337-3.863 8.229-6.85 11.679-2.992 3.454-6.642 6.396-10.946 8.825-4.304 2.433-9.184 4.271-14.638 5.521 2.367 1.379 4.471 3.383 6.309 6.012l41.208 56.092h-16.958c-3.484 0-6.046-1.346-7.688-4.042l-36.671-50.471c-1.116-1.579-2.333-2.712-3.65-3.404-1.312-0.691-3.287-1.033-5.912-1.033z"/>
       <path d="m1104.4 1698c-0.591 0.988-1.216 1.725-1.875 2.217-0.654 0.496-1.508 0.741-2.562 0.741-1.117 0-2.413-0.558-3.892-1.675-1.479-1.116-3.354-2.35-5.621-3.7-2.266-1.345-4.991-2.575-8.179-3.695-3.191-1.117-7.05-1.675-11.583-1.675-4.275 0-8.054 0.575-11.338 1.725-3.287 1.15-6.029 2.712-8.233 4.683-2.2 1.971-3.858 4.287-4.975 6.95-1.121 2.662-1.679 5.537-1.679 8.625 0 3.942 0.971 7.212 2.908 9.808 1.938 2.6 4.5 4.813 7.692 6.654 3.187 1.842 6.8 3.438 10.842 4.784 4.041 1.346 8.183 2.741 12.42 4.187 4.242 1.446 8.38 3.075 12.421 4.879 4.042 1.809 7.659 4.092 10.846 6.855 3.188 2.758 5.75 6.145 7.688 10.15 1.937 4.008 2.908 8.937 2.908 14.787 0 6.179-1.05 11.979-3.154 17.4s-5.175 10.138-9.217 14.146-9.004 7.167-14.887 9.462c-5.88 2.3-12.567 3.45-20.059 3.45-9.137 0-17.466-1.658-24.991-4.975-7.525-3.32-13.95-7.804-19.271-13.458l5.521-9.067c0.525-0.725 1.166-1.333 1.92-1.825 0.755-0.491 1.592-0.737 2.513-0.737 1.383 0 2.958 0.737 4.733 2.217 1.775 1.479 3.992 3.104 6.654 4.879 2.663 1.775 5.884 3.4 9.663 4.879 3.775 1.479 8.392 2.217 13.85 2.217 4.533 0 8.575-0.621 12.125-1.871 3.55-1.246 6.554-3.009 9.021-5.275 2.462-2.267 4.35-4.975 5.666-8.134 1.313-3.154 1.971-6.67 1.971-10.55 0-4.266-0.971-7.766-2.908-10.495-1.938-2.725-4.483-5.009-7.638-6.85-3.154-1.842-6.754-3.4-10.795-4.684-4.042-1.279-8.184-2.596-12.421-3.946-4.238-1.345-8.379-2.904-12.421-4.679s-7.642-4.075-10.796-6.9c-3.154-2.829-5.7-6.358-7.637-10.6-1.942-4.237-2.909-9.479-2.909-15.721 0-4.995 0.967-9.825 2.909-14.491 1.937-4.667 4.745-8.804 8.429-12.421 3.679-3.613 8.229-6.508 13.65-8.675 5.425-2.171 11.65-3.254 18.683-3.254 7.883 0 15.083 1.25 21.588 3.746 6.508 2.5 12.191 6.112 17.054 10.845z"/>
       <path d="m1248.2 1746.6c0-8.675-1.183-16.463-3.55-23.363-2.367-6.904-5.717-12.733-10.054-17.5-4.338-4.762-9.596-8.429-15.775-10.991-6.175-2.563-13.075-3.842-20.7-3.842-7.558 0-14.425 1.279-20.604 3.842-6.175 2.562-11.45 6.229-15.821 10.991-4.371 4.767-7.738 10.596-10.104 17.5-2.367 6.9-3.55 14.688-3.55 23.363s1.183 16.446 3.55 23.312c2.366 6.871 5.733 12.688 10.104 17.45 4.371 4.763 9.646 8.413 15.821 10.942 6.179 2.533 13.046 3.796 20.604 3.796 7.625 0 14.525-1.263 20.7-3.796 6.179-2.529 11.437-6.179 15.775-10.942 4.337-4.762 7.687-10.579 10.054-17.45 2.367-6.866 3.55-14.637 3.55-23.312m19.617 0c0 10.579-1.675 20.292-5.025 29.129-3.354 8.838-8.084 16.45-14.196 22.821-6.113 6.375-13.458 11.321-22.033 14.837-8.575 3.517-18.059 5.275-28.442 5.275s-19.846-1.758-28.392-5.275c-8.541-3.516-15.871-8.462-21.983-14.837-6.108-6.371-10.842-13.983-14.192-22.821-3.354-8.837-5.029-18.55-5.029-29.129s1.675-20.292 5.029-29.129c3.35-8.838 8.084-16.463 14.192-22.871 6.112-6.408 13.442-11.388 21.983-14.938 8.546-3.545 18.009-5.32 28.392-5.32s19.867 1.775 28.442 5.32c8.575 3.55 15.92 8.53 22.033 14.938 6.112 6.408 10.842 14.033 14.196 22.871 3.35 8.837 5.025 18.55 5.025 29.129"/>
       <path d="m1307.6 1676.5c0.821 0.429 1.759 1.3 2.809 2.612l81.82 106.46c-0.195-1.704-0.329-3.367-0.391-4.975-0.067-1.609-0.1-3.171-0.1-4.684v-100.06h16.758v141.27h-9.662c-1.513 0-2.775-0.263-3.792-0.792-1.021-0.525-2.021-1.412-3.008-2.662l-81.721-106.37c0.129 1.646 0.229 3.254 0.296 4.833 0.062 1.575 0.095 3.021 0.095 4.338v100.65h-16.758v-141.27h9.858c1.709 0 2.975 0.213 3.796 0.642"/>
       <path d="m1466.6 1764.7h52.742l-22.184-57.471c-1.446-3.55-2.858-7.988-4.237-13.309-0.725 2.696-1.429 5.175-2.121 7.442-0.688 2.271-1.363 4.254-2.021 5.967zm92.567 52.445h-14.788c-1.708 0-3.087-0.425-4.142-1.283-1.05-0.854-1.837-1.937-2.362-3.254l-13.213-34.104h-63.383l-13.212 34.104c-0.459 1.183-1.25 2.237-2.367 3.158-1.117 0.917-2.496 1.379-4.138 1.379h-14.787l56.483-141.27h19.421z"/>
       <path d="m1596.2 1801.1h61.121v16.066h-80.246v-141.26h19.125z"/>
       <path d="m1857.3 1746.6c0-8.675-1.184-16.429-3.55-23.267-2.367-6.833-5.717-12.616-10.054-17.35-4.338-4.729-9.596-8.341-15.771-10.841-6.179-2.496-13.05-3.746-20.604-3.746h-33.617v110.31h33.617c7.554 0 14.425-1.246 20.604-3.746 6.175-2.496 11.433-6.096 15.771-10.791 4.337-4.7 7.687-10.467 10.054-17.3 2.366-6.838 3.55-14.592 3.55-23.267m19.616 0c0 10.579-1.675 20.208-5.029 28.883-3.35 8.675-8.083 16.1-14.196 22.279-6.108 6.18-13.437 10.959-21.979 14.342-8.546 3.388-18.008 5.079-28.391 5.079h-52.838v-141.27h52.838c10.383 0 19.845 1.695 28.391 5.079 8.542 3.383 15.871 8.179 21.979 14.391 6.113 6.209 10.846 13.655 14.196 22.33 3.354 8.675 5.029 18.304 5.029 28.883"/>
       <path d="m1922.4 1764.7h52.742l-22.184-57.471c-1.446-3.55-2.858-7.988-4.237-13.309-0.725 2.696-1.429 5.175-2.117 7.442-0.692 2.271-1.367 4.254-2.025 5.967zm92.567 52.445h-14.788c-1.708 0-3.087-0.425-4.142-1.283-1.05-0.854-1.837-1.937-2.362-3.254l-13.213-34.104h-63.383l-13.212 34.104c-0.459 1.183-1.25 2.237-2.367 3.158-1.117 0.917-2.496 1.379-4.138 1.379h-14.787l56.483-141.27h19.421z"/>
       <path d="m2116.1 1675.9v16.067h-45.642v125.2h-19.125v-125.2h-45.842v-16.067z"/>
       <path d="m2146.8 1764.7h52.742l-22.183-57.471c-1.446-3.55-2.859-7.988-4.238-13.309-0.725 2.696-1.429 5.175-2.121 7.442-0.687 2.271-1.362 4.254-2.021 5.967zm92.567 52.445h-14.788c-1.708 0-3.087-0.425-4.141-1.283-1.05-0.854-1.842-1.937-2.363-3.254l-13.212-34.104h-63.384l-13.212 34.104c-0.458 1.183-1.25 2.237-2.367 3.158-1.116 0.917-2.496 1.379-4.137 1.379h-14.788l56.484-141.27h19.42z"/>
       <path d="m2405.7 1698c-0.591 0.988-1.216 1.725-1.875 2.217-0.654 0.496-1.512 0.741-2.562 0.741-1.117 0-2.417-0.558-3.892-1.675-1.479-1.116-3.354-2.35-5.621-3.7-2.267-1.345-4.992-2.575-8.179-3.695-3.188-1.117-7.05-1.675-11.583-1.675-4.275 0-8.055 0.575-11.338 1.725-3.287 1.15-6.029 2.712-8.233 4.683-2.2 1.971-3.858 4.287-4.975 6.95-1.121 2.662-1.679 5.537-1.679 8.625 0 3.942 0.971 7.212 2.908 9.808 1.938 2.6 4.5 4.813 7.692 6.654 3.187 1.842 6.8 3.438 10.841 4.784 4.042 1.346 8.184 2.741 12.421 4.187 4.238 1.446 8.379 3.075 12.421 4.879 4.042 1.809 7.654 4.092 10.846 6.855 3.183 2.758 5.746 6.145 7.687 10.15 1.938 4.008 2.909 8.937 2.909 14.787 0 6.179-1.054 11.979-3.154 17.4-2.105 5.421-5.175 10.138-9.217 14.146s-9.004 7.167-14.888 9.462c-5.883 2.3-12.566 3.45-20.058 3.45-9.137 0-17.467-1.658-24.992-4.975-7.525-3.32-13.95-7.804-19.27-13.458l5.516-9.067c0.529-0.725 1.167-1.333 1.925-1.825 0.754-0.491 1.592-0.737 2.513-0.737 1.383 0 2.958 0.737 4.733 2.217 1.775 1.479 3.992 3.104 6.654 4.879 2.663 1.775 5.879 3.4 9.663 4.879 3.775 1.479 8.391 2.217 13.846 2.217 4.537 0 8.579-0.621 12.129-1.871 3.546-1.246 6.554-3.009 9.016-5.275 2.467-2.267 4.355-4.975 5.671-8.134 1.313-3.154 1.971-6.67 1.971-10.55 0-4.266-0.971-7.766-2.908-10.495-1.938-2.725-4.484-5.009-7.642-6.85-3.15-1.842-6.75-3.4-10.792-4.684-4.041-1.279-8.183-2.596-12.42-3.946-4.238-1.345-8.38-2.904-12.421-4.679-4.042-1.775-7.642-4.075-10.796-6.9-3.154-2.829-5.7-6.358-7.642-10.6-1.937-4.237-2.904-9.479-2.904-15.721 0-4.995 0.967-9.825 2.904-14.491 1.942-4.667 4.75-8.804 8.429-12.421 3.684-3.613 8.234-6.508 13.655-8.675 5.424-2.171 11.649-3.254 18.679-3.254 7.887 0 15.087 1.25 21.591 3.746 6.505 2.5 12.192 6.112 17.054 10.845z"/>
       <path d="m2549.4 1746.6c0-8.675-1.184-16.463-3.55-23.363-2.367-6.904-5.717-12.733-10.054-17.5-4.338-4.762-9.596-8.429-15.771-10.991-6.179-2.563-13.084-3.842-20.704-3.842-7.559 0-14.425 1.279-20.605 3.842-6.179 2.562-11.45 6.229-15.82 10.991-4.371 4.767-7.738 10.596-10.105 17.5-2.366 6.9-3.55 14.688-3.55 23.363s1.184 16.446 3.55 23.312c2.367 6.871 5.734 12.688 10.105 17.45 4.37 4.763 9.641 8.413 15.82 10.942 6.18 2.533 13.046 3.796 20.605 3.796 7.62 0 14.525-1.263 20.704-3.796 6.175-2.529 11.433-6.179 15.771-10.942 4.337-4.762 7.687-10.579 10.054-17.45 2.366-6.866 3.55-14.637 3.55-23.312m19.616 0c0 10.579-1.675 20.292-5.025 29.129-3.354 8.838-8.087 16.45-14.2 22.821-6.108 6.375-13.454 11.321-22.029 14.837-8.579 3.517-18.058 5.275-28.441 5.275-10.384 0-19.85-1.758-28.392-5.275-8.542-3.516-15.871-8.462-21.983-14.837-6.113-6.371-10.842-13.983-14.196-22.821-3.35-8.837-5.025-18.55-5.025-29.129s1.675-20.292 5.025-29.129c3.354-8.838 8.083-16.463 14.196-22.871 6.112-6.408 13.441-11.388 21.983-14.938 8.542-3.545 18.008-5.32 28.392-5.32 10.383 0 19.862 1.775 28.441 5.32 8.575 3.55 15.921 8.53 22.029 14.938 6.113 6.408 10.846 14.033 14.2 22.871 3.35 8.837 5.025 18.55 5.025 29.129"/>
       <path d="m2614.3 1801.1h61.121v16.066h-80.246v-141.26h19.125z"/>
       <path d="m2751.4 1802c5.85 0 11.075-0.988 15.671-2.959 4.6-1.971 8.495-4.733 11.683-8.279 3.187-3.55 5.621-7.787 7.296-12.717 1.675-4.929 2.512-10.35 2.512-16.266v-85.863h19.025v85.863c0 8.15-1.296 15.708-3.891 22.671-2.596 6.97-6.309 13-11.142 18.091-4.829 5.092-10.725 9.084-17.692 11.979-6.966 2.888-14.787 4.334-23.462 4.334s-16.496-1.446-23.463-4.334c-6.966-2.895-12.883-6.887-17.746-11.979-4.862-5.091-8.591-11.121-11.187-18.091-2.596-6.963-3.892-14.521-3.892-22.671v-85.863h19.021v85.763c0 5.916 0.842 11.337 2.517 16.266 1.675 4.93 4.108 9.171 7.296 12.717 3.187 3.55 7.095 6.329 11.729 8.329 4.633 2.009 9.875 3.009 15.725 3.009"/>
       <path d="m2936.6 1675.9v16.067h-45.642v125.2h-19.125v-125.2h-45.842v-16.067z"/>
      </g>
      <rect x="2960.3" y="1675.9" width="19.125" height="141.27"/>
      <g fill-rule="nonzero">
       <path d="m3128.8 1746.6c0-8.675-1.183-16.463-3.55-23.363-2.366-6.904-5.716-12.733-10.054-17.5-4.337-4.762-9.596-8.429-15.771-10.991-6.179-2.563-13.083-3.842-20.704-3.842-7.558 0-14.425 1.279-20.604 3.842-6.179 2.562-11.45 6.229-15.821 10.991-4.371 4.767-7.737 10.596-10.104 17.5-2.367 6.9-3.55 14.688-3.55 23.363s1.183 16.446 3.55 23.312c2.367 6.871 5.733 12.688 10.104 17.45 4.371 4.763 9.642 8.413 15.821 10.942 6.179 2.533 13.046 3.796 20.604 3.796 7.621 0 14.525-1.263 20.704-3.796 6.175-2.529 11.434-6.179 15.771-10.942 4.338-4.762 7.688-10.579 10.054-17.45 2.367-6.866 3.55-14.637 3.55-23.312m19.617 0c0 10.579-1.675 20.292-5.025 29.129-3.354 8.838-8.088 16.45-14.2 22.821-6.108 6.375-13.454 11.321-22.029 14.837-8.579 3.517-18.059 5.275-28.442 5.275s-19.85-1.758-28.392-5.275c-8.541-3.516-15.87-8.462-21.983-14.837-6.112-6.371-10.842-13.983-14.192-22.821-3.354-8.837-5.029-18.55-5.029-29.129s1.675-20.292 5.029-29.129c3.35-8.838 8.08-16.463 14.192-22.871 6.113-6.408 13.442-11.388 21.983-14.938 8.542-3.545 18.009-5.32 28.392-5.32s19.863 1.775 28.442 5.32c8.575 3.55 15.921 8.53 22.029 14.938 6.112 6.408 10.846 14.033 14.2 22.871 3.35 8.837 5.025 18.55 5.025 29.129"/>
       <path d="m3188.2 1676.5c0.82 0.429 1.758 1.3 2.808 2.612l81.821 106.46c-0.196-1.704-0.329-3.367-0.396-4.975-0.063-1.609-0.096-3.171-0.096-4.684v-100.06h16.758v141.27h-9.662c-1.513 0-2.775-0.263-3.792-0.792-1.021-0.525-2.025-1.412-3.008-2.662l-81.721-106.37c0.129 1.646 0.225 3.254 0.292 4.833 0.066 1.575 0.1 3.021 0.1 4.338v100.65h-16.759v-141.27h9.859c1.708 0 2.971 0.213 3.796 0.642"/>
       <path d="m3396 1698c-0.592 0.988-1.217 1.725-1.875 2.217-0.655 0.496-1.513 0.741-2.563 0.741-1.117 0-2.417-0.558-3.892-1.675-1.479-1.116-3.354-2.35-5.62-3.7-2.267-1.345-4.992-2.575-8.18-3.695-3.187-1.117-7.05-1.675-11.583-1.675-4.275 0-8.054 0.575-11.338 1.725-3.287 1.15-6.029 2.712-8.233 4.683-2.2 1.971-3.858 4.287-4.975 6.95-1.121 2.662-1.679 5.537-1.679 8.625 0 3.942 0.971 7.212 2.908 9.808 1.938 2.6 4.5 4.813 7.692 6.654 3.188 1.842 6.8 3.438 10.842 4.784 4.041 1.346 8.183 2.741 12.421 4.187 4.237 1.446 8.379 3.075 12.42 4.879 4.042 1.809 7.655 4.092 10.846 6.855 3.184 2.758 5.746 6.145 7.688 10.15 1.937 4.008 2.908 8.937 2.908 14.787 0 6.179-1.054 11.979-3.154 17.4-2.104 5.421-5.175 10.138-9.217 14.146-4.041 4.008-9.004 7.167-14.887 9.462-5.884 2.3-12.567 3.45-20.059 3.45-9.137 0-17.466-1.658-24.991-4.975-7.525-3.32-13.95-7.804-19.271-13.458l5.517-9.067c0.529-0.725 1.166-1.333 1.925-1.825 0.754-0.491 1.591-0.737 2.512-0.737 1.379 0 2.958 0.737 4.733 2.217 1.775 1.479 3.992 3.104 6.655 4.879 2.662 1.775 5.879 3.4 9.662 4.879 3.775 1.479 8.392 2.217 13.846 2.217 4.537 0 8.579-0.621 12.129-1.871 3.546-1.246 6.554-3.009 9.017-5.275 2.466-2.267 4.354-4.975 5.671-8.134 1.312-3.154 1.97-6.67 1.97-10.55 0-4.266-0.97-7.766-2.908-10.495-1.937-2.725-4.483-5.009-7.642-6.85-3.15-1.842-6.75-3.4-10.791-4.684-4.042-1.279-8.184-2.596-12.421-3.946-4.238-1.345-8.379-2.904-12.421-4.679s-7.642-4.075-10.796-6.9c-3.154-2.829-5.7-6.358-7.641-10.6-1.938-4.237-2.905-9.479-2.905-15.721 0-4.995 0.967-9.825 2.905-14.491 1.941-4.667 4.75-8.804 8.429-12.421 3.683-3.613 8.233-6.508 13.654-8.675 5.425-2.171 11.65-3.254 18.679-3.254 7.888 0 15.088 1.25 21.592 3.746 6.504 2.5 12.191 6.112 17.054 10.845z"/>
       <path d="m2274.1 408.04h27.942c15.458 0 24.77 10.7 27.945 32.104 0 15.263-10.208 25.171-30.62 29.729h-17.834c-22.796 0-37.858 12.588-45.187 37.75l-0.892 22.296v6.542h39.242l17.833-0.892c14.467 0 23.979 9.808 28.538 29.429v4.163c0 14.266-9.413 23.683-28.238 28.237h-57.375v213.74l0.892 12.487c0 15.063-10.109 24.867-30.321 29.429-15.063 0-25.863-8.92-32.404-26.754l1.191-15.162v-213.74h-49.941c-15.459 0-24.775-10.7-27.942-32.104 0-11.692 8.421-21.596 25.267-29.725l24.375 0.892h27.05v-11.296c0-54.3 24.179-91.658 72.537-112.07z"/>
       <path d="m2407 689.85v3.271c0 40.625 20.408 71.15 61.237 91.558 12.68 4.755 24.08 7.134 34.184 7.134h8.621c33.691 0 61.537-16.946 83.533-50.834 7.925-15.854 11.892-31.012 11.892-45.483v-4.458c0-39.038-19.325-68.967-57.967-89.775-13.283-5.946-27.154-8.917-41.617-8.917h-1.191c-41.021 0-71.938 21.404-92.746 64.208-3.967 13.08-5.946 24.184-5.946 33.296m199.77 129.31c-24.184 22.591-56.092 33.887-95.725 33.887h-8.621c-54.696 0-100.28-27.35-136.74-82.046-13.279-26.554-19.917-53.212-19.917-79.966 0-59.846 29.33-107.31 87.992-142.39 24.971-11.692 49.346-17.537 73.129-17.537 60.838 0 108.99 29.725 144.47 89.179 10.896 24.375 16.35 49.45 16.35 75.208v128.72c0 15.854-9.712 25.462-29.133 28.833h-2.079c-13.48 0-23.488-7.929-30.025-23.779v-3.271z"/>
       <path d="m2765.8 529.03c19.621 4.954 29.429 14.266 29.429 27.941v266.95c0 16.05-9.913 25.759-29.725 29.134h-1.783c-16.255 0-26.263-10.109-30.025-30.325v-259.81c2.379-22.591 13.079-33.887 32.104-33.887m0-76.1c19.621 4.954 29.429 14.266 29.429 27.941v6.542c0 15.658-10.604 24.971-31.808 27.942-15.263 0-25.267-10.404-30.021-31.213 4.162-20.808 14.958-31.212 32.4-31.212"/>
       <path d="m2893 528.73c19.421 4.954 29.134 14.271 29.134 27.942v4.758c24.57-21.8 56.579-32.7 96.016-32.7 21.204 0 44.192 5.35 68.971 16.05 8.513 8.725 12.779 17.146 12.779 25.271v2.079c-3.371 19.425-13.375 29.134-30.025 29.134h-2.675c-20.412-6.542-35.279-9.809-44.591-9.809h-6.538c-40.033 0-69.367 20.809-87.992 62.425-3.966 10.9-5.945 23.588-5.945 38.05v131.99c0 16.054-9.913 25.762-29.725 29.133h-1.788c-16.25 0-26.262-10.108-30.021-30.321v-259.81c2.375-22.788 13.175-34.188 32.4-34.188"/>
       <path d="m2306.2 1234c-0.2-3.962-4.266-6.337-12.187-7.133-100.28-22.392-153.79-36.663-160.52-42.808-20.417-15.459-30.621-34.58-30.621-57.371 0-30.917 21.6-60.246 64.804-87.992 23.784-12.487 47.267-18.729 70.454-18.729 54.3 0 97.209 25.071 128.72 75.208l1.192 11v1.784c0 16.845-10.109 26.754-30.325 29.725-13.479 0-25.963-9.509-37.454-28.538-18.034-17.633-38.746-26.454-62.13-26.454-30.52 0-54.4 14.267-71.641 42.804l-0.596 2.975c0 3.967 8.521 6.642 25.567 8.025 85.212 20.613 132.28 32.6 141.2 35.971 24.375 16.05 36.562 36.367 36.562 60.937v0.892c0 33.892-23.983 64.508-71.937 91.858-20.813 9.313-42.713 13.971-65.7 13.971-47.563 0-87.692-22.191-120.39-66.587-4.162-5.946-6.242-11.692-6.242-17.242v-6.542c0-16.05 10.896-25.266 32.7-27.645 10.5 0 22.888 10.212 37.159 30.62 17.433 16.25 37.85 24.375 61.233 24.375 27.746 0 50.733-12.979 68.971-38.941z"/>
       <path d="m2435.5 1023.2c14.862 0 24.375 6.542 28.537 19.621 16.054-13.079 39.338-19.621 69.858-19.621 40.43 0 73.025 15.063 97.8 45.184 8.521-15.85 32.405-29.725 71.642-41.617l26.163-3.567c49.345 0 88.187 23.388 116.53 70.159 9.512 19.616 14.266 38.446 14.266 56.479v162.9c0 14.467-9.612 23.579-28.833 27.346h-2.675c-19.225-3.371-28.837-13.275-28.837-29.725v-158.15c0-31.708-16.646-53.608-49.942-65.7l-13.671-1.783h-10.404c-26.363 0-46.575 15.458-60.646 46.375-1.783 6.541-2.675 12.091-2.675 16.646v162.61c-3.567 19.821-13.375 29.725-29.429 29.725h-2.079c-19.229-3.371-28.838-12.879-28.838-28.538v-134.36c0-34.679-4.262-55.988-12.783-63.917-14.267-19.025-32.504-28.537-54.696-28.537h-3.271c-30.521 0-52.021 16.454-64.504 49.346-1.983 7.929-2.975 18.729-2.975 32.404v145.07c0 15.659-9.612 25.167-28.833 28.538h-1.784c-16.054 0-25.966-9.904-29.729-29.725v-253.57c2.179-22.392 12.784-33.592 31.809-33.592"/>
       <path d="m2958.7 1176.9v3.271c0 40.625 20.408 71.15 61.237 91.558 12.679 4.755 24.079 7.134 34.188 7.134h8.62c33.688 0 61.534-16.946 83.534-50.834 7.925-15.854 11.892-31.012 11.892-45.483v-4.458c0-39.038-19.325-68.967-57.971-89.775-13.279-5.946-27.15-8.917-41.617-8.917h-1.192c-41.02 0-71.937 21.404-92.745 64.208-3.967 13.08-5.946 24.184-5.946 33.296m199.76 129.31c-24.179 22.591-56.083 33.887-95.717 33.887h-8.62c-54.7 0-100.28-27.35-136.75-82.046-13.279-26.554-19.917-53.212-19.917-79.966 0-59.846 29.325-107.31 87.992-142.39 24.971-11.692 49.346-17.537 73.129-17.537 60.838 0 109 29.725 144.47 89.179 10.896 24.375 16.35 49.45 16.35 75.208v128.72c0 15.858-9.708 25.462-29.129 28.833h-2.084c-13.479 0-23.483-7.929-30.021-23.779v-3.271z"/>
       <path d="m3316.6 1015.8c19.416 4.959 29.133 14.271 29.133 27.942v4.758c24.571-21.8 56.575-32.7 96.017-32.7 21.204 0 44.192 5.35 68.967 16.054 8.516 8.721 12.783 17.142 12.783 25.267v2.079c-3.375 19.425-13.379 29.134-30.025 29.134h-2.675c-20.413-6.542-35.279-9.809-44.592-9.809h-6.537c-40.034 0-69.367 20.809-87.992 62.425-3.967 10.9-5.946 23.588-5.946 38.05v131.99c0 16.054-9.912 25.762-29.729 29.133h-1.783c-16.25 0-26.263-10.108-30.021-30.321v-259.81c2.375-22.788 13.175-34.188 32.4-34.188"/>
       <path d="m3615.1 909.06h5.05c18.433 3.967 27.646 12.783 27.646 26.458v89.18h35.379l9.808-1.188c15.258 0 25.267 9.908 30.025 29.725 0 14.863-8.725 25.467-26.162 31.808l-17.834-1.187h-31.216v151.31c0 23.779 6.737 37.95 20.216 42.509l23.484 2.083h11.891c14.467 0 23.584 9.612 27.35 28.833v2.675c-3.371 19.225-13.279 28.838-29.725 28.838h-22.891c-38.45 0-66.988-20.813-85.613-62.429-3.375-10.5-5.054-22.492-5.054-35.971v-157.85h-12.488l-19.025 1.187c-17.441-6.141-26.158-16.65-26.158-31.512 3.367-19.217 9.908-28.833 19.621-28.833v-2.084l20.508 2.084h17.542v-83.238c2.375-21.596 11.592-32.4 27.646-32.4"/>
      </g>
     </g>
     <g fill-rule="nonzero">
      <path d="m333.2 1421.1h302.25v-109.99h-192.26v-874.1h192.26v-109.99h-302.25v1094.1z" fill="#e85624"/>
      <path d="m1586.6 327.03v109.99h192.26v874.1h-192.26v109.99h302.25v-1094.1h-302.25z" fill="#e85624"/>
      <path d="m1258.6 1196c-28.7 22.771-62.313 42.592-99.896 58.921-38.125 16.55-86.121 24.942-142.65 24.942-57.808 0-108.74-18.034-151.39-53.596-20.383-16.271-37.096-36.884-49.466-61.104-12.425-24.334-18.734-50.842-18.734-78.792 0-27.338 3.629-52.058 10.779-73.483 20.221-57.65 58.488-104.65 113.8-139.85l7.975-5.075 340.65 319.26zm248.38 83.746-0.388-0.35-104.82-100.14 6.158-8.604c61.654-86.075 74.6-127.26 74.6-146.65 0-10.154-4.467-19.371-13.663-28.192-9.341-8.941-19.637-13.287-31.458-13.287-12.45 0-22.867 2.729-30.954 8.112-5.633 3.75-14.746 13.475-26.125 38.421-10.325 22.634-24.046 47.083-40.779 72.683l-7.959 12.188-313.74-295.73c-59.2-54.25-96.375-93.442-113.52-119.68-12.033-17.017-21.125-34.721-26.779-52.23-5.763-17.775-8.563-41.304-8.563-71.912 0-32.296 14.429-62.579 42.892-90.008 14.762-13.688 32.612-24.734 53.237-32.988 21.005-8.404 49.046-12.483 85.75-12.483 22.73 0 43.096 3.45 60.559 10.254 22.391 6.546 79.179 42.246 87.754 72.021 8.058 27.966-17.617 61.379-40.583 84.475-16.975 17.079-16.884 44.8 0.195 61.787 16.55 16.45 45.35 16.354 61.788-0.192 71.167-71.595 73.487-131.7 62.742-169.68-12.088-29.971-29.58-54.633-53.455-75.383-2.895-2.938-5.491-5.063-8.5-7.054-20.42-15.834-41.266-28.225-64.483-38.413-41.837-18.362-93.592-26.579-126.32-26.579-78.458 0-142.41 24.175-190.1 71.854-21.966 21.963-39.12 47.929-50.995 77.192-11.921 29.341-17.967 63.666-17.967 102.02 0 37.937 8.05 72.108 23.929 101.56 16.454 30.588 37.246 61.421 61.817 91.65l8.862 10.904-12.041 7.225c-37.109 22.259-71.067 53.888-100.93 94-37.816 52.567-57.05 111.18-57.05 174.04 0 77.521 26.121 142.94 77.65 194.45 61.15 61.15 150.49 92.158 265.52 92.158 106.71 0 204.09-37.079 289.42-110.2l8.375-7.171 105.15 100.44c10.171 9.396 22.65 14.029 38.004 14.029 14.712 0 25.662-4.512 33.471-13.791 8.316-9.909 12.366-21.346 12.366-34.946 0-12.846-6.237-24.559-19.066-35.8" fill="#42bdd8"/>
      <path d="m3408.6 795.1c-11.654 9.25-24.967 17.304-39.492 24.221v0.275l-7.521 3.266c-18.995 8.221-41.875 12.059-68.129 12.071-14.091 4e-3 -27.587-2.208-40.2-6.675-12.529-4.429-24.15-11.096-34.612-19.787l-0.01 8e-3c-0.029-0.025-0.054-0.054-0.083-0.075-0.037-0.033-0.083-0.063-0.121-0.096l0.01-8e-3c-10.355-8.309-18.834-18.813-25.034-30.959-6.404-12.52-9.671-26.316-9.658-40.566 0-13.204 1.737-25.463 5.412-36.488l0.034-0.096 0.029-0.083c4.937-14.087 12.141-26.987 21.462-38.437 9.321-11.455 20.734-21.446 34-29.888l11.713-7.45 168.46 157.88zm93.95 36.683-0.079-0.067-0.088-0.079-0.287-0.262-54.358-51.934 9.041-12.633c13.338-18.617 21.209-32.142 25.579-41.533 4.409-9.384 5.155-14.613 5.109-16.113-0.017-0.408-0.034-0.529-0.25-1.008-0.221-0.463-0.75-1.292-1.946-2.442-1.15-1.096-2.029-1.625-2.767-1.941-0.754-0.305-1.425-0.463-2.512-0.471-3.696 8e-3 -5.7 0.787-6.738 1.475l-0.266 0.25c-0.296 0.296-0.792 0.846-1.442 1.737-1.304 1.771-3.204 4.892-5.45 9.829-4.9 10.725-11.275 22.059-18.963 33.821l-11.691 17.904-149.74-141.14c-13.2-12.104-24.025-22.588-32.633-31.663-8.484-8.958-14.792-16.466-19.275-23.233v4e-3c-0.046-0.062-0.088-0.133-0.134-0.196-0.037-0.062-0.087-0.125-0.125-0.183v-4e-3c-5.837-8.334-10.379-17.109-13.287-26.109v9e-3 -0.017 8e-3c-3.158-9.825-4.379-21.375-4.4-35.679-0.01-9.016 2.058-17.891 5.987-26.112 3.921-8.229 9.638-15.809 16.825-22.738l0.1-0.096 0.08-0.07c7.762-7.2 17.033-12.888 27.42-17.042 11.596-4.6 25.446-6.396 42.609-6.421 10.921 0 21.104 1.633 30.312 5.05l0.01-8e-3c0.179 0.05 0.345 0.129 0.524 0.183 0.163 0.063 0.342 0.104 0.505 0.167l-0.01 8e-3c2.267 0.742 4.48 1.646 6.846 2.779 2.704 1.304 5.559 2.867 8.496 4.65 5.863 3.567 12.021 7.975 17.488 13.046 3.641 3.4 6.995 7.063 9.712 11.35 1.542 2.458 2.892 5.146 3.788 8.238 0.804 2.787 1.158 5.612 1.158 8.333 0 4.629-0.992 8.929-2.429 12.867-1.45 3.941-3.363 7.562-5.504 10.945-4.288 6.759-9.492 12.634-14.338 17.525-1.333 1.346-1.962 3.021-1.975 4.817 0.013 1.813 0.654 3.504 2.008 4.858 1.026 1.05 2.805 1.805 4.817 1.8 2.034 5e-3 3.834-0.766 4.859-1.833 10.737-10.8 17.266-20.575 21.129-29.075 3.854-8.512 5.104-15.767 5.116-21.996 0-4.183-0.595-7.904-1.475-11.191-4.675-11.28-11.033-20.159-19.995-27.984l-0.363-0.312-0.338-0.346c-0.795-0.792-1.091-1.017-1.762-1.475l-0.392-0.258-0.366-0.288c-8.284-6.412-16.529-11.312-25.909-15.433-8.154-3.588-17.729-6.338-26.85-8.113-9.108-1.787-17.829-2.612-24.05-2.604-16.091 4e-3 -30.308 2.475-42.77 7.183-12.463 4.721-23.217 11.65-32.55 20.971-8.538 8.538-15.18 18.575-19.834 30.038-4.554 11.196-7.037 24.783-7.033 40.462 0.01 15.042 3.158 28.004 9.096 39.025v0.013c6.862 12.758 15.629 25.779 26.058 38.612l13.017 16.013-17.696 10.616c-14.796 8.871-28.633 21.663-41.008 38.263-15.284 21.337-22.821 44.437-22.859 69.679 0.01 15.763 2.638 29.938 7.742 42.725 5.113 12.783 12.692 24.233 22.971 34.521 12.129 12.117 27.029 21.304 45.091 27.583 18.046 6.267 39.276 9.559 63.621 9.554 22.175-4e-3 43.188-3.833 63.167-11.433 19.967-7.608 38.925-19.008 56.829-34.346l12.296-10.533 54.588 52.146c1.133 1.033 2.149 1.646 3.391 2.112 1.246 0.459 2.788 0.767 4.938 0.771 1.991 0 3.145-0.304 3.791-0.571 0.646-0.287 0.925-0.479 1.459-1.079 0.95-1.15 1.504-2.142 1.9-3.25 0.391-1.112 0.637-2.404 0.641-4.175-0.021-0.812-0.116-1.321-0.625-2.317-0.508-0.966-1.566-2.395-3.554-4.133" fill="#58595b"/>
     </g>
     <g fill="#fff" fill-rule="nonzero">
      <path d="m3184.8 572.88v-9e-3 -4e-3z"/>
      <path d="m3502.3 687.43 0.225 0.213v4e-3z"/>
      <path d="m3220.2 545.8v-0.013-4e-3z"/>
     </g>
    </g>
   </g>
  </g>
 </g>
</svg>
