<?xml version="1.0" encoding="UTF-8" standalone="no"?>
<svg
   xmlns:dc="http://purl.org/dc/elements/1.1/"
   xmlns:cc="http://creativecommons.org/ns#"
   xmlns:rdf="http://www.w3.org/1999/02/22-rdf-syntax-ns#"
   xmlns:svg="http://www.w3.org/2000/svg"
   xmlns="http://www.w3.org/2000/svg"
   xmlns:sodipodi="http://sodipodi.sourceforge.net/DTD/sodipodi-0.dtd"
   xmlns:inkscape="http://www.inkscape.org/namespaces/inkscape"
   id="Groupe_9"
   data-name="Groupe 9"
   width="148.40297"
   height="41.00927"
   viewBox="0 0 148.40297 41.00927"
   version="1.1"
   sodipodi:docname="powered_white.svg"
   inkscape:version="1.0.1 (3bc2e813f5, 2020-09-07)">
  <metadata
     id="metadata11">
    <rdf:RDF>
      <cc:Work
         rdf:about="">
        <dc:format>image/svg+xml</dc:format>
        <dc:type
           rdf:resource="http://purl.org/dc/dcmitype/StillImage" />
        <dc:title></dc:title>
      </cc:Work>
    </rdf:RDF>
  </metadata>
  <sodipodi:namedview
     pagecolor="#ffffff"
     bordercolor="#666666"
     borderopacity="1"
     objecttolerance="10"
     gridtolerance="10"
     guidetolerance="10"
     inkscape:pageopacity="0"
     inkscape:pageshadow="2"
     inkscape:window-width="1757"
     inkscape:window-height="756"
     id="namedview9"
     showgrid="false"
     fit-margin-top="0"
     fit-margin-left="0"
     fit-margin-right="0"
     fit-margin-bottom="0"
     inkscape:zoom="5.344482"
     inkscape:cx="-9.4130308"
     inkscape:cy="46.346541"
     inkscape:window-x="0"
     inkscape:window-y="0"
     inkscape:window-maximized="0"
     inkscape:current-layer="layer1" />
  <defs
     id="defs4">
    <style
       id="style2">
      .cls-1 {
        font-size: 26.345px;
        fill: #f4f3f4;
        font-family: &quot;Wolesbro One&quot;;
      }
    </style>
  </defs>
  <g
     inkscape:groupmode="layer"
     id="layer1"
     inkscape:label="Layer 1"
     transform="translate(-1.7647252,-2.590879)">
    <g
       id="g1449"
       transform="translate(-2.6195242,-39.667081)">
      <path
         d="m 10.073859,55.060976 c -0.9698201,0 -1.8620736,0.56898 -2.4439547,1.318948 0.077588,-0.297412 0.478438,-1.396514 0.478438,-1.590511 0,-0.323273 -0.5818811,-0.504304 -0.9698198,-0.504304 -0.336201,0 -0.3749948,0.09052 -0.4396495,0.28448 -0.6853565,2.094825 -1.0603406,3.620671 -1.3965146,5.159417 -0.1034486,-0.374995 0.025855,-0.995675 -0.7112119,-0.995675 -0.1551755,0 -0.2068971,0.05172 -0.2068971,0.116376 0.025855,0.711212 0.1034485,1.474135 0.6595011,2.159438 -0.2586186,1.448279 -0.4655156,2.624996 -0.6077365,3.801659 0,0.362061 0.7370673,0.504304 1.0344852,0.504304 0.4137886,0 0.4396494,-0.09052 0.4784433,-0.362067 0.1034485,-0.840489 0.2844794,-1.706887 0.6206911,-3.155113 0.2327578,0.06466 0.4913764,0.09052 0.7499681,0.09052 2.4180453,0 4.6033923,-2.314623 4.6033923,-4.771478 0,-1.241383 -0.620692,-2.056016 -1.849119,-2.056016 z m 0.284479,4.254263 c -0.7112118,1.163762 -2.3017227,2.249958 -3.6465265,1.965495 0.2715517,-1.021531 0.5560257,-1.90083 0.9827743,-2.883604 0.5301649,-1.228428 1.4353247,-2.754273 2.5473762,-2.754273 1.189617,0 0.801733,2.547376 0.116376,3.672382 z"
         id="path959"
         style="fill:#ffffff;stroke-width:0.323273" />
      <path
         d="m 15.492207,62.05645 c 0.323273,-0.659501 0.568926,-1.357759 0.568926,-2.094826 0,-0.749968 -0.465505,-1.293093 -1.357758,-1.293093 -0.943965,0 -1.318949,0.659501 -1.383614,1.396515 -0.206892,-0.103449 -0.452577,-0.168103 -0.698257,-0.168103 -0.672402,0 -0.827589,1.241382 -0.827589,1.900829 0,1.150862 0.762923,1.965495 1.965495,1.965495 0.659501,0 1.228428,-0.659501 1.487036,-1.202572 0.853443,0.181031 2.185293,-0.245686 2.650851,-1.448279 0.05171,-0.142243 -0.116381,-0.452583 -0.336206,-0.452583 -0.258619,0.323273 -0.905154,1.49999 -2.068917,1.396515 z m -1.189672,-1.95254 c 0.03881,-0.336207 0.297407,-1.034486 0.672402,-1.034486 0.530165,0 0.142237,1.887929 -0.323273,2.676707 -0.387923,-0.387928 -0.387923,-0.775877 -0.387923,-1.189617 0,-0.15517 0.01295,-0.310341 0.03881,-0.452583 z m 0.09052,2.198247 c -0.09052,0.232758 -0.452583,0.749968 -0.943964,0.749968 -0.452578,0 -0.181031,-1.849119 -0.05171,-1.99135 0.116381,0.491376 0.556026,0.982774 0.995675,1.241382 z"
         id="path961"
         style="fill:#ffffff;stroke-width:0.323273" />
      <path
         d="m 25.372091,60.207331 c -0.07759,0.543071 -0.892254,1.409469 -1.228428,1.396515 -0.400861,0 -0.284485,-2.107727 -0.284485,-2.133582 0,-0.452583 -0.620691,-0.219825 -1.02153,-0.129309 0,0.737067 -0.788778,3.737047 -1.474135,3.737047 -0.387928,0 0.168103,-2.99998 0.491377,-3.465485 0,-0.297412 -0.568981,-0.478443 -0.905155,-0.478443 -0.931009,0 -1.267237,3.801659 -2.46981,3.801659 -0.374994,0 0.698258,-2.94827 0.956866,-3.387919 0,-0.271552 -0.543125,-0.452583 -0.892254,-0.452583 -0.478443,0 -0.646546,0.504305 -0.788778,0.879299 -0.31034,0.840489 -0.749968,2.004305 -0.749968,2.87065 0,0.685356 0.918109,0.995675 1.448279,0.995675 0.762923,0 1.073241,-0.801733 1.422424,-1.331903 0,0.96982 0.724113,1.396514 1.642222,1.396514 0.879299,0 1.357758,-1.357758 1.681031,-2.224102 0.258619,0.323273 0.724113,0.491371 1.176717,0.491371 0.724113,0 1.616366,-0.943965 1.616366,-1.603412 0,-0.181031 -0.168103,-0.504304 -0.620691,-0.362062 z"
         id="path963"
         style="fill:#ffffff;stroke-width:0.323273" />
      <path
         d="m 28.694054,60.776043 c -0.336206,0.827588 -1.293093,2.534475 -2.288768,2.534475 -0.349134,0 -0.271552,-1.46118 -0.129309,-1.655176 0.879299,0 1.525845,-1.293093 1.525845,-1.797408 0,-0.633592 -0.620691,-0.879299 -1.112051,-0.879299 -1.280139,0 -1.965495,2.353433 -1.965495,3.336154 0,1.034485 0.775877,1.603412 1.913784,1.603412 1.538746,-0.03879 2.275813,-2.249959 2.340479,-2.46981 0.129309,-0.400856 -0.142242,-0.672402 -0.28448,-0.672402 z m -1.603412,-1.241382 c 0.116377,0.581881 -0.271546,1.318948 -0.724112,1.59051 0.142242,-0.517237 0.375,-1.202572 0.724112,-1.59051 z"
         id="path965"
         style="fill:#ffffff;stroke-width:0.323273" />
      <path
         d="m 33.392106,60.918489 c -0.271547,0.724113 -1.409469,2.508566 -2.211202,2.508566 -0.646547,0 0.827588,-3.025835 0.827588,-3.439629 0,-0.374995 -0.349134,-0.413789 -0.620691,-0.43965 -0.620691,-0.05172 -1.590511,0.336201 -1.590511,-0.09051 0,-0.297413 0.258619,-0.517237 0.258619,-0.698257 0,-0.206897 -0.413789,-0.297413 -0.556026,-0.310341 h -0.116376 c -0.349134,0 -0.620691,0.465511 -0.620691,0.814634 0,0.698257 0.711211,1.125006 1.771552,0.918109 -0.349134,0.801733 -0.905154,1.719788 -0.905154,2.624996 0,0.879299 0.840489,1.241382 1.590511,1.241382 1.396514,0 2.211201,-1.758598 2.392243,-2.172392 0.219825,-0.530165 0.219825,-0.853443 -0.219825,-0.956865 z"
         id="path967"
         style="fill:#ffffff;stroke-width:0.323273" />
      <path
         d="m 36.832327,60.776043 c -0.336201,0.827588 -1.293093,2.534475 -2.288769,2.534475 -0.349134,0 -0.271551,-1.46118 -0.129309,-1.655176 0.879299,0 1.525846,-1.293093 1.525846,-1.797408 0,-0.633592 -0.620692,-0.879299 -1.112052,-0.879299 -1.280138,0 -1.965495,2.353433 -1.965495,3.336154 0,1.034485 0.775878,1.603412 1.913784,1.603412 1.538747,-0.03879 2.275814,-2.249959 2.340479,-2.46981 0.12931,-0.400856 -0.142242,-0.672402 -0.284479,-0.672402 z m -1.603412,-1.241382 c 0.116371,0.581881 -0.271552,1.318948 -0.724113,1.59051 0.142243,-0.517237 0.375,-1.202572 0.724113,-1.59051 z"
         id="path969"
         style="fill:#ffffff;stroke-width:0.323273" />
      <path
         d="m 42.272176,54.970132 c -0.193964,-0.271546 -0.995675,-0.3362 -0.956865,-0.3362 -0.452583,0 -0.491377,0.439649 -0.594836,0.737067 -0.413783,1.267237 -0.749968,2.573231 -1.034485,3.879279 -0.245691,-0.297407 -0.620691,-0.426717 -1.00863,-0.426717 -1.693932,0 -2.301723,2.741373 -2.301723,3.982701 0,0.711212 0.530165,1.241382 1.46118,1.241382 0.581881,0 0.982721,-0.31034 1.280139,-0.749968 0.02585,0.452583 0.168098,1.086196 0.400855,1.370659 0.362068,0.43965 1.034486,0.155171 1.318949,-0.07759 -0.116376,-0.297407 -0.15517,-0.866345 -0.15517,-1.357759 0,-0.530165 0.06465,-1.06034 0.142242,-1.603411 0.336201,-2.340479 0.788778,-4.551681 1.448279,-6.659515 z m -4.474061,8.301683 c -0.206897,0 -0.297413,-0.232757 -0.297413,-0.594835 0,-1.099151 0.814634,-3.323254 1.396515,-3.323254 0.219825,0 0.142242,0.620691 0.349134,0.724113 0.05171,0.03879 0.232753,0.05172 0.232753,0.129309 -0.09052,1.616367 -1.021531,3.064646 -1.681032,3.064646 z"
         id="path971"
         style="fill:#ffffff;stroke-width:0.323273" />
      <path
         d="m 48.727965,59.650983 c -0.168103,-0.297412 -0.400861,-0.46551 -0.672402,-0.46551 -0.336195,0 -0.724112,0.271551 -1.06034,0.879299 0.232758,-1.44828 0.465515,-2.896505 0.724113,-4.344784 l 0.06465,-0.413789 c 0.01295,-0.05172 0.02586,-0.129309 0.02586,-0.206897 0,-0.413789 -0.853444,-0.478443 -0.96982,-0.478443 -0.15517,0 -0.297407,0.03879 -0.323273,0.15517 -0.620692,2.586186 -1.228428,5.275793 -1.487036,7.926484 -0.01295,0.142242 -0.03881,0.297412 -0.03881,0.439649 0,0.543071 0.491371,0.762923 1.00863,0.762923 0.517259,0 0.504309,-0.413789 0.543125,-0.749968 0.206891,0.142242 0.478443,0.232758 0.724113,0.232758 1.525845,0 1.629267,-2.94827 1.629267,-2.935315 0,-0.28448 -0.02586,-0.56898 -0.168104,-0.801733 z m -1.693932,3.168067 c -0.103449,-0.03879 -0.271552,-0.15517 -0.426717,-0.15517 0.03881,-0.271546 0.06466,-0.581881 0.155165,-0.840489 0.181036,-0.56898 0.93101,-2.120681 1.318949,-1.939639 0.594835,0.258618 -0.517238,3.142211 -1.047386,2.935314 z"
         id="path973"
         style="fill:#ffffff;stroke-width:0.323273" />
      <path
         d="m 52.721847,63.246014 c 0.491371,-3.051691 0.607736,-3.594762 0.607736,-3.685283 0,-0.413789 -0.646546,-0.452583 -0.892253,-0.452583 -0.323274,0 -0.349134,0.374995 -0.452583,0.620691 -0.336201,0.801733 -1.02153,2.767228 -1.874974,2.767228 -0.336206,0 0.232752,-2.120681 0.607737,-2.586186 0.06465,-0.07759 -0.28448,-0.232758 -0.556026,-0.232758 -0.594836,0 -1.00863,2.314624 -1.00863,2.805984 0,0.556026 0.323273,0.853444 0.840489,0.853444 0.530165,0 1.163762,-0.387928 1.668077,-1.305994 -0.06466,0.181031 -0.142237,0.788778 -0.297407,1.46118 -1.745697,0.659501 -3.762903,1.810309 -3.762903,4.021511 0,1.176716 0.827588,2.211202 2.379289,2.211202 1.797408,0 2.301723,-3.879279 2.508566,-5.159418 l 0.03881,-0.426716 c 0.491371,-0.181031 1.00863,-0.103449 1.280139,-0.02586 0.05171,-0.193964 0.05171,-0.43965 0.02585,-0.517237 -0.181031,-0.426722 -0.905154,-0.349134 -1.112051,-0.349134 z m -1.525846,1.163762 c -0.387928,2.159437 -0.827588,3.43963 -1.525845,4.435305 -0.504304,0.749968 -1.047386,-0.323274 -1.047386,-1.137907 0,-2.120681 1.512891,-2.805984 2.573231,-3.297398 z"
         id="path975"
         style="fill:#ffffff;stroke-width:0.323273" />
      <path
         d="m 69.230971,81.349764 h 0.623313 c 0.149924,0 0.282229,-0.01993 0.396995,-0.05965 0.114657,-0.03964 0.210868,-0.0952 0.288525,-0.166666 0.07766,-0.07125 0.1364,-0.156687 0.176149,-0.255977 0.03975,-0.09943 0.05968,-0.208697 0.05968,-0.327944 0,-0.247511 -0.07639,-0.440731 -0.228956,-0.57988 -0.152811,-0.139067 -0.383471,-0.208696 -0.692392,-0.208696 h -0.623313 z m 0,0.417283 v 1.452545 h -0.522978 v -3.883368 h 1.146291 c 0.245696,0 0.459313,0.02851 0.64085,0.08544 0.181537,0.05693 0.33193,0.137775 0.451149,0.242481 0.119248,0.104788 0.208229,0.231237 0.267001,0.379348 0.05863,0.148193 0.08796,0.313484 0.08796,0.495928 0,0.18063 -0.03161,0.345922 -0.09473,0.495956 -0.06333,0.149925 -0.15589,0.279014 -0.277858,0.387485 -0.121886,0.108362 -0.273296,0.19289 -0.453926,0.253366 -0.18063,0.06048 -0.387484,0.09071 -0.620453,0.09071 z"
         id="path979"
         style="clip-rule:evenodd;fill:#ffffff;fill-rule:nonzero;stroke-width:0.027489;stroke-linejoin:round;stroke-miterlimit:1.4142" />
      <path
         d="m 74.357941,79.337571 v 0.42814 h -1.86433 v 1.289921 h 1.509364 v 0.411867 h -1.509364 v 1.325107 h 1.86433 v 0.42825 h -2.392806 v -3.883368 z"
         id="path981"
         style="clip-rule:evenodd;fill:#ffffff;fill-rule:nonzero;stroke-width:0.027489;stroke-linejoin:round;stroke-miterlimit:1.4142" />
      <path
         d="m 75.691156,81.217817 h 0.550137 c 0.153471,0 0.288497,-0.01855 0.405105,-0.05555 0.116499,-0.037 0.214084,-0.08945 0.292648,-0.157127 0.07856,-0.06782 0.137775,-0.148688 0.177524,-0.242591 0.03964,-0.09393 0.05957,-0.19781 0.05957,-0.31167 0,-0.231237 -0.07628,-0.405462 -0.228955,-0.522978 -0.152674,-0.117405 -0.379816,-0.176039 -0.681507,-0.176039 h -0.57452 z m 0,0.382097 v 1.620475 h -0.522978 v -3.883368 h 1.097498 c 0.245696,0 0.457911,0.02499 0.636727,0.07458 0.178898,0.0497 0.326652,0.121529 0.443122,0.215432 0.116499,0.09404 0.202732,0.207321 0.258754,0.340066 0.05599,0.132881 0.08406,0.281432 0.08406,0.445789 0,0.137334 -0.02163,0.265598 -0.06504,0.384845 -0.04343,0.11922 -0.10619,0.226207 -0.1883,0.321044 -0.08225,0.09495 -0.182582,0.17582 -0.300894,0.24259 -0.118313,0.06688 -0.252459,0.117406 -0.402384,0.151767 0.06507,0.03791 0.122903,0.093 0.173428,0.165264 l 1.132766,1.541912 H 77.57176 c -0.09577,0 -0.166199,-0.037 -0.211336,-0.111111 L 76.352376,81.7218 c -0.03068,-0.04341 -0.06413,-0.07455 -0.100335,-0.09357 -0.03607,-0.01899 -0.09036,-0.0284 -0.162515,-0.0284 z"
         id="path983"
         style="clip-rule:evenodd;fill:#ffffff;fill-rule:nonzero;stroke-width:0.027489;stroke-linejoin:round;stroke-miterlimit:1.4142" />
      <path
         d="m 80.591892,79.945077 c -0.01625,0.02716 -0.03343,0.04742 -0.05154,0.06094 -0.01798,0.01363 -0.04145,0.02037 -0.07043,0.02037 -0.0307,0 -0.06633,-0.01534 -0.106987,-0.04604 -0.04066,-0.03068 -0.0922,-0.0646 -0.154516,-0.101709 -0.06229,-0.03697 -0.137197,-0.07078 -0.224832,-0.101572 -0.08772,-0.0307 -0.193797,-0.04604 -0.318405,-0.04604 -0.117515,0 -0.221396,0.01581 -0.31167,0.04742 -0.09036,0.03161 -0.165731,0.07455 -0.226317,0.128731 -0.06048,0.05418 -0.106052,0.117845 -0.136757,0.191048 -0.03082,0.07318 -0.04615,0.152207 -0.04615,0.237093 0,0.108361 0.02669,0.19825 0.07994,0.269612 0.05327,0.07147 0.123701,0.132304 0.211446,0.182911 0.08761,0.05063 0.186925,0.09451 0.298035,0.131507 0.111083,0.037 0.224943,0.07535 0.341413,0.115097 0.116609,0.03975 0.230358,0.08453 0.341441,0.134119 0.11111,0.04973 0.210538,0.112484 0.298145,0.188437 0.08764,0.07581 0.158062,0.168919 0.211336,0.279013 0.05325,0.110175 0.07994,0.245669 0.07994,0.406479 0,0.169855 -0.02886,0.329291 -0.0867,0.478308 -0.05784,0.149018 -0.142255,0.278684 -0.253365,0.38886 -0.111111,0.110175 -0.247511,0.197013 -0.409229,0.2601 -0.161635,0.06323 -0.345454,0.09484 -0.551401,0.09484 -0.251167,0 -0.480123,-0.04558 -0.686977,-0.136757 -0.206855,-0.09126 -0.383472,-0.214524 -0.529741,-0.369947 l 0.151767,-0.249243 c 0.01443,-0.01993 0.03205,-0.03664 0.05278,-0.05017 0.02075,-0.0135 0.04376,-0.02026 0.06908,-0.02026 0.03802,0 0.08131,0.02026 0.130105,0.06094 0.04879,0.04066 0.109736,0.08532 0.182912,0.134118 0.0732,0.04879 0.161745,0.09346 0.265626,0.134119 0.103771,0.04066 0.230687,0.06094 0.380722,0.06094 0.124608,0 0.235718,-0.01707 0.333304,-0.05143 0.09759,-0.03425 0.180163,-0.08271 0.247978,-0.145004 0.06768,-0.06232 0.119577,-0.136758 0.155753,-0.223595 0.03609,-0.0867 0.05418,-0.183352 0.05418,-0.290009 0,-0.117268 -0.02669,-0.21348 -0.07994,-0.288497 -0.05327,-0.07491 -0.123233,-0.137692 -0.20996,-0.1883 -0.0867,-0.05063 -0.185661,-0.09346 -0.296744,-0.128758 -0.11111,-0.03516 -0.22497,-0.07136 -0.341441,-0.108471 -0.116498,-0.03697 -0.23033,-0.07983 -0.34144,-0.128621 -0.111111,-0.04879 -0.210071,-0.112018 -0.296771,-0.189674 -0.0867,-0.07777 -0.156687,-0.174775 -0.209934,-0.291384 -0.05338,-0.11647 -0.07997,-0.260568 -0.07997,-0.432154 0,-0.137307 0.02658,-0.270079 0.07997,-0.398343 0.05325,-0.128291 0.130436,-0.242013 0.231705,-0.34144 0.101132,-0.09932 0.226207,-0.178898 0.375225,-0.238467 0.149127,-0.05968 0.320246,-0.08945 0.513576,-0.08945 0.216696,0 0.414617,0.03436 0.593432,0.102973 0.178899,0.06872 0.335119,0.168013 0.468797,0.298118 z"
         id="path985"
         style="clip-rule:evenodd;fill:#ffffff;fill-rule:nonzero;stroke-width:0.027489;stroke-linejoin:round;stroke-miterlimit:1.4142" />
      <path
         d="m 84.544807,81.281041 c 0,-0.238466 -0.03252,-0.452551 -0.09759,-0.642225 -0.06507,-0.189783 -0.157155,-0.350017 -0.276374,-0.481057 -0.119247,-0.130902 -0.263785,-0.231704 -0.433639,-0.302131 -0.169744,-0.07045 -0.359418,-0.105613 -0.569022,-0.105613 -0.207762,0 -0.396528,0.03516 -0.566383,0.105613 -0.169744,0.07043 -0.314749,0.171229 -0.434903,0.302131 -0.120154,0.13104 -0.21271,0.291274 -0.277749,0.481057 -0.06507,0.189674 -0.09758,0.403759 -0.09758,0.642225 0,0.238467 0.03252,0.452084 0.09758,0.640824 0.06504,0.188876 0.157595,0.34878 0.277749,0.479682 0.120154,0.13093 0.265159,0.231265 0.434903,0.300785 0.169855,0.06963 0.358621,0.104348 0.566383,0.104348 0.209604,0 0.399278,-0.03472 0.569022,-0.104348 0.169854,-0.06952 0.314392,-0.169855 0.433639,-0.300785 0.119219,-0.130902 0.211308,-0.290806 0.276374,-0.479682 0.06507,-0.18874 0.09759,-0.402357 0.09759,-0.640824 m 0.539251,0 c 0,0.290806 -0.04604,0.557807 -0.138132,0.800727 -0.0922,0.242948 -0.222221,0.452194 -0.390234,0.627326 -0.16804,0.175242 -0.369946,0.311203 -0.605664,0.407854 -0.235718,0.09668 -0.496424,0.145004 -0.781842,0.145004 -0.285418,0 -0.545546,-0.04832 -0.780467,-0.145004 -0.234783,-0.09665 -0.436278,-0.232612 -0.60429,-0.407854 -0.167903,-0.175132 -0.298036,-0.384378 -0.390124,-0.627326 -0.0922,-0.24292 -0.138242,-0.509921 -0.138242,-0.800727 0,-0.290805 0.04604,-0.557806 0.138242,-0.800726 0.09209,-0.242948 0.222221,-0.452551 0.390124,-0.6287 0.168012,-0.17615 0.369507,-0.313045 0.60429,-0.410631 0.234921,-0.09745 0.495049,-0.146241 0.780467,-0.146241 0.285418,0 0.546124,0.04879 0.781842,0.146241 0.235718,0.09759 0.437624,0.234481 0.605664,0.410631 0.168013,0.176149 0.298036,0.385752 0.390234,0.6287 0.09209,0.24292 0.138132,0.509921 0.138132,0.800726"
         id="path987"
         style="clip-rule:evenodd;fill:#ffffff;fill-rule:nonzero;stroke-width:0.027489;stroke-linejoin:round;stroke-miterlimit:1.4142" />
      <path
         d="m 86.177652,79.354064 c 0.02257,0.01179 0.04835,0.03574 0.07722,0.0718 l 2.249148,2.926477 c -0.0054,-0.04684 -0.009,-0.09255 -0.01075,-0.136758 -0.0018,-0.04423 -0.0027,-0.08717 -0.0027,-0.128758 v -2.750547 h 0.46066 v 3.883368 h -0.265598 c -0.04159,0 -0.07628,-0.0072 -0.104238,-0.02177 -0.02807,-0.01443 -0.05556,-0.03881 -0.08269,-0.07318 L 86.25223,80.200697 c 0.0035,0.04525 0.0063,0.08945 0.0081,0.132854 0.0017,0.0433 0.0026,0.08304 0.0026,0.119248 v 2.766765 h -0.46066 v -3.883368 h 0.270986 c 0.04698,0 0.08178,0.0059 0.104348,0.01765"
         id="path989"
         style="clip-rule:evenodd;fill:#ffffff;fill-rule:nonzero;stroke-width:0.027489;stroke-linejoin:round;stroke-miterlimit:1.4142" />
      <path
         d="m 90.5484,81.778592 h 1.449824 l -0.609816,-1.579819 c -0.03975,-0.09759 -0.07856,-0.219582 -0.11647,-0.365851 -0.01993,0.07411 -0.03928,0.142255 -0.05831,0.204573 -0.01891,0.06243 -0.03747,0.116938 -0.05555,0.164027 z m 2.544572,1.44166 h -0.406507 c -0.04695,0 -0.08486,-0.01168 -0.113859,-0.03527 -0.02886,-0.02348 -0.0505,-0.05325 -0.06493,-0.08945 L 92.144465,82.15805 h -1.742334 l -0.363184,0.937484 c -0.01262,0.03252 -0.03436,0.06149 -0.06507,0.08681 -0.0307,0.02521 -0.06861,0.03791 -0.113749,0.03791 h -0.40648 l 1.55266,-3.883369 h 0.533864 z"
         id="path991"
         style="clip-rule:evenodd;fill:#ffffff;fill-rule:nonzero;stroke-width:0.027489;stroke-linejoin:round;stroke-miterlimit:1.4142" />
      <path
         d="m 94.110972,82.779191 h 1.680154 v 0.441638 h -2.205881 v -3.883093 h 0.525727 z"
         id="path993"
         style="clip-rule:evenodd;fill:#ffffff;fill-rule:nonzero;stroke-width:0.027489;stroke-linejoin:round;stroke-miterlimit:1.4142" />
      <path
         d="m 101.28834,81.281041 c 0,-0.238466 -0.0325,-0.451616 -0.0976,-0.639586 -0.0651,-0.187832 -0.15716,-0.346801 -0.27638,-0.476933 -0.11924,-0.129996 -0.26378,-0.229286 -0.43352,-0.298008 -0.16986,-0.06861 -0.35874,-0.102974 -0.566387,-0.102974 h -0.924097 v 3.032309 h 0.924097 c 0.207647,0 0.396527,-0.03425 0.566387,-0.102974 0.16974,-0.06861 0.31428,-0.167572 0.43352,-0.296633 0.11922,-0.129198 0.21131,-0.287727 0.27638,-0.475559 0.065,-0.18797 0.0976,-0.40112 0.0976,-0.639587 m 0.53923,0 c 0,0.290806 -0.046,0.555498 -0.13824,0.793965 -0.0921,0.238467 -0.2222,0.442572 -0.39024,0.612427 -0.1679,0.169882 -0.36937,0.301251 -0.60418,0.394247 -0.23492,0.09313 -0.49502,0.139616 -0.780437,0.139616 H 98.46201 v -3.883368 h 1.452463 c 0.285417,0 0.545517,0.04659 0.780437,0.139616 0.23481,0.093 0.43628,0.224833 0.60418,0.395594 0.16804,0.170679 0.29815,0.375362 0.39024,0.613829 0.0922,0.238467 0.13824,0.503159 0.13824,0.793964"
         id="path995"
         style="clip-rule:evenodd;fill:#ffffff;fill-rule:nonzero;stroke-width:0.027489;stroke-linejoin:round;stroke-miterlimit:1.4142" />
      <path
         d="m 103.07788,81.778592 h 1.44982 l -0.60981,-1.579819 c -0.0397,-0.09759 -0.0786,-0.219582 -0.11648,-0.365851 -0.0199,0.07411 -0.0393,0.142255 -0.0582,0.204573 -0.019,0.06243 -0.0376,0.116938 -0.0557,0.164027 z m 2.54457,1.44166 h -0.40651 c -0.047,0 -0.0849,-0.01168 -0.11386,-0.03527 -0.0289,-0.02348 -0.0505,-0.05325 -0.0649,-0.08945 l -0.36321,-0.937484 h -1.74233 l -0.36319,0.937484 c -0.0126,0.03252 -0.0344,0.06149 -0.0651,0.08681 -0.0307,0.02521 -0.0686,0.03791 -0.11375,0.03791 h -0.40648 l 1.55266,-3.883369 h 0.53386 z"
         id="path997"
         style="clip-rule:evenodd;fill:#ffffff;fill-rule:nonzero;stroke-width:0.027489;stroke-linejoin:round;stroke-miterlimit:1.4142" />
      <path
         d="m 108.40249,79.337571 v 0.441665 h -1.25465 v 3.44162 h -0.52573 v -3.44162 h -1.26015 v -0.441665 z"
         id="path999"
         style="clip-rule:evenodd;fill:#ffffff;fill-rule:nonzero;stroke-width:0.027489;stroke-linejoin:round;stroke-miterlimit:1.4142" />
      <path
         d="m 109.2464,81.778592 h 1.44983 l -0.60979,-1.579819 c -0.0397,-0.09759 -0.0786,-0.219582 -0.1165,-0.365851 -0.0199,0.07411 -0.0393,0.142255 -0.0583,0.204573 -0.0189,0.06243 -0.0374,0.116938 -0.0556,0.164027 z m 2.54458,1.44166 h -0.40651 c -0.0469,0 -0.0849,-0.01168 -0.11383,-0.03527 -0.0289,-0.02348 -0.0506,-0.05325 -0.065,-0.08945 L 110.8425,82.15805 h -1.74236 l -0.36319,0.937484 c -0.0126,0.03252 -0.0344,0.06149 -0.0651,0.08681 -0.0307,0.02521 -0.0686,0.03791 -0.11372,0.03791 h -0.4065 l 1.55268,-3.883369 h 0.53384 z"
         id="path1001"
         style="clip-rule:evenodd;fill:#ffffff;fill-rule:nonzero;stroke-width:0.027489;stroke-linejoin:round;stroke-miterlimit:1.4142" />
      <path
         d="m 116.3633,79.945077 c -0.0162,0.02716 -0.0334,0.04742 -0.0515,0.06094 -0.018,0.01363 -0.0416,0.02037 -0.0704,0.02037 -0.0307,0 -0.0664,-0.01534 -0.10698,-0.04604 -0.0407,-0.03068 -0.0922,-0.0646 -0.15452,-0.101709 -0.0623,-0.03697 -0.13723,-0.07078 -0.22483,-0.101572 -0.0876,-0.0307 -0.1938,-0.04604 -0.31841,-0.04604 -0.11751,0 -0.22142,0.01581 -0.31167,0.04742 -0.0904,0.03161 -0.16573,0.07455 -0.22631,0.128731 -0.0605,0.05418 -0.10606,0.117845 -0.13676,0.191048 -0.0308,0.07318 -0.0462,0.152207 -0.0462,0.237093 0,0.108361 0.0267,0.19825 0.0799,0.269612 0.0533,0.07147 0.1237,0.132304 0.21145,0.182911 0.0876,0.05063 0.18692,0.09451 0.29801,0.131507 0.11111,0.037 0.22497,0.07535 0.34144,0.115097 0.11649,0.03975 0.23033,0.08453 0.34144,0.134119 0.11111,0.04973 0.2104,0.112484 0.29814,0.188437 0.0875,0.07581 0.15795,0.168919 0.21131,0.279013 0.0533,0.110175 0.08,0.245669 0.08,0.406479 0,0.169855 -0.029,0.329291 -0.0867,0.478308 -0.0579,0.149018 -0.14226,0.278684 -0.25337,0.38886 -0.11111,0.110175 -0.24751,0.197013 -0.40926,0.2601 -0.16171,0.06323 -0.34542,0.09484 -0.55137,0.09484 -0.25117,0 -0.48015,-0.04558 -0.68701,-0.136757 -0.20685,-0.09126 -0.38347,-0.214524 -0.52971,-0.369947 l 0.15163,-0.249243 c 0.0145,-0.01993 0.0321,-0.03664 0.0529,-0.05017 0.0207,-0.0135 0.0438,-0.02026 0.0691,-0.02026 0.038,0 0.0813,0.02026 0.1301,0.06094 0.0488,0.04066 0.10974,0.08532 0.18291,0.134118 0.0732,0.04879 0.16161,0.09346 0.26563,0.134119 0.10377,0.04066 0.23066,0.06094 0.38061,0.06094 0.12472,0 0.23583,-0.01707 0.33342,-0.05143 0.0975,-0.03425 0.18016,-0.08271 0.24784,-0.145004 0.0678,-0.06232 0.11971,-0.136758 0.15589,-0.223595 0.0361,-0.0867 0.0542,-0.183352 0.0542,-0.290009 0,-0.117268 -0.0267,-0.21348 -0.0799,-0.288497 -0.0533,-0.07491 -0.12326,-0.137692 -0.21007,-0.1883 -0.0866,-0.05063 -0.18555,-0.09346 -0.29666,-0.128758 -0.11108,-0.03516 -0.22494,-0.07136 -0.34141,-0.108471 -0.1165,-0.03697 -0.23036,-0.07983 -0.34145,-0.128621 -0.11111,-0.04879 -0.21007,-0.112018 -0.29677,-0.189674 -0.0867,-0.07777 -0.15668,-0.174775 -0.21007,-0.291384 -0.0532,-0.11647 -0.0798,-0.260568 -0.0798,-0.432154 0,-0.137307 0.0266,-0.270079 0.0798,-0.398343 0.0534,-0.128291 0.13058,-0.242013 0.23171,-0.34144 0.10127,-0.09932 0.22634,-0.178898 0.37536,-0.238467 0.1491,-0.05968 0.32022,-0.08945 0.51347,-0.08945 0.2168,0 0.41472,0.03436 0.59351,0.102973 0.17882,0.06872 0.33515,0.168013 0.4688,0.298118 z"
         id="path1003"
         style="clip-rule:evenodd;fill:#ffffff;fill-rule:nonzero;stroke-width:0.027489;stroke-linejoin:round;stroke-miterlimit:1.4142" />
      <path
         d="m 120.31347,81.281041 c 0,-0.238466 -0.0326,-0.452551 -0.0976,-0.642225 -0.0651,-0.189783 -0.15715,-0.350017 -0.27637,-0.481057 -0.11925,-0.130902 -0.26379,-0.231704 -0.43353,-0.302131 -0.16986,-0.07045 -0.35967,-0.105613 -0.56913,-0.105613 -0.20779,0 -0.39653,0.03516 -0.56641,0.105613 -0.16986,0.07043 -0.31475,0.171229 -0.43488,0.302131 -0.12015,0.13104 -0.21271,0.291274 -0.27778,0.481057 -0.065,0.189674 -0.0976,0.403759 -0.0976,0.642225 0,0.238467 0.0326,0.452084 0.0976,0.640824 0.0651,0.188876 0.15763,0.34878 0.27778,0.479682 0.12013,0.13093 0.26502,0.231265 0.43488,0.300785 0.16988,0.06963 0.35862,0.104348 0.56641,0.104348 0.20946,0 0.39927,-0.03472 0.56913,-0.104348 0.16974,-0.06952 0.31428,-0.169855 0.43353,-0.300785 0.11922,-0.130902 0.21131,-0.290806 0.27637,-0.479682 0.065,-0.18874 0.0976,-0.402357 0.0976,-0.640824 m 0.53922,0 c 0,0.290806 -0.046,0.557807 -0.13813,0.800727 -0.0922,0.242948 -0.2223,0.452194 -0.39034,0.627326 -0.16791,0.175242 -0.36984,0.311203 -0.60556,0.407854 -0.23583,0.09668 -0.49639,0.145004 -0.78181,0.145004 -0.28545,0 -0.54566,-0.04832 -0.78047,-0.145004 -0.23481,-0.09665 -0.43628,-0.232612 -0.60429,-0.407854 -0.16804,-0.175132 -0.29804,-0.384378 -0.39023,-0.627326 -0.0921,-0.24292 -0.13814,-0.509921 -0.13814,-0.800727 0,-0.290805 0.0461,-0.557806 0.13814,-0.800726 0.0922,-0.242948 0.22219,-0.452551 0.39023,-0.6287 0.16801,-0.17615 0.36948,-0.313045 0.60429,-0.410631 0.23481,-0.09745 0.49502,-0.146241 0.78047,-0.146241 0.28542,0 0.54598,0.04879 0.78181,0.146241 0.23572,0.09759 0.43765,0.234481 0.60556,0.410631 0.16804,0.176149 0.29814,0.385752 0.39034,0.6287 0.0921,0.24292 0.13813,0.509921 0.13813,0.800726"
         id="path1005"
         style="clip-rule:evenodd;fill:#ffffff;fill-rule:nonzero;stroke-width:0.027489;stroke-linejoin:round;stroke-miterlimit:1.4142" />
      <path
         d="m 122.0975,82.779191 h 1.68016 v 0.441638 h -2.20588 v -3.883093 h 0.52572 z"
         id="path1007"
         style="clip-rule:evenodd;fill:#ffffff;fill-rule:nonzero;stroke-width:0.027489;stroke-linejoin:round;stroke-miterlimit:1.4142" />
      <path
         d="m 125.86624,82.803931 c 0.16081,0 0.30444,-0.02716 0.43078,-0.08134 0.12645,-0.05418 0.23352,-0.130105 0.32116,-0.227581 0.0876,-0.09759 0.15451,-0.214057 0.20055,-0.349578 0.046,-0.135493 0.0691,-0.28451 0.0691,-0.447135 V 79.33801 h 0.52297 v 2.360287 c 0,0.224035 -0.0356,0.431797 -0.10695,0.623202 -0.0714,0.191599 -0.17343,0.357357 -0.30629,0.497303 -0.13274,0.139974 -0.29482,0.24971 -0.48633,0.329291 -0.19149,0.07939 -0.40648,0.119137 -0.64495,0.119137 -0.23847,0 -0.45346,-0.03975 -0.64497,-0.119137 -0.19149,-0.07958 -0.35414,-0.189317 -0.48782,-0.329291 -0.13365,-0.139946 -0.23616,-0.305704 -0.30752,-0.497303 -0.0714,-0.191405 -0.10699,-0.399167 -0.10699,-0.623202 V 79.33801 h 0.52287 v 2.357538 c 0,0.162625 0.0232,0.311642 0.0692,0.447136 0.046,0.13552 0.11292,0.252101 0.20056,0.349577 0.0876,0.09759 0.19503,0.173978 0.32242,0.228956 0.12735,0.05523 0.27145,0.08271 0.43226,0.08271"
         id="path1009"
         style="clip-rule:evenodd;fill:#ffffff;fill-rule:nonzero;stroke-width:0.027489;stroke-linejoin:round;stroke-miterlimit:1.4142" />
      <path
         d="m 130.9572,79.337571 v 0.441665 h -1.25465 v 3.44162 h -0.52573 v -3.44162 h -1.26015 v -0.441665 z"
         id="path1011"
         style="clip-rule:evenodd;fill:#ffffff;fill-rule:nonzero;stroke-width:0.027489;stroke-linejoin:round;stroke-miterlimit:1.4142" />
      <rect
         x="131.60869"
         y="79.33757"
         width="0.52572674"
         height="3.8833683"
         id="rect1015"
         style="clip-rule:evenodd;fill:#ffffff;fill-rule:evenodd;stroke-width:0.027489;stroke-linejoin:round;stroke-miterlimit:1.4142" />
      <path
         d="m 136.24058,81.281041 c 0,-0.238466 -0.0325,-0.452551 -0.0976,-0.642225 -0.065,-0.189783 -0.15713,-0.350017 -0.27638,-0.481057 -0.11922,-0.130902 -0.26378,-0.231704 -0.43353,-0.302131 -0.16985,-0.07045 -0.35963,-0.105613 -0.56913,-0.105613 -0.20776,0 -0.39653,0.03516 -0.56638,0.105613 -0.16986,0.07043 -0.31475,0.171229 -0.4349,0.302131 -0.12016,0.13104 -0.21269,0.291274 -0.27775,0.481057 -0.0651,0.189674 -0.0976,0.403759 -0.0976,0.642225 0,0.238467 0.0325,0.452084 0.0976,0.640824 0.0651,0.188876 0.15759,0.34878 0.27775,0.479682 0.12015,0.13093 0.26504,0.231265 0.4349,0.300785 0.16985,0.06963 0.35862,0.104348 0.56638,0.104348 0.2095,0 0.39928,-0.03472 0.56913,-0.104348 0.16975,-0.06952 0.31431,-0.169855 0.43353,-0.300785 0.11925,-0.130902 0.21134,-0.290806 0.27638,-0.479682 0.0651,-0.18874 0.0976,-0.402357 0.0976,-0.640824 m 0.53925,0 c 0,0.290806 -0.046,0.557807 -0.13813,0.800727 -0.0922,0.242948 -0.22233,0.452194 -0.39034,0.627326 -0.1679,0.175242 -0.36984,0.311203 -0.60556,0.407854 -0.23582,0.09668 -0.49642,0.145004 -0.78184,0.145004 -0.28542,0 -0.54565,-0.04832 -0.78047,-0.145004 -0.23478,-0.09665 -0.43625,-0.232612 -0.60429,-0.407854 -0.16801,-0.175132 -0.29803,-0.384378 -0.39012,-0.627326 -0.0922,-0.24292 -0.13824,-0.509921 -0.13824,-0.800727 0,-0.290805 0.046,-0.557806 0.13824,-0.800726 0.0921,-0.242948 0.22211,-0.452551 0.39012,-0.6287 0.16804,-0.17615 0.36951,-0.313045 0.60429,-0.410631 0.23482,-0.09745 0.49505,-0.146241 0.78047,-0.146241 0.28542,0 0.54602,0.04879 0.78184,0.146241 0.23572,0.09759 0.43766,0.234481 0.60556,0.410631 0.16801,0.176149 0.29814,0.385752 0.39034,0.6287 0.0921,0.24292 0.13813,0.509921 0.13813,0.800726"
         id="path1017"
         style="clip-rule:evenodd;fill:#ffffff;fill-rule:nonzero;stroke-width:0.027489;stroke-linejoin:round;stroke-miterlimit:1.4142" />
      <path
         d="m 137.87343,79.354064 c 0.0225,0.01179 0.0483,0.03574 0.0772,0.0718 l 2.24917,2.926477 c -0.005,-0.04684 -0.009,-0.09255 -0.0109,-0.136758 -0.002,-0.04423 -0.003,-0.08717 -0.003,-0.128758 v -2.750547 h 0.46066 v 3.883368 h -0.2656 c -0.0416,0 -0.0763,-0.0072 -0.10424,-0.02177 -0.0281,-0.01443 -0.0557,-0.03881 -0.0827,-0.07318 l -2.24643,-2.924003 c 0.004,0.04525 0.006,0.08945 0.008,0.132854 0.002,0.0433 0.003,0.08304 0.003,0.119248 v 2.766765 h -0.46068 v -3.883368 h 0.27101 c 0.047,0 0.0817,0.0059 0.10435,0.01765"
         id="path1019"
         style="clip-rule:evenodd;fill:#ffffff;fill-rule:nonzero;stroke-width:0.027489;stroke-linejoin:round;stroke-miterlimit:1.4142" />
      <path
         d="m 143.58564,79.945077 c -0.0163,0.02716 -0.0335,0.04742 -0.0515,0.06094 -0.018,0.01363 -0.0416,0.02037 -0.0705,0.02037 -0.0307,0 -0.0664,-0.01534 -0.10699,-0.04604 -0.0406,-0.03068 -0.0922,-0.0646 -0.15448,-0.101709 -0.0623,-0.03697 -0.13723,-0.07078 -0.22486,-0.101572 -0.0876,-0.0307 -0.1938,-0.04604 -0.31841,-0.04604 -0.11751,0 -0.22139,0.01581 -0.31167,0.04742 -0.0904,0.03161 -0.16573,0.07455 -0.22631,0.128731 -0.0605,0.05418 -0.10606,0.117845 -0.13676,0.191048 -0.0308,0.07318 -0.0462,0.152207 -0.0462,0.237093 0,0.108361 0.0267,0.19825 0.0799,0.269612 0.0533,0.07147 0.1237,0.132304 0.21145,0.182911 0.0876,0.05063 0.18692,0.09451 0.29803,0.131507 0.11109,0.037 0.22494,0.07535 0.34144,0.115097 0.11647,0.03975 0.23033,0.08453 0.34142,0.134119 0.11111,0.04973 0.21042,0.112484 0.29814,0.188437 0.0875,0.07581 0.15795,0.168919 0.21134,0.279013 0.0532,0.110175 0.0799,0.245669 0.0799,0.406479 0,0.169855 -0.029,0.329291 -0.0867,0.478308 -0.0578,0.149018 -0.14225,0.278684 -0.25336,0.38886 -0.11108,0.110175 -0.24751,0.197013 -0.40923,0.2601 -0.16175,0.06323 -0.34545,0.09484 -0.5514,0.09484 -0.25117,0 -0.48012,-0.04558 -0.68698,-0.136757 -0.20685,-0.09126 -0.38347,-0.214524 -0.52974,-0.369947 l 0.15166,-0.249243 c 0.0145,-0.01993 0.032,-0.03664 0.0529,-0.05017 0.0207,-0.0135 0.0437,-0.02026 0.0691,-0.02026 0.0379,0 0.0813,0.02026 0.1301,0.06094 0.0488,0.04066 0.10974,0.08532 0.18294,0.134118 0.0732,0.04879 0.16161,0.09346 0.2656,0.134119 0.10377,0.04066 0.23069,0.06094 0.38061,0.06094 0.12472,0 0.23583,-0.01707 0.33342,-0.05143 0.0975,-0.03425 0.18016,-0.08271 0.24786,-0.145004 0.0678,-0.06232 0.11969,-0.136758 0.15589,-0.223595 0.0361,-0.0867 0.0542,-0.183352 0.0542,-0.290009 0,-0.117268 -0.0267,-0.21348 -0.0799,-0.288497 -0.0532,-0.07491 -0.12323,-0.137692 -0.21007,-0.1883 -0.0866,-0.05063 -0.18555,-0.09346 -0.29663,-0.128758 -0.11112,-0.03516 -0.22497,-0.07136 -0.34145,-0.108471 -0.11649,-0.03697 -0.23033,-0.07983 -0.34144,-0.128621 -0.11111,-0.04879 -0.21007,-0.112018 -0.29677,-0.189674 -0.0867,-0.07777 -0.15668,-0.174775 -0.21004,-0.291384 -0.0533,-0.11647 -0.0799,-0.260568 -0.0799,-0.432154 0,-0.137307 0.0266,-0.270079 0.0799,-0.398343 0.0534,-0.128291 0.13057,-0.242013 0.2317,-0.34144 0.10125,-0.09932 0.22632,-0.178898 0.37534,-0.238467 0.14913,-0.05968 0.32025,-0.08945 0.51347,-0.08945 0.21683,0 0.41475,0.03436 0.59354,0.102973 0.17879,0.06872 0.33512,0.168013 0.46879,0.298118 z"
         id="path1021"
         style="clip-rule:evenodd;fill:#ffffff;fill-rule:nonzero;stroke-width:0.027489;stroke-linejoin:round;stroke-miterlimit:1.4142" />
      <path
         d="m 112.74575,44.485392 h 0.7681 c 0.42492,0 0.6809,0.294132 0.76818,0.882507 0,0.419564 -0.28061,0.691925 -0.84171,0.817219 h -0.49024 c -0.62664,0 -1.04068,0.346032 -1.24215,1.037709 l -0.0245,0.612895 v 0.179833 h 1.07872 l 0.49022,-0.02452 c 0.39768,0 0.65915,0.269611 0.78448,0.808973 v 0.114436 c 0,0.392158 -0.25876,0.651022 -0.77624,0.776207 h -1.57718 v 5.875494 l 0.0245,0.343255 c 0,0.414067 -0.27788,0.683569 -0.83349,0.808973 -0.41407,0 -0.71095,-0.245201 -0.89075,-0.73544 l 0.0327,-0.416788 v -5.875494 h -1.37283 c -0.42495,0 -0.68104,-0.294132 -0.7681,-0.882507 0,-0.321401 0.23149,-0.593652 0.69457,-0.817109 l 0.67004,0.02452 h 0.74358 v -0.310516 c 0,-1.492651 0.66465,-2.519585 1.99396,-3.08069 z"
         id="path1023"
         style="clip-rule:evenodd;fill:#ffffff;fill-rule:nonzero;stroke-width:0.027489;stroke-linejoin:round;stroke-miterlimit:1.4142" />
      <path
         d="m 116.39904,52.232062 v 0.08992 c 0,1.11674 0.56099,1.955841 1.68334,2.516836 0.34856,0.13071 0.66193,0.196107 0.93968,0.196107 h 0.23699 c 0.92613,0 1.69158,-0.465829 2.29623,-1.397375 0.21785,-0.43581 0.3269,-0.852488 0.3269,-1.250281 v -0.122546 c 0,-1.073115 -0.53122,-1.895833 -1.59345,-2.467823 -0.36514,-0.16345 -0.74644,-0.24512 -1.14401,-0.24512 h -0.0327 c -1.12763,0 -1.9775,0.588374 -2.54949,1.765013 -0.10905,0.359556 -0.16345,0.664793 -0.16345,0.915273 m 5.49147,3.5546 c -0.66479,0.621003 -1.54191,0.931519 -2.63138,0.931519 h -0.23698 c -1.50354,0 -2.7566,-0.751824 -3.75885,-2.255361 -0.36502,-0.729942 -0.5475,-1.462744 -0.5475,-2.198184 0,-1.645105 0.80626,-2.949842 2.41881,-3.914156 0.68643,-0.321401 1.35648,-0.482074 2.01025,-0.482074 1.67237,0 2.99602,0.81711 3.97133,2.45144 0.29952,0.670044 0.44944,1.35933 0.44944,2.067391 v 3.538382 c 0,0.43581 -0.26697,0.699924 -0.80083,0.792589 h -0.0571 c -0.37055,0 -0.64566,-0.21796 -0.82536,-0.65366 v -0.08992 z"
         id="path1025"
         style="clip-rule:evenodd;fill:#ffffff;fill-rule:nonzero;stroke-width:0.027489;stroke-linejoin:round;stroke-miterlimit:1.4142" />
      <path
         d="m 126.26208,47.811284 c 0.53936,0.13618 0.80898,0.392158 0.80898,0.76807 v 7.338183 c 0,0.441198 -0.2725,0.708089 -0.81711,0.800864 h -0.049 c -0.44683,0 -0.72194,-0.277886 -0.82535,-0.833603 v -7.141912 c 0.0654,-0.621004 0.35953,-0.931519 0.8825,-0.931519 m 0,-2.091912 c 0.53936,0.136181 0.80898,0.392158 0.80898,0.76807 v 0.179833 c 0,0.430422 -0.2915,0.686427 -0.87437,0.768097 -0.41957,0 -0.69457,-0.285996 -0.82525,-0.858014 0.11441,-0.57199 0.41118,-0.857986 0.89064,-0.857986"
         id="path1027"
         style="clip-rule:evenodd;fill:#ffffff;fill-rule:nonzero;stroke-width:0.027489;stroke-linejoin:round;stroke-miterlimit:1.4142" />
      <path
         d="m 129.75868,47.803037 c 0.53386,0.136181 0.80087,0.392296 0.80087,0.768097 v 0.130793 c 0.6754,-0.59926 1.55529,-0.89889 2.63938,-0.89889 0.58287,0 1.21479,0.147066 1.89594,0.441199 0.23401,0.239841 0.35128,0.471326 0.35128,0.694674 v 0.05715 c -0.0927,0.533974 -0.36766,0.800864 -0.82536,0.800864 h -0.0735 c -0.5611,-0.179833 -0.96978,-0.269639 -1.22576,-0.269639 h -0.17972 c -1.10047,0 -1.90683,0.572018 -2.41881,1.715999 -0.10902,0.29963 -0.16342,0.64841 -0.16342,1.045956 v 3.62827 c 0,0.441308 -0.2725,0.708172 -0.81711,0.800837 h -0.0492 c -0.44669,0 -0.72191,-0.277859 -0.82524,-0.833494 v -7.141911 c 0.0653,-0.626419 0.36217,-0.939794 0.89064,-0.939794"
         id="path1029"
         style="clip-rule:evenodd;fill:#ffffff;fill-rule:nonzero;stroke-width:0.027489;stroke-linejoin:round;stroke-miterlimit:1.4142" />
      <path
         d="m 113.62815,67.19019 c -0.006,-0.108911 -0.11727,-0.174197 -0.33501,-0.196079 -2.7566,-0.615533 -4.22753,-1.007828 -4.41253,-1.176748 -0.56124,-0.424952 -0.84174,-0.950569 -0.84174,-1.57707 0,-0.849877 0.59376,-1.656101 1.78139,-2.41881 0.6538,-0.343255 1.29933,-0.514842 1.93671,-0.514842 1.49265,0 2.67218,0.689177 3.53838,2.067392 l 0.0328,0.302378 v 0.04904 c 0,0.463052 -0.27788,0.73544 -0.8336,0.81711 -0.37053,0 -0.7137,-0.261393 -1.02957,-0.784481 -0.49574,-0.484713 -1.06509,-0.727193 -1.70789,-0.727193 -0.83897,0 -1.49541,0.392185 -1.96934,1.176638 l -0.0164,0.08178 c 0,0.109049 0.23424,0.182582 0.70281,0.220599 2.3424,0.56663 3.63625,0.896141 3.88145,0.988806 0.67004,0.441198 1.00505,0.999692 1.00505,1.675096 v 0.02452 c 0,0.931657 -0.65927,1.773259 -1.97747,2.525083 -0.57213,0.256005 -1.17414,0.384048 -1.80603,0.384048 -1.30746,0 -2.41056,-0.610008 -3.3094,-1.830408 -0.11441,-0.16345 -0.17158,-0.321402 -0.17158,-0.473965 v -0.179833 c 0,-0.441198 0.29952,-0.694537 0.89889,-0.759933 0.28863,0 0.62916,0.280717 1.02146,0.841712 0.47921,0.446696 1.04046,0.670044 1.68323,0.670044 0.76271,0 1.3946,-0.356779 1.89594,-1.070448 z"
         id="path1031"
         style="clip-rule:evenodd;fill:#ffffff;fill-rule:nonzero;stroke-width:0.027489;stroke-linejoin:round;stroke-miterlimit:1.4142" />
      <path
         d="m 117.18247,61.395513 c 0.40854,0 0.67005,0.179833 0.78446,0.539362 0.4413,-0.359529 1.08136,-0.539362 1.92032,-0.539362 1.11138,0 2.00738,0.414067 2.68842,1.242062 0.23424,-0.4357 0.89078,-0.81711 1.96937,-1.144008 l 0.71919,-0.09805 c 1.35645,0 2.42417,0.642913 3.20329,1.9286 0.26148,0.539224 0.39216,1.056841 0.39216,1.55255 v 4.477955 c 0,0.397683 -0.26422,0.648162 -0.79259,0.751713 h -0.0735 c -0.52848,-0.09266 -0.7927,-0.364916 -0.7927,-0.81711 v -4.347382 c 0,-0.87162 -0.45758,-1.473629 -1.37286,-1.806026 l -0.3758,-0.04901 h -0.28599 c -0.72469,0 -1.2803,0.424925 -1.6671,1.274802 -0.049,0.179805 -0.0735,0.332369 -0.0735,0.457581 v 4.469983 c -0.0981,0.544859 -0.36767,0.81711 -0.80898,0.81711 h -0.0572 c -0.52858,-0.09266 -0.79272,-0.35403 -0.79272,-0.78448 v -3.69342 c 0,-0.95329 -0.11716,-1.539053 -0.35139,-1.757013 -0.39219,-0.522978 -0.89351,-0.784453 -1.50354,-0.784453 h -0.0899 c -0.83899,0 -1.43,0.452304 -1.77315,1.356471 -0.0545,0.217961 -0.0818,0.514842 -0.0818,0.890753 v 3.987827 c 0,0.43045 -0.26422,0.691815 -0.79259,0.78448 h -0.049 c -0.4413,0 -0.71378,-0.272251 -0.81722,-0.81711 v -6.97038 c 0.0599,-0.615534 0.35142,-0.92341 0.8744,-0.92341"
         id="path1033"
         style="clip-rule:evenodd;fill:#ffffff;fill-rule:nonzero;stroke-width:0.027489;stroke-linejoin:round;stroke-miterlimit:1.4142" />
      <path
         d="m 131.56471,65.62057 v 0.08992 c 0,1.11674 0.56099,1.955841 1.68334,2.516836 0.34853,0.13071 0.66191,0.196106 0.93979,0.196106 h 0.23696 c 0.92605,0 1.6915,-0.465828 2.29626,-1.397374 0.21785,-0.435811 0.3269,-0.852489 0.3269,-1.250282 V 65.65323 c 0,-1.073114 -0.53122,-1.895832 -1.59356,-2.467823 -0.36503,-0.163449 -0.74633,-0.245119 -1.14401,-0.245119 h -0.0328 c -1.1276,0 -1.97747,0.588374 -2.54946,1.765012 -0.10905,0.359556 -0.16345,0.664794 -0.16345,0.915274 m 5.4912,3.5546 c -0.66466,0.621003 -1.54167,0.931519 -2.63117,0.931519 h -0.23695 c -1.50365,0 -2.7566,-0.751824 -3.75912,-2.255361 -0.36503,-0.729943 -0.5475,-1.462744 -0.5475,-2.198184 0,-1.645105 0.80612,-2.949842 2.41881,-3.914156 0.68643,-0.321401 1.35647,-0.482074 2.01024,-0.482074 1.67238,0 2.9963,0.81711 3.97134,2.45144 0.29952,0.670044 0.44944,1.35933 0.44944,2.067391 v 3.538381 c 0,0.435921 -0.26686,0.699925 -0.80072,0.79259 h -0.0573 c -0.37053,0 -0.64553,-0.21796 -0.82525,-0.65366 v -0.08992 z"
         id="path1035"
         style="clip-rule:evenodd;fill:#ffffff;fill-rule:nonzero;stroke-width:0.027489;stroke-linejoin:round;stroke-miterlimit:1.4142" />
      <path
         d="m 141.40301,61.192095 c 0.53373,0.136318 0.80084,0.392295 0.80084,0.768097 v 0.130793 c 0.67543,-0.59926 1.55519,-0.89889 2.63941,-0.89889 0.58288,0 1.21479,0.147066 1.89583,0.441308 0.2341,0.239731 0.35139,0.471216 0.35139,0.694564 v 0.05715 c -0.0928,0.533973 -0.36777,0.800864 -0.82535,0.800864 h -0.0735 c -0.56113,-0.179833 -0.96978,-0.26964 -1.22579,-0.26964 h -0.17969 c -1.10049,0 -1.90683,0.572018 -2.41881,1.716 -0.10905,0.29963 -0.16345,0.64841 -0.16345,1.045955 v 3.628271 c 0,0.441308 -0.27247,0.708171 -0.81722,0.800836 h -0.049 c -0.4467,0 -0.72195,-0.277858 -0.82525,-0.833493 v -7.141912 c 0.0653,-0.626419 0.36217,-0.939793 0.89064,-0.939793"
         id="path1037"
         style="clip-rule:evenodd;fill:#ffffff;fill-rule:nonzero;stroke-width:0.027489;stroke-linejoin:round;stroke-miterlimit:1.4142" />
      <path
         d="m 149.60847,58.257921 h 0.13882 c 0.50671,0.109049 0.75996,0.351392 0.75996,0.727304 v 2.451467 h 0.97254 l 0.26961,-0.03266 c 0.41942,0 0.69456,0.272361 0.82535,0.81711 0,0.408569 -0.23984,0.700062 -0.71916,0.874369 l -0.49024,-0.03263 h -0.8581 v 4.159357 c 0,0.653661 0.1852,1.043207 0.55572,1.16853 l 0.64555,0.05726 h 0.32687 c 0.39769,0 0.6483,0.264224 0.75183,0.79259 v 0.07353 c -0.0927,0.528475 -0.36503,0.792727 -0.81711,0.792727 h -0.62925 c -1.05695,0 -1.84144,-0.572128 -2.35342,-1.716109 -0.0928,-0.288635 -0.13893,-0.618283 -0.13893,-0.988807 V 63.06283 h -0.34328 l -0.52298,0.03263 c -0.47943,-0.168809 -0.71905,-0.457691 -0.71905,-0.866232 0.0925,-0.528256 0.27236,-0.79259 0.53936,-0.79259 v -0.05729 l 0.56374,0.05729 h 0.48221 V 59.14851 c 0.0653,-0.593652 0.31866,-0.890643 0.75996,-0.890643"
         id="path1039"
         style="clip-rule:evenodd;fill:#ffffff;fill-rule:nonzero;stroke-width:0.027489;stroke-linejoin:round;stroke-miterlimit:1.4142" />
      <path
         d="m 59.39239,72.333378 h 8.308544 V 69.309866 H 62.415903 V 45.281748 h 5.285031 V 42.258235 H 59.39239 v 30.075693 z"
         fill="#e85624"
         id="path1045"
         style="clip-rule:evenodd;fill:#ffffff;fill-rule:nonzero;stroke-width:0.027489;stroke-linejoin:round;stroke-miterlimit:1.4142" />
      <path
         d="m 93.847078,42.25851 v 3.023513 h 5.285031 V 69.31014 h -5.285031 v 3.023513 h 8.308542 V 42.25796 h -8.308542 z"
         fill="#e85624"
         id="path1047"
         style="clip-rule:evenodd;fill:#ffffff;fill-rule:nonzero;stroke-width:0.027489;stroke-linejoin:round;stroke-miterlimit:1.4142" />
      <path
         d="m 84.830692,66.145609 c -0.788933,0.625952 -1.712921,1.170811 -2.746039,1.619678 -1.048017,0.454943 -2.367378,0.68563 -3.921303,0.68563 -1.589083,0 -2.989152,-0.495736 -4.161557,-1.473299 -0.560307,-0.447273 -1.019731,-1.013904 -1.359769,-1.679687 -0.341551,-0.668916 -0.514979,-1.397594 -0.514979,-2.165911 0,-0.751494 0.09976,-1.431022 0.296304,-2.019973 0.555854,-1.58474 1.607775,-2.876722 3.128246,-3.844334 l 0.219224,-0.139506 9.364121,8.776131 z m 6.827713,2.302092 -0.01067,-0.0096 -2.881395,-2.752746 0.169278,-0.236516 c 1.694805,-2.366114 2.050678,-3.498247 2.050678,-4.031259 0,-0.279123 -0.122794,-0.532489 -0.375582,-0.774969 -0.256775,-0.245779 -0.539802,-0.365246 -0.864749,-0.365246 -0.342238,0 -0.62859,0.07502 -0.850894,0.222991 -0.154845,0.103083 -0.405352,0.370414 -0.718149,1.056154 -0.283824,0.622185 -0.661,1.294263 -1.120973,1.997981 l -0.218785,0.335036 -8.624393,-8.129316 c -1.627347,-1.491277 -2.64925,-2.568625 -3.120549,-3.289881 -0.330775,-0.46778 -0.580704,-0.954445 -0.736127,-1.43575 -0.158419,-0.488616 -0.235388,-1.135404 -0.235388,-1.976787 0,-0.887784 0.396638,-1.720233 1.179057,-2.474228 0.405792,-0.376269 0.896471,-0.679913 1.463431,-0.906807 0.577406,-0.231017 1.348224,-0.343145 2.35718,-0.343145 0.624824,0 1.184665,0.09484 1.664705,0.281872 0.615506,0.179943 2.17655,1.1613 2.412268,1.979784 0.221506,0.768757 -0.484273,1.687246 -1.115585,2.322132 -0.466626,0.469484 -0.464124,1.231506 0.0054,1.698461 0.454943,0.452194 1.246625,0.449555 1.698489,-0.0053 1.956308,-1.968074 2.020083,-3.620299 1.724714,-4.664331 -0.332287,-0.823872 -0.813124,-1.501805 -1.469424,-2.072201 -0.07958,-0.08076 -0.150942,-0.139177 -0.233656,-0.193908 -0.561325,-0.43526 -1.13436,-0.775876 -1.772572,-1.055934 -1.150056,-0.504753 -2.572748,-0.730629 -3.472408,-0.730629 -2.15673,0 -3.914705,0.664546 -5.225655,1.975193 -0.603823,0.60374 -1.075369,1.317519 -1.4018,2.121929 -0.327697,0.806554 -0.493895,1.750113 -0.493895,2.804426 0,1.042849 0.221286,1.982175 0.657784,2.791781 0.452304,0.840833 1.023854,1.6884 1.699286,2.519365 l 0.243607,0.299739 -0.330994,0.198608 c -1.020089,0.611878 -1.95356,1.481326 -2.774463,2.583964 -1.039523,1.445014 -1.568246,3.056225 -1.568246,4.784183 0,2.130973 0.718039,3.929274 2.134519,5.345232 1.680951,1.680951 4.136816,2.533329 7.298874,2.533329 2.933349,0 5.610226,-1.019264 7.95586,-3.029285 l 0.230221,-0.197124 2.890466,2.760993 c 0.27959,0.258287 0.622625,0.385643 1.044691,0.385643 0.404418,0 0.705422,-0.12403 0.920084,-0.3791 0.228598,-0.272389 0.339928,-0.58678 0.339928,-0.96063 0,-0.353124 -0.171448,-0.675102 -0.524104,-0.984106"
         fill="#42bdd8"
         id="path1049"
         style="clip-rule:evenodd;fill:#ffffff;fill-rule:nonzero;stroke-width:0.027489;stroke-linejoin:round;stroke-miterlimit:1.4142" />
      <path
         d="m 143.932,55.125277 c -0.32036,0.254273 -0.68632,0.475669 -1.0856,0.665811 v 0.0076 l -0.20674,0.08978 c -0.52215,0.225987 -1.1511,0.33149 -1.8728,0.33182 -0.38734,1.09e-4 -0.75834,-0.0607 -1.10505,-0.183489 -0.34441,-0.121749 -0.66386,-0.305018 -0.95145,-0.543925 l -2.8e-4,2.2e-4 c -7.9e-4,-6.87e-4 -0.001,-0.0015 -0.002,-0.0021 -0.001,-9.07e-4 -0.002,-0.0017 -0.003,-0.0026 l 2.8e-4,-2.19e-4 c -0.28465,-0.228406 -0.51773,-0.517151 -0.68816,-0.851032 -0.17604,-0.344162 -0.26585,-0.7234 -0.26549,-1.115118 0,-0.362964 0.0477,-0.699952 0.14877,-1.003018 l 9.4e-4,-0.0026 7.9e-4,-0.0023 c 0.13572,-0.387237 0.33375,-0.741845 0.58997,-1.056594 0.25623,-0.314886 0.56996,-0.589529 0.93463,-0.821591 l 0.32198,-0.204793 4.63079,4.339961 z m 2.58259,1.008378 -0.002,-0.0018 -0.002,-0.0022 -0.008,-0.0072 -1.49425,-1.427613 0.24853,-0.347268 c 0.36665,-0.511763 0.58301,-0.883551 0.70314,-1.1417 0.1212,-0.257957 0.14171,-0.401696 0.14044,-0.44293 -4.6e-4,-0.01121 -9.3e-4,-0.01454 -0.007,-0.02771 -0.006,-0.01273 -0.0206,-0.03552 -0.0535,-0.06713 -0.0316,-0.03013 -0.0558,-0.04467 -0.0761,-0.05336 -0.0207,-0.0084 -0.0392,-0.01273 -0.0691,-0.01295 -0.1016,2.2e-4 -0.15668,0.02163 -0.18522,0.04055 l -0.007,0.0069 c -0.008,0.0081 -0.0218,0.02326 -0.0396,0.04775 -0.0358,0.04868 -0.0881,0.134477 -0.14981,0.27019 -0.1347,0.294819 -0.30994,0.606379 -0.52128,0.929704 l -0.32137,0.492163 -4.1162,-3.879794 c -0.36286,-0.332727 -0.66042,-0.620922 -0.89705,-0.870384 -0.23322,-0.246246 -0.40662,-0.452634 -0.52985,-0.638652 v 1.1e-4 c -0.001,-0.0017 -0.002,-0.0037 -0.004,-0.0054 -0.001,-0.0017 -0.002,-0.0034 -0.003,-0.005 v -1.1e-4 c -0.16045,-0.229093 -0.28531,-0.470309 -0.36525,-0.71771 v 2.48e-4 -4.68e-4 2.2e-4 c -0.0868,-0.270079 -0.12037,-0.587577 -0.12095,-0.980779 -2.7e-4,-0.247841 0.0566,-0.491805 0.16458,-0.717792 0.10778,-0.226207 0.26494,-0.434573 0.4625,-0.625045 l 0.003,-0.0026 0.002,-0.0019 c 0.21337,-0.19792 0.46822,-0.354278 0.75375,-0.468467 0.31876,-0.126449 0.69948,-0.17582 1.17128,-0.176507 0.3002,0 0.58012,0.04489 0.83324,0.13882 l 2.8e-4,-2.2e-4 c 0.005,0.0014 0.009,0.0035 0.0144,0.005 0.004,0.0017 0.009,0.0029 0.0139,0.0046 l -2.7e-4,2.2e-4 c 0.0623,0.0204 0.12315,0.04525 0.18819,0.07639 0.0743,0.03585 0.15281,0.07881 0.23354,0.127823 0.16117,0.09805 0.33045,0.219225 0.48073,0.358622 0.10009,0.09346 0.19229,0.194154 0.26697,0.312 0.0424,0.06757 0.0795,0.141458 0.10413,0.226454 0.0221,0.07661 0.0318,0.154268 0.0318,0.229065 0,0.127247 -0.0273,0.24545 -0.0668,0.353701 -0.0399,0.108334 -0.0924,0.207872 -0.1513,0.300867 -0.11787,0.185798 -0.26092,0.347296 -0.39413,0.481744 -0.0366,0.037 -0.0539,0.08305 -0.0543,0.132415 3.5e-4,0.04984 0.018,0.09632 0.0552,0.133541 0.0282,0.02886 0.0771,0.04962 0.13242,0.04948 0.0559,1.38e-4 0.10539,-0.02106 0.13357,-0.05039 0.29515,-0.296881 0.47462,-0.565586 0.58081,-0.799242 0.10595,-0.233986 0.14031,-0.433419 0.14064,-0.604648 0,-0.114986 -0.0164,-0.217272 -0.0406,-0.307629 -0.12851,-0.310075 -0.30329,-0.55415 -0.54964,-0.769251 l -0.01,-0.0086 -0.009,-0.0095 c -0.0219,-0.02177 -0.03,-0.02796 -0.0484,-0.04055 l -0.0108,-0.0071 -0.0101,-0.0079 c -0.22772,-0.17626 -0.45437,-0.310956 -0.71222,-0.424238 -0.22414,-0.09863 -0.48735,-0.174225 -0.73808,-0.223018 -0.25036,-0.04912 -0.4901,-0.0718 -0.66111,-0.07158 -0.44232,1.1e-4 -0.83313,0.06804 -1.1757,0.197453 -0.34259,0.129776 -0.63821,0.320247 -0.89477,0.576472 -0.2347,0.234701 -0.41728,0.510607 -0.54521,0.825714 -0.12519,0.307766 -0.19344,0.681259 -0.19333,1.112259 2.7e-4,0.413489 0.0868,0.769801 0.25004,1.072757 v 3.57e-4 c 0.18863,0.350705 0.42962,0.708639 0.71631,1.061405 l 0.35782,0.440181 -0.48644,0.291823 c -0.40673,0.243855 -0.7871,0.595494 -1.12727,1.051811 -0.42014,0.586532 -0.62733,1.221528 -0.62837,1.915405 2.7e-4,0.433308 0.0725,0.822965 0.21282,1.174466 0.14055,0.351392 0.34889,0.666141 0.63145,0.948947 0.33341,0.333084 0.743,0.585625 1.2395,0.758229 0.49607,0.172273 1.07966,0.262767 1.74888,0.26263 0.60957,-1.1e-4 1.18719,-0.105366 1.73639,-0.314282 0.54888,-0.209136 1.07001,-0.522511 1.56218,-0.944136 l 0.338,-0.289542 1.50057,1.43344 c 0.0311,0.0284 0.0591,0.04525 0.0932,0.05806 0.0342,0.01262 0.0766,0.02108 0.13574,0.02119 0.0547,0 0.0865,-0.0084 0.10421,-0.0157 0.0178,-0.0079 0.0254,-0.01317 0.0401,-0.02966 0.0261,-0.03161 0.0413,-0.05888 0.0522,-0.08934 0.0107,-0.03057 0.0175,-0.06608 0.0176,-0.114766 -5.8e-4,-0.02232 -0.003,-0.03631 -0.0172,-0.06369 -0.014,-0.02656 -0.0431,-0.06584 -0.0977,-0.113612"
         fill="#58595b"
         id="path1051"
         style="clip-rule:evenodd;fill:#ffffff;fill-rule:nonzero;stroke-width:0.027489;stroke-linejoin:round;stroke-miterlimit:1.4142" />
      <path
         d="m 137.77997,49.016676 v -2.48e-4 -1.09e-4 z"
         id="path1055"
         style="clip-rule:evenodd;fill:#ffffff;fill-rule:nonzero;stroke-width:0.027489;stroke-linejoin:round;stroke-miterlimit:1.4142" />
      <path
         d="m 146.50772,52.165539 0.006,0.0059 v 1.1e-4 z"
         id="path1057"
         style="clip-rule:evenodd;fill:#ffffff;fill-rule:nonzero;stroke-width:0.027489;stroke-linejoin:round;stroke-miterlimit:1.4142" />
      <path
         d="m 138.75308,48.272274 v -3.57e-4 -1.1e-4 z"
         id="path1059"
         style="clip-rule:evenodd;fill:#ffffff;fill-rule:nonzero;stroke-width:0.027489;stroke-linejoin:round;stroke-miterlimit:1.4142" />
    </g>
  </g>
</svg>
