<?xml version="1.0" encoding="UTF-8" standalone="no"?>
<svg
   xmlns:dc="http://purl.org/dc/elements/1.1/"
   xmlns:cc="http://creativecommons.org/ns#"
   xmlns:rdf="http://www.w3.org/1999/02/22-rdf-syntax-ns#"
   xmlns:svg="http://www.w3.org/2000/svg"
   xmlns="http://www.w3.org/2000/svg"
   xmlns:sodipodi="http://sodipodi.sourceforge.net/DTD/sodipodi-0.dtd"
   xmlns:inkscape="http://www.inkscape.org/namespaces/inkscape"
   aria-hidden="true"
   focusable="false"
   data-prefix="fas"
   data-icon="rss-square"
   class="svg-inline--fa fa-rss-square fa-w-14"
   role="img"
   viewBox="0 0 16 16"
   version="1.1"
   id="svg885"
   sodipodi:docname="rss.svg"
   width="16"
   height="16"
   inkscape:version="1.0.1 (3bc2e813f5, 2020-09-07)">
  <metadata
     id="metadata891">
    <rdf:RDF>
      <cc:Work
         rdf:about="">
        <dc:format>image/svg+xml</dc:format>
        <dc:type
           rdf:resource="http://purl.org/dc/dcmitype/StillImage" />
        <dc:title></dc:title>
      </cc:Work>
    </rdf:RDF>
  </metadata>
  <defs
     id="defs889" />
  <sodipodi:namedview
     pagecolor="#ffffff"
     bordercolor="#666666"
     borderopacity="1"
     objecttolerance="10"
     gridtolerance="10"
     guidetolerance="10"
     inkscape:pageopacity="0"
     inkscape:pageshadow="2"
     inkscape:window-width="1920"
     inkscape:window-height="1017"
     id="namedview887"
     showgrid="false"
     fit-margin-top="0"
     fit-margin-left="0"
     fit-margin-right="0"
     fit-margin-bottom="0"
     inkscape:zoom="1.6162671"
     inkscape:cx="224"
     inkscape:cy="224"
     inkscape:window-x="-8"
     inkscape:window-y="-8"
     inkscape:window-maximized="1"
     inkscape:current-layer="svg885" />
  <path
     fill="currentColor"
     d="M 14.285714,0 H 1.7142857 C 0.7675,0 0,0.7675 0,1.714286 V 14.285714 C 0,15.2325 0.7675,16 1.7142857,16 H 14.285714 C 15.2325,16 16,15.2325 16,14.285714 V 1.714286 C 16,0.7675 15.2325,0 14.285714,0 Z M 4,13.714286 c -0.9467857,0 -1.7142857,-0.7675 -1.7142857,-1.714286 0,-0.946786 0.7675,-1.714286 1.7142857,-1.714286 0.9467857,0 1.7142857,0.7675 1.7142857,1.714286 0,0.946786 -0.7675,1.714286 -1.7142857,1.714286 z m 5.6261786,0 h -1.22625 C 8.18525,13.714286 8.00525,13.548714 7.9912857,13.3345 7.8050714,10.475571 5.5183214,8.1945 2.6654643,8.008679 2.4512857,7.99475 2.2857143,7.814714 2.2857143,7.600071 v -1.22625 c 0,-0.233392 0.1952857,-0.420607 0.4283571,-0.408035 3.9480715,0.213357 7.1070357,3.376285 7.3201426,7.320143 0.01257,0.233071 -0.1746426,0.428357 -0.4080354,0.428357 z m 3.6795354,0 H 12.0795 c -0.220036,0 -0.399107,-0.174357 -0.408107,-0.394215 C 11.471464,8.443821 7.5569643,4.528607 2.6799643,4.328643 2.4600714,4.319643 2.2857143,4.140536 2.2857143,3.9205 V 2.694286 c 0,-0.2305 0.1906428,-0.416572 0.4209643,-0.408286 C 8.7006071,2.501179 13.499893,7.328536 13.714,13.293321 c 0.0083,0.230322 -0.177786,0.420965 -0.408286,0.420965 z"
     id="path883"
     style="fill:#ffffff;fill-opacity:1;stroke-width:0.0357143" />
</svg>
