<?xml version="1.0" encoding="UTF-8" standalone="no"?>
<svg
   xmlns:dc="http://purl.org/dc/elements/1.1/"
   xmlns:cc="http://creativecommons.org/ns#"
   xmlns:rdf="http://www.w3.org/1999/02/22-rdf-syntax-ns#"
   xmlns:svg="http://www.w3.org/2000/svg"
   xmlns="http://www.w3.org/2000/svg"
   xmlns:sodipodi="http://sodipodi.sourceforge.net/DTD/sodipodi-0.dtd"
   xmlns:inkscape="http://www.inkscape.org/namespaces/inkscape"
   aria-hidden="true"
   focusable="false"
   data-prefix="fab"
   data-icon="twitter-square"
   class="svg-inline--fa fa-twitter-square fa-w-14"
   role="img"
   viewBox="0 0 16 16"
   version="1.1"
   id="svg2709"
   sodipodi:docname="twitter.svg"
   width="16"
   height="16"
   inkscape:version="1.0.1 (3bc2e813f5, 2020-09-07)">
  <metadata
     id="metadata2715">
    <rdf:RDF>
      <cc:Work
         rdf:about="">
        <dc:format>image/svg+xml</dc:format>
        <dc:type
           rdf:resource="http://purl.org/dc/dcmitype/StillImage" />
        <dc:title></dc:title>
      </cc:Work>
    </rdf:RDF>
  </metadata>
  <defs
     id="defs2713" />
  <sodipodi:namedview
     pagecolor="#ffffff"
     bordercolor="#666666"
     borderopacity="1"
     objecttolerance="10"
     gridtolerance="10"
     guidetolerance="10"
     inkscape:pageopacity="0"
     inkscape:pageshadow="2"
     inkscape:window-width="1920"
     inkscape:window-height="1017"
     id="namedview2711"
     showgrid="false"
     fit-margin-top="0"
     fit-margin-left="0"
     fit-margin-right="0"
     fit-margin-bottom="0"
     inkscape:zoom="1.6162671"
     inkscape:cx="224"
     inkscape:cy="224"
     inkscape:window-x="1912"
     inkscape:window-y="-8"
     inkscape:window-maximized="1"
     inkscape:current-layer="svg2709" />
  <path
     fill="currentColor"
     d="M 14.285714,0 H 1.7142857 C 0.76785714,0 0,0.767857 0,1.714286 V 14.285714 C 0,15.232143 0.76785714,16 1.7142857,16 H 14.285714 C 15.232143,16 16,15.232143 16,14.285714 V 1.714286 C 16,0.767857 15.232143,0 14.285714,0 Z m -1.746428,5.671429 c 0.0071,0.1 0.0071,0.203571 0.0071,0.303571 0,3.096429 -2.357143,6.664286 -6.6642861,6.664286 -1.3285715,0 -2.5607143,-0.385715 -3.5964286,-1.05 0.1892857,0.02143 0.3714286,0.02857 0.5642857,0.02857 1.0964286,0 2.1035714,-0.371428 2.9071429,-1 C 4.7285284,10.596426 3.8642427,9.921428 3.5678141,8.992856 3.9285714,9.046429 4.2535714,9.046429 4.625,8.95 3.5535714,8.732143 2.75,7.789286 2.75,6.65 V 6.62143 c 0.3107143,0.175 0.675,0.282142 1.0571429,0.296428 a 2.3373929,2.3373929 0 0 1 -1.0428572,-1.95 c 0,-0.435714 0.1142857,-0.835714 0.3178572,-1.182143 1.1535714,1.421429 2.8857142,2.35 4.8285714,2.45 C 7.5785714,4.64643 8.7678571,3.357144 10.196429,3.357144 c 0.675,0 1.282142,0.282143 1.710714,0.739286 0.528571,-0.1 1.035714,-0.296429 1.485714,-0.564286 -0.175,0.542857 -0.542857,1 -1.028571,1.289286 0.471428,-0.05 0.928571,-0.182143 1.35,-0.364286 -0.317857,0.467857 -0.717857,0.882143 -1.175,1.214285 z"
     id="path2707"
     style="stroke-width:0.0357143;fill:#ffffff;fill-opacity:1" />
</svg>
